<svg width="118" height="26" viewBox="0 0 118 26" fill="none" xmlns="http://www.w3.org/2000/svg">
<path d="M103.334 26V0H109.665C110.81 0 111.839 0.106996 112.751 0.320989C113.684 0.534981 114.479 0.898767 115.137 1.41235C115.816 1.90453 116.335 2.5786 116.696 3.43457C117.056 4.29054 117.237 5.37119 117.237 6.67654C117.237 7.7251 117.088 8.62387 116.791 9.37284C116.515 10.1218 116.102 10.721 115.55 11.1704C114.999 11.5984 114.31 11.8872 113.483 12.037C114.501 12.2082 115.338 12.572 115.996 13.1284C116.675 13.6634 117.173 14.3695 117.491 15.2469C117.83 16.1243 118 17.1835 118 18.4247C118 19.6658 117.841 20.7679 117.523 21.7309C117.226 22.6724 116.77 23.4642 116.155 24.1062C115.561 24.7267 114.808 25.1975 113.896 25.5185C113.005 25.8395 111.955 26 110.747 26H103.334ZM108.042 22.6617H109.824C111.245 22.6617 112.21 22.3193 112.719 21.6346C113.228 20.9284 113.483 19.8477 113.483 18.3926C113.483 17.344 113.355 16.4988 113.101 15.8568C112.867 15.1934 112.465 14.7012 111.892 14.3802C111.34 14.0593 110.598 13.8988 109.665 13.8988H108.042V22.6617ZM108.042 10.6247H109.633C110.566 10.6247 111.287 10.4856 111.796 10.2074C112.305 9.92922 112.655 9.50124 112.846 8.92346C113.058 8.34568 113.164 7.61811 113.164 6.74074C113.164 5.82058 113.005 5.1144 112.687 4.62222C112.39 4.10864 111.934 3.76626 111.319 3.59506C110.704 3.40247 109.919 3.30617 108.965 3.30617H108.042V10.6247Z" fill="#BEED3B"/>
<path d="M85.4082 26L90.562 0H95.5886L100.742 26H96.3839L95.3659 19.9975H90.8802L89.8303 26H85.4082ZM91.3574 16.9802H94.8569L93.1071 6.06667L91.3574 16.9802Z" fill="#BEED3B"/>
<path d="M73.322 26V0H78.0305V22.7259H84.2659V26H73.322Z" fill="#BEED3B"/>
<path d="M47.8774 26V0H53.9539C56.0536 0 57.6867 0.288889 58.8532 0.866667C60.0409 1.44444 60.8786 2.33251 61.3665 3.53086C61.8755 4.72922 62.13 6.24856 62.13 8.08889V17.5901C62.13 19.4733 61.8755 21.0461 61.3665 22.3086C60.8786 23.5498 60.0515 24.4807 58.885 25.1012C57.7397 25.7004 56.1596 26 54.1447 26H47.8774ZM52.5859 22.6938H54.0175C55.0992 22.6938 55.8733 22.5012 56.3399 22.116C56.8065 21.7309 57.0928 21.1745 57.1989 20.4469C57.3049 19.6979 57.3579 18.7885 57.3579 17.7185V7.7679C57.3579 6.71934 57.2837 5.87407 57.1352 5.2321C56.9868 4.59012 56.6792 4.11934 56.2126 3.81975C55.746 3.52016 54.9931 3.37037 53.9539 3.37037H52.5859V22.6938Z" fill="#BEED3B"/>
<path d="M30.5413 26V0H33.8181L40.0854 14.8296V0H43.9666V26H40.8489L34.5498 10.4642V26H30.5413Z" fill="#BEED3B"/>
<path d="M21.9077 26V0H26.5525V26H21.9077Z" fill="#BEED3B"/>
<path d="M0 26L0.445392 0H5.31289L8.97147 18.0074L12.7891 0H17.4975L17.9747 26H14.4752L14.0935 7.9284L10.4349 26H7.60348L3.88127 7.8642L3.53132 26H0Z" fill="#BEED3B"/>
</svg>
