<svg width="40" height="40" viewBox="0 0 40 40" fill="none" xmlns="http://www.w3.org/2000/svg">
<g clip-path="url(#clip0_2817_26632)">
<g clip-path="url(#clip1_2817_26632)">
<path d="M29.1077 2.85547H10.8934C6.45538 2.85547 2.85767 6.45318 2.85767 10.8912V29.1055C2.85767 33.5435 6.45538 37.1412 10.8934 37.1412H29.1077C33.5457 37.1412 37.1434 33.5435 37.1434 29.1055V10.8912C37.1434 6.45318 33.5457 2.85547 29.1077 2.85547Z" fill="url(#paint0_radial_2817_26632)"/>
<path d="M29.1077 2.85547H10.8934C6.45538 2.85547 2.85767 6.45318 2.85767 10.8912V29.1055C2.85767 33.5435 6.45538 37.1412 10.8934 37.1412H29.1077C33.5457 37.1412 37.1434 33.5435 37.1434 29.1055V10.8912C37.1434 6.45318 33.5457 2.85547 29.1077 2.85547Z" fill="url(#paint1_radial_2817_26632)"/>
<path d="M20.0017 6.60547C16.3645 6.60547 15.9079 6.62141 14.4795 6.68636C13.0536 6.75172 12.0804 6.97739 11.2289 7.30859C10.3479 7.65065 9.6007 8.10828 8.85633 8.85292C8.11128 9.59743 7.65365 10.3446 7.31052 11.2252C6.97838 12.077 6.75244 13.0506 6.68829 14.4758C6.62441 15.9044 6.60767 16.3611 6.60767 19.9985C6.60767 23.6358 6.62374 24.0909 6.68856 25.5194C6.75418 26.9452 6.97985 27.9185 7.31079 28.77C7.65311 29.651 8.11075 30.3981 8.85539 31.1425C9.59963 31.8876 10.3468 32.3463 11.2271 32.6883C12.0793 33.0195 13.0527 33.2452 14.4782 33.3106C15.9069 33.3755 16.363 33.3914 20.0001 33.3914C23.6378 33.3914 24.0928 33.3755 25.5213 33.3106C26.9471 33.2452 27.9215 33.0195 28.7736 32.6883C29.6542 32.3463 30.4003 31.8876 31.1445 31.1425C31.8895 30.3981 32.347 29.651 32.6903 28.7704C33.0195 27.9185 33.2455 26.9449 33.3125 25.5197C33.3766 24.0912 33.3934 23.6358 33.3934 19.9985C33.3934 16.3611 33.3766 15.9047 33.3125 14.476C33.2455 13.0502 33.0195 12.0771 32.6903 11.2256C32.347 10.3446 31.8895 9.59743 31.1445 8.85292C30.3995 8.10801 29.6545 7.65038 28.7728 7.30873C27.9191 6.97739 26.9453 6.75158 25.5195 6.68636C24.0908 6.62141 23.636 6.60547 19.9976 6.60547H20.0017ZM18.8003 9.019C19.1569 9.01846 19.5548 9.019 20.0017 9.019C23.5778 9.019 24.0015 9.03185 25.4136 9.096C26.7195 9.15574 27.4282 9.37391 27.9003 9.55725C28.5253 9.79993 28.9709 10.0902 29.4394 10.559C29.9082 11.0278 30.1982 11.4742 30.4416 12.0992C30.6249 12.5706 30.8434 13.2794 30.9028 14.5852C30.967 15.9971 30.9809 16.4211 30.9809 19.9954C30.9809 23.5697 30.967 23.9938 30.9028 25.4056C30.8431 26.7114 30.6249 27.4201 30.4416 27.8917C30.1989 28.5167 29.9082 28.9618 29.4394 29.4302C28.9707 29.899 28.5256 30.1891 27.9003 30.4319C27.4287 30.616 26.7195 30.8337 25.4136 30.8934C24.0018 30.9576 23.5778 30.9715 20.0017 30.9715C16.4256 30.9715 16.0017 30.9576 14.5899 30.8934C13.2841 30.8331 12.5754 30.615 12.1029 30.4316C11.478 30.1888 11.0315 29.8987 10.5627 29.43C10.094 28.9612 9.80387 28.5159 9.56052 27.8906C9.37718 27.419 9.15874 26.7103 9.09927 25.4045C9.03512 23.9926 9.02226 23.5686 9.02226 19.992C9.02226 16.4156 9.03512 15.9937 9.09927 14.5819C9.15901 13.276 9.37718 12.5673 9.56052 12.0952C9.80334 11.4702 10.094 11.0238 10.5628 10.555C11.0316 10.0863 11.478 9.79605 12.103 9.55283C12.5751 9.36868 13.2841 9.15105 14.5899 9.09105C15.8254 9.0352 16.3042 9.01846 18.8003 9.01565V9.019ZM27.1508 11.2427C26.2636 11.2427 25.5437 11.9619 25.5437 12.8494C25.5437 13.7366 26.2636 14.4565 27.1508 14.4565C28.0381 14.4565 28.758 13.7366 28.758 12.8494C28.758 11.9621 28.0381 11.2422 27.1508 11.2422V11.2427ZM20.0017 13.1206C16.2035 13.1206 13.124 16.2001 13.124 19.9985C13.124 23.7968 16.2035 26.8749 20.0017 26.8749C23.8001 26.8749 26.8786 23.7968 26.8786 19.9985C26.8786 16.2002 23.7998 13.1206 20.0015 13.1206H20.0017ZM20.0017 15.5341C22.4672 15.5341 24.4661 17.5327 24.4661 19.9985C24.4661 22.464 22.4672 24.4628 20.0017 24.4628C17.5361 24.4628 15.5375 22.464 15.5375 19.9985C15.5375 17.5327 17.5361 15.5341 20.0017 15.5341Z" fill="white"/>
</g>
</g>
<defs>
<radialGradient id="paint0_radial_2817_26632" cx="0" cy="0" r="1" gradientUnits="userSpaceOnUse" gradientTransform="translate(11.9648 39.7819) rotate(-90) scale(33.9797 31.6038)">
<stop stop-color="#FFDD55"/>
<stop offset="0.1" stop-color="#FFDD55"/>
<stop offset="0.5" stop-color="#FF543E"/>
<stop offset="1" stop-color="#C837AB"/>
</radialGradient>
<radialGradient id="paint1_radial_2817_26632" cx="0" cy="0" r="1" gradientUnits="userSpaceOnUse" gradientTransform="translate(-2.88533 5.32525) rotate(78.681) scale(15.1891 62.61)">
<stop stop-color="#3771C8"/>
<stop offset="0.128" stop-color="#3771C8"/>
<stop offset="1" stop-color="#6600FF" stop-opacity="0"/>
</radialGradient>
<clipPath id="clip0_2817_26632">
<rect width="34.2857" height="34.2857" fill="white" transform="translate(2.85718 2.85547)"/>
</clipPath>
<clipPath id="clip1_2817_26632">
<rect width="34.2857" height="34.2857" fill="white" transform="translate(2.85742 2.85547)"/>
</clipPath>
</defs>
</svg>
