<svg width="200" height="200" viewBox="0 0 200 200" fill="none" xmlns="http://www.w3.org/2000/svg">
<path d="M70.9881 179.442L71.9029 179.846L70.9881 179.442ZM63.5998 182.285L64.0038 181.37H64.0038L63.5998 182.285ZM60.7253 174.909L61.64 175.313L60.7253 174.909ZM36.3914 163.702L35.6843 164.41H35.6843L36.3914 163.702ZM23.8426 136.782L23.4678 135.855L23.8426 136.782ZM16.5611 133.675L15.634 134.049H15.634L16.5611 133.675ZM19.6379 126.38L19.2631 125.453L19.6379 126.38ZM20.5466 71.0533L20.9508 70.1387H20.9508L20.5466 71.0533ZM17.7044 63.6644L16.7897 63.2603L17.7044 63.6644ZM25.0813 60.7913L25.4855 59.8766H25.4855L25.0813 60.7913ZM36.3482 44.2795L35.6411 44.9867L36.3482 44.2795ZM44.2815 36.3463L43.5744 37.0534V37.0534L44.2815 36.3463ZM63.1622 23.8239L64.0893 23.4491L63.1622 23.8239ZM66.2695 16.5425L65.8947 15.6154L66.2695 16.5425ZM73.5638 19.6192L72.6367 19.994L73.5638 19.6192ZM128.936 20.474L128.021 20.0699V20.0699L128.936 20.474ZM136.324 17.6304L136.728 16.7157V16.7157L136.324 17.6304ZM139.199 25.0068L140.113 25.4109V25.4109L139.199 25.0068ZM155.754 36.4067L156.461 37.1138L155.754 36.4067ZM163.687 44.3399L164.394 45.047L163.687 44.3399ZM176.161 63.109L176.536 64.0362V64.0362L176.161 63.109ZM183.443 66.2163L184.37 65.8416V65.8416L183.443 66.2163ZM180.366 73.5107L179.991 72.5836L180.366 73.5107ZM179.504 129.029L179.1 129.943L179.504 129.029ZM182.346 136.418L183.261 136.822L182.346 136.418ZM174.969 139.291L174.565 140.205L174.969 139.291ZM163.661 155.725L164.368 155.018L163.661 155.725ZM155.727 163.659L156.434 162.952L155.727 163.659ZM136.835 176.142L137.762 175.768L136.835 176.142ZM133.728 183.424L133.353 182.497H133.353L133.728 183.424ZM126.433 180.347L125.506 180.722L126.433 180.347ZM126.082 149.541L127.009 149.166L126.082 149.541ZM135.424 143.355L136.131 142.648L135.424 143.355ZM142.768 134.833L143.475 134.125L142.768 134.833ZM147.908 127.333L147.504 128.247L147.908 127.333ZM150.247 110.684L149.269 110.475L150.247 110.684ZM153.547 117.559L153.143 118.473L153.547 117.559ZM150.278 110.538L151.256 110.744L150.278 110.538ZM153.453 84.3896L153.828 85.3167L153.453 84.3896ZM149.651 73.8253L149.276 72.8982L149.651 73.8253ZM143.497 64.5305L144.204 65.2376L143.497 64.5305ZM127.405 51.7097L126.49 51.3057L127.405 51.7097ZM110.539 49.4261L110.745 48.4477L110.539 49.4261ZM64.227 56.2918L63.5199 56.9989L64.227 56.2918ZM56.8694 64.8007L56.1623 65.5079L56.8694 64.8007ZM51.5896 72.505L51.1854 73.4196L51.5896 72.505ZM46.1134 82.351L46.5176 81.4363L46.1134 82.351ZM49.3748 89.4167L48.3953 89.2153L49.3748 89.4167ZM46.3065 115.6L45.9317 114.673L46.3065 115.6ZM56.4342 135.726L55.7271 135.019L56.4342 135.726ZM82.401 153.602L81.4863 153.198L82.401 153.602ZM72.5905 148.045L71.6757 147.641L72.5905 148.045ZM50.1034 126.167L49.7286 125.239L50.1034 126.167ZM135.146 57.0146L134.439 56.3075L135.146 57.0146ZM89.418 150.329L89.2165 151.309L89.418 150.329ZM65.1086 142.919L65.8157 143.626L65.1086 142.919ZM110.712 49.4628L110.502 50.4406L110.712 49.4628ZM115.534 153.384L116.461 153.009L115.534 153.384ZM104.604 155.314V184.414H106.604V155.314H104.604ZM104.604 184.414C104.604 186.941 102.533 189 99.9943 189V191C103.626 191 106.604 188.057 106.604 184.414H104.604ZM99.9943 189C97.456 189 95.3847 186.941 95.3847 184.414H93.3847C93.3847 188.057 96.3623 191 99.9943 191V189ZM95.3847 184.414V156.127H93.3847V184.414H95.3847ZM89.6194 149.35C89.5636 149.338 89.5078 149.327 89.4521 149.315L89.0426 151.272C89.1005 151.285 89.1585 151.297 89.2165 151.309L89.6194 149.35ZM81.4863 153.198L70.0734 179.038L71.9029 179.846L83.3158 154.006L81.4863 153.198ZM70.0734 179.038C69.0522 181.35 66.3257 182.396 64.0038 181.37L63.1957 183.2C66.5181 184.667 70.4311 183.178 71.9029 179.846L70.0734 179.038ZM64.0038 181.37C61.6818 180.345 60.6189 177.625 61.64 175.313L59.8105 174.505C58.3387 177.837 59.8734 181.732 63.1957 183.2L64.0038 181.37ZM61.64 175.313L73.5052 148.449L71.6757 147.641L59.8105 174.505L61.64 175.313ZM64.4015 142.211L43.601 163.012L45.0152 164.426L65.8157 143.626L64.4015 142.211ZM43.601 163.012C41.8138 164.799 38.8934 164.79 37.0985 162.995L35.6843 164.41C38.2525 166.978 42.4393 167.002 45.0152 164.426L43.601 163.012ZM37.0985 162.995C35.3037 161.201 35.2948 158.28 37.082 156.493L35.6677 155.079C33.0918 157.655 33.1161 161.841 35.6843 164.41L37.0985 162.995ZM37.082 156.493L57.1413 136.434L55.7271 135.019L35.6677 155.079L37.082 156.493ZM49.7286 125.239L23.4678 135.855L24.2173 137.709L50.4781 127.094L49.7286 125.239ZM23.4678 135.855C21.1245 136.802 18.4396 135.653 17.4883 133.3L15.634 134.049C16.9952 137.417 20.8399 139.074 24.2173 137.709L23.4678 135.855ZM17.4883 133.3C16.537 130.947 17.6694 128.255 20.0127 127.307L19.2631 125.453C15.8857 126.818 14.2729 130.682 15.634 134.049L17.4883 133.3ZM20.0127 127.307L46.6812 116.527L45.9317 114.673L19.2631 125.453L20.0127 127.307ZM44.3633 104.603H15.5862V106.603H44.3633V104.603ZM15.5862 104.603C13.0588 104.603 11 102.531 11 99.9931H9C9 103.625 11.9433 106.603 15.5862 106.603V104.603ZM11 99.9931C11 97.4547 13.0588 95.3834 15.5862 95.3834V93.3834C11.9433 93.3834 9 96.3611 9 99.9931H11ZM15.5862 95.3834H43.5764V93.3834H15.5862V95.3834ZM50.3543 89.6181C50.3688 89.548 50.3833 89.4779 50.398 89.4079L48.4408 88.9967C48.4255 89.0695 48.4103 89.1424 48.3953 89.2153L50.3543 89.6181ZM46.5176 81.4363L20.9508 70.1387L20.1425 71.968L45.7092 83.2656L46.5176 81.4363ZM20.9508 70.1387C18.639 69.1171 17.5931 66.3904 18.6191 64.0686L16.7897 63.2603C15.3217 66.5824 16.8104 70.4956 20.1425 71.968L20.9508 70.1387ZM18.6191 64.0686C19.645 61.7469 22.3653 60.6844 24.6771 61.706L25.4855 59.8766C22.1534 58.4042 18.2577 59.9382 16.7897 63.2603L18.6191 64.0686ZM24.6771 61.706L51.1854 73.4196L51.9938 71.5903L25.4855 59.8766L24.6771 61.706ZM57.5766 64.0936L37.0554 43.5724L35.6411 44.9867L56.1623 65.5079L57.5766 64.0936ZM37.0554 43.5724C35.2682 41.7853 35.277 38.8649 37.0719 37.07L35.6577 35.6558C33.0895 38.224 33.0652 42.4107 35.6411 44.9867L37.0554 43.5724ZM37.0719 37.07C38.8668 35.2751 41.7872 35.2662 43.5744 37.0534L44.9886 35.6392C42.4127 33.0633 38.2259 33.0875 35.6577 35.6558L37.0719 37.07ZM43.5744 37.0534L63.5199 56.9989L64.9341 55.5847L44.9886 35.6392L43.5744 37.0534ZM74.6675 49.6178L64.0893 23.4491L62.2351 24.1987L72.8132 50.3673L74.6675 49.6178ZM64.0893 23.4491C63.1421 21.1059 64.2909 18.4209 66.6443 17.4696L65.8947 15.6154C62.5274 16.9765 60.8698 20.8213 62.2351 24.1987L64.0893 23.4491ZM66.6443 17.4696C68.9976 16.5183 71.6895 17.6508 72.6367 19.994L74.491 19.2445C73.1257 15.8671 69.262 14.2542 65.8947 15.6154L66.6443 17.4696ZM72.6367 19.994L83.3966 46.6122L85.2508 45.8627L74.491 19.2445L72.6367 19.994ZM95.3847 44.2825V15.5862H93.3847V44.2825H95.3847ZM95.3847 15.5862C95.3847 13.0588 97.456 11 99.9943 11V9C96.3623 9 93.3847 11.9433 93.3847 15.5862H95.3847ZM99.9943 11C102.533 11 104.604 13.0588 104.604 15.5862H106.604C106.604 11.9433 103.626 9 99.9943 9V11ZM104.604 15.5862V43.6338H106.604V15.5862H104.604ZM110.333 50.4046C110.389 50.4165 110.446 50.4285 110.502 50.4406L110.921 48.4851C110.863 48.4725 110.804 48.46 110.745 48.4477L110.333 50.4046ZM118.505 46.5659L129.85 20.878L128.021 20.0699L116.675 45.7578L118.505 46.5659ZM129.85 20.878C130.872 18.566 133.598 17.5196 135.92 18.5452L136.728 16.7157C133.406 15.2483 129.493 16.7376 128.021 20.0699L129.85 20.878ZM135.92 18.5452C138.242 19.5707 139.305 22.2908 138.284 24.6028L140.113 25.4109C141.585 22.0785 140.051 18.1831 136.728 16.7157L135.92 18.5452ZM138.284 24.6028L126.49 51.3057L128.319 52.1137L140.113 25.4109L138.284 24.6028ZM135.853 57.7217L156.461 37.1138L155.047 35.6996L134.439 56.3075L135.853 57.7217ZM156.461 37.1138C158.248 35.3266 161.169 35.3355 162.964 37.1304L164.378 35.7162C161.81 33.1479 157.623 33.1236 155.047 35.6996L156.461 37.1138ZM162.964 37.1304C164.758 38.9253 164.767 41.8456 162.98 43.6328L164.394 45.047C166.97 42.4711 166.946 38.2844 164.378 35.7162L162.964 37.1304ZM162.98 43.6328L142.79 63.8234L144.204 65.2376L164.394 45.047L162.98 43.6328ZM150.025 74.7524L176.536 64.0362L175.786 62.1819L149.276 72.8982L150.025 74.7524ZM176.536 64.0362C178.879 63.089 181.564 64.2377 182.515 66.5911L184.37 65.8416C183.008 62.4743 179.164 60.8167 175.786 62.1819L176.536 64.0362ZM182.515 66.5911C183.467 68.9445 182.334 71.6363 179.991 72.5836L180.741 74.4378C184.118 73.0725 185.731 69.2088 184.37 65.8416L182.515 66.5911ZM179.991 72.5836L153.078 83.4625L153.828 85.3167L180.741 74.4378L179.991 72.5836ZM155.395 95.3834H184.414V93.3834H155.395V95.3834ZM184.414 95.3834C186.941 95.3834 189 97.4548 189 99.9931H191C191 96.3611 188.057 93.3834 184.414 93.3834V95.3834ZM189 99.9931C189 102.531 186.941 104.603 184.414 104.603V106.603C188.057 106.603 191 103.625 191 99.9931H189ZM184.414 104.603H156.07V106.603H184.414V104.603ZM149.299 110.332C149.289 110.379 149.279 110.427 149.269 110.475L151.225 110.893C151.235 110.844 151.246 110.794 151.256 110.744L149.299 110.332ZM153.143 118.473L179.1 129.943L179.908 128.114L153.952 116.644L153.143 118.473ZM179.1 129.943C181.412 130.965 182.458 133.692 181.432 136.013L183.261 136.822C184.729 133.5 183.24 129.586 179.908 128.114L179.1 129.943ZM181.432 136.013C180.406 138.335 177.685 139.398 175.374 138.376L174.565 140.205C177.897 141.678 181.793 140.144 183.261 136.822L181.432 136.013ZM175.374 138.376L148.312 126.418L147.504 128.247L174.565 140.205L175.374 138.376ZM142.061 135.54L162.954 156.433L164.368 155.018L143.475 134.125L142.061 135.54ZM162.954 156.433C164.741 158.22 164.732 161.14 162.937 162.935L164.351 164.349C166.919 161.781 166.944 157.594 164.368 155.018L162.954 156.433ZM162.937 162.935C161.142 164.73 158.222 164.739 156.434 162.952L155.02 164.366C157.596 166.942 161.783 166.917 164.351 164.349L162.937 162.935ZM156.434 162.952L136.131 142.648L134.717 144.062L155.02 164.366L156.434 162.952ZM125.155 149.916L135.908 176.517L137.762 175.768L127.009 149.166L125.155 149.916ZM135.908 176.517C136.855 178.86 135.706 181.545 133.353 182.497L134.103 184.351C137.47 182.99 139.127 179.145 137.762 175.768L135.908 176.517ZM133.353 182.497C131 183.448 128.308 182.316 127.361 179.972L125.506 180.722C126.872 184.099 130.735 185.712 134.103 184.351L133.353 182.497ZM127.361 179.972L116.461 153.009L114.607 153.759L125.506 180.722L127.361 179.972ZM127.786 141.971C125.224 143.673 123.96 146.959 125.155 149.916L127.009 149.166C126.211 147.193 127.026 144.877 128.893 143.636L127.786 141.971ZM136.131 142.648C133.873 140.39 130.358 140.262 127.786 141.971L128.893 143.636C130.761 142.395 133.205 142.551 134.717 144.062L136.131 142.648ZM141.516 128.458C140.026 130.624 140.14 133.619 142.061 135.54L143.475 134.125C142.297 132.948 142.17 131.036 143.164 129.592L141.516 128.458ZM148.312 126.418C145.832 125.322 143.001 126.301 141.516 128.458L143.164 129.592C144.157 128.149 145.986 127.577 147.504 128.247L148.312 126.418ZM149.269 110.475C148.585 113.67 150.047 117.105 153.143 118.473L153.952 116.644C151.827 115.705 150.714 113.28 151.225 110.893L149.269 110.475ZM156.07 104.603C152.693 104.603 149.972 107.142 149.299 110.332L151.256 110.744C151.758 108.363 153.754 106.603 156.07 106.603V104.603ZM149.486 90.2974C150.023 93.1089 152.417 95.3834 155.395 95.3834V93.3834C153.49 93.3834 151.829 91.9057 151.45 89.9216L149.486 90.2974ZM153.078 83.4625C150.345 84.5673 148.948 87.4869 149.486 90.2974L151.45 89.9216C151.075 87.9628 152.059 86.0317 153.828 85.3167L153.078 83.4625ZM142.097 72.1067C143.787 74.6747 147.071 75.9469 150.025 74.7524L149.276 72.8982C147.307 73.694 144.997 72.8755 143.767 71.0072L142.097 72.1067ZM142.79 63.8234C140.55 66.0632 140.413 69.5477 142.097 72.1067L143.767 71.0072C142.547 69.1522 142.707 66.7342 144.204 65.2376L142.79 63.8234ZM126.49 51.3057C125.368 53.8446 126.37 56.7416 128.574 58.2666L129.712 56.622C128.218 55.5876 127.623 53.6892 128.319 52.1137L126.49 51.3057ZM104.604 43.6338C104.604 47.0104 107.143 49.732 110.333 50.4046L110.745 48.4477C108.364 47.9455 106.604 45.9504 106.604 43.6338H104.604ZM90.2729 50.2233C93.0983 49.6812 95.3847 47.2751 95.3847 44.2825H93.3847C93.3847 46.2026 91.8952 47.8755 89.896 48.2591L90.2729 50.2233ZM83.3966 46.6122C84.508 49.3617 87.446 50.7656 90.2729 50.2233L89.896 48.2591C87.9206 48.6381 85.972 47.6467 85.2508 45.8627L83.3966 46.6122ZM71.9832 57.6895C74.5898 55.9629 75.8824 52.6233 74.6675 49.6178L72.8132 50.3673C73.6295 52.3867 72.7908 54.7556 70.8788 56.022L71.9832 57.6895ZM63.5199 56.9989C65.8092 59.2882 69.3733 59.4182 71.9832 57.6895L70.8788 56.022C68.9709 57.2858 66.4766 57.1272 64.9341 55.5847L63.5199 56.9989ZM58.1356 71.3216C59.6518 69.109 59.5365 66.0536 57.5766 64.0936L56.1623 65.5079C57.379 66.7245 57.509 68.6978 56.4858 70.191L58.1356 71.3216ZM51.1854 73.4196C53.7242 74.5415 56.6209 73.5321 58.1356 71.3216L56.4858 70.191C55.4603 71.6876 53.5656 72.2848 51.9938 71.5903L51.1854 73.4196ZM50.398 89.4079C51.0678 86.22 49.6044 82.8003 46.5176 81.4363L45.7092 83.2656C47.827 84.2014 48.9409 86.6161 48.4408 88.9967L50.398 89.4079ZM43.5764 95.3834C46.9671 95.3834 49.6951 92.824 50.3543 89.6181L48.3953 89.2153C47.9031 91.6091 45.9025 93.3834 43.5764 93.3834V95.3834ZM46.6812 116.527C49.4269 115.417 50.823 112.478 50.2685 109.658L48.3061 110.044C48.6927 112.01 47.7084 113.955 45.9317 114.673L46.6812 116.527ZM57.1413 136.434C59.4486 134.126 59.5696 130.531 57.8158 127.909L56.1534 129.021C57.4379 130.941 57.2843 133.462 55.7271 135.019L57.1413 136.434ZM89.4521 149.315C86.2654 148.648 82.8489 150.113 81.4863 153.198L83.3158 154.006C84.2506 151.889 86.663 150.775 89.0426 151.272L89.4521 149.315ZM109.633 149.44C106.849 149.986 104.604 152.364 104.604 155.314H106.604C106.604 153.431 108.059 151.787 110.018 151.403L109.633 149.44ZM50.2685 109.658C49.7183 106.86 47.3291 104.603 44.3633 104.603V106.603C46.2615 106.603 47.9178 108.069 48.3061 110.044L50.2685 109.658ZM73.5052 148.449C74.6028 145.964 73.6138 143.129 71.4456 141.652L70.32 143.305C71.7689 144.292 72.3462 146.123 71.6757 147.641L73.5052 148.449ZM57.8158 127.909C56.0769 125.309 52.7352 124.024 49.7286 125.239L50.4781 127.094C52.502 126.276 54.8759 127.111 56.1534 129.021L57.8158 127.909ZM128.574 58.2666C130.796 59.8045 133.878 59.6968 135.853 57.7217L134.439 56.3075C133.21 57.5361 131.216 57.6623 129.712 56.622L128.574 58.2666ZM95.3847 156.127C95.3847 152.737 92.8252 150.009 89.6194 149.35L89.2165 151.309C91.6103 151.801 93.3847 153.801 93.3847 156.127H95.3847ZM71.4456 141.652C69.2853 140.181 66.3108 140.302 64.4015 142.211L65.8157 143.626C66.9854 142.456 68.8811 142.326 70.32 143.305L71.4456 141.652ZM110.502 50.4406C113.698 51.1261 117.136 49.6642 118.505 46.5659L116.675 45.7578C115.736 47.8834 113.309 48.9971 110.921 48.4851L110.502 50.4406ZM110.018 151.403C111.968 151.021 113.895 151.998 114.607 153.759L116.461 153.009C115.358 150.28 112.437 148.891 109.633 149.44L110.018 151.403Z" fill="#03AA89"/>
</svg>
