<svg width="126" height="126" viewBox="0 0 126 126" fill="none" xmlns="http://www.w3.org/2000/svg">
<path d="M44.7285 113.035L43.8138 112.63L44.7285 113.035ZM40.0679 114.839L40.4719 113.925L40.0679 114.839ZM38.263 110.179L39.1777 110.583L38.263 110.179ZM27.9246 103.132L27.2175 102.425L27.9246 103.132ZM22.9267 103.132L22.2195 103.839H22.2195L22.9267 103.132ZM22.9267 98.1344L22.2195 97.4273H22.2195L22.9267 98.1344ZM15.0346 86.1669L14.6598 85.2398H14.6598L15.0346 86.1669ZM12.3856 79.6139L12.0109 78.6867H12.0109L12.3856 79.6139ZM12.9579 44.7694L12.5538 45.6841H12.5538L12.9579 44.7694ZM11.1538 40.1084L12.0685 40.5126L12.0685 40.5126L11.1538 40.1084ZM15.8148 38.3043L16.219 37.3896H16.219L15.8148 38.3043ZM22.9099 22.9084L23.617 23.6155H23.617L22.9099 22.9084ZM27.9078 22.9084L27.2007 23.6155V23.6155L27.9078 22.9084ZM39.7978 15.0226L40.7249 14.6478L40.7249 14.6478L39.7978 15.0226ZM46.3508 12.3736L45.4237 12.7484V12.7484L46.3508 12.3736ZM81.2236 12.9119L80.3088 12.5079V12.5079L81.2236 12.9119ZM85.8843 11.107L86.2883 10.1922V10.1922L85.8843 11.107ZM87.6892 15.7676L88.6039 16.1717L87.6892 15.7676ZM98.1146 22.9465L97.4075 22.2394V22.2394L98.1146 22.9465ZM103.113 22.9465L102.405 23.6536V23.6536L103.113 22.9465ZM103.113 27.9444L103.82 28.6515V28.6515L103.113 27.9444ZM110.968 39.764L110.593 38.8369L110.968 39.764ZM115.569 41.7161L114.642 42.0909L115.569 41.7161ZM113.617 46.3171L113.242 45.39L113.617 46.3171ZM113.074 81.2819L113.478 80.3672L113.074 81.2819ZM110.217 87.747L110.621 86.8323L110.217 87.747ZM103.096 98.0964L102.389 98.8035L103.096 98.0964ZM86.2006 110.956L85.2735 111.331L86.2006 110.956ZM84.2486 115.557L83.8738 114.63H83.8738L84.2486 115.557ZM79.6476 113.605L80.5747 113.23L79.6476 113.605ZM79.4317 94.2105L80.3588 93.8358L79.4317 94.2105ZM93.1819 80.2193L93.5861 79.3046L93.1819 80.2193ZM96.7781 74.0809L96.3739 74.9956L96.7781 74.0809ZM96.6755 53.1652L97.0502 54.0924L96.6755 53.1652ZM90.403 40.654L91.1101 41.3611L90.403 40.654ZM80.2649 32.5769L81.1796 32.981L80.2649 32.5769ZM53.124 29.1294L52.1969 29.5042L53.124 29.1294ZM40.4631 35.4636L39.756 36.1707L40.4631 35.4636ZM32.5015 45.6779L32.9057 44.7632L32.5015 45.6779ZM28.9886 51.8531L28.5844 52.7678L28.9886 51.8531ZM29.1731 72.8279L29.5479 73.755L29.1731 72.8279ZM35.5536 85.5075L36.2607 86.2146L35.5536 85.5075ZM45.7321 93.268L46.6468 93.6721L45.7321 93.268ZM31.5652 79.4847L31.1904 78.5576L31.5652 79.4847ZM41.0185 90.0385L41.7256 90.7456L41.0185 90.0385ZM74.1042 29.0308L75.019 29.4349L74.1042 29.0308ZM72.7866 96.6318L71.8595 97.0066L72.7866 96.6318ZM65.5306 97.8478V116.166H67.5306V97.8478H65.5306ZM65.5306 116.166C65.5306 117.565 64.396 118.7 62.9965 118.7V120.7C65.5006 120.7 67.5306 118.67 67.5306 116.166H65.5306ZM62.9965 118.7C61.5969 118.7 60.4624 117.565 60.4624 116.166H58.4624C58.4624 118.67 60.4924 120.7 62.9965 120.7V118.7ZM60.4624 116.166V98.4152H58.4624V116.166H60.4624ZM50.9758 96.415L43.8138 112.63L45.6433 113.439L52.8053 97.223L50.9758 96.415ZM43.8138 112.63C43.2484 113.911 41.7521 114.49 40.4719 113.925L39.6639 115.754C41.9545 116.766 44.6316 115.729 45.6433 113.439L43.8138 112.63ZM40.4719 113.925C39.1917 113.359 38.6123 111.863 39.1777 110.583L37.3482 109.775C36.3365 112.065 37.3732 114.742 39.6639 115.754L40.4719 113.925ZM39.1777 110.583L46.6468 93.6721L44.8173 92.864L37.3482 109.775L39.1777 110.583ZM40.3114 89.3314L27.2175 102.425L28.6317 103.839L41.7256 90.7456L40.3114 89.3314ZM27.2175 102.425C26.2279 103.415 24.6234 103.415 23.6338 102.425L22.2195 103.839C23.9902 105.61 26.861 105.61 28.6317 103.839L27.2175 102.425ZM23.6338 102.425C22.6441 101.436 22.6441 99.8312 23.6338 98.8415L22.2195 97.4273C20.4489 99.198 20.4489 102.069 22.2195 103.839L23.6338 102.425ZM23.6338 98.8415L36.2607 86.2146L34.8465 84.8004L22.2195 97.4273L23.6338 98.8415ZM31.1904 78.5576L14.6598 85.2398L15.4093 87.094L31.9399 80.4118L31.1904 78.5576ZM14.6598 85.2398C13.3623 85.7643 11.8852 85.1376 11.3607 83.8401L9.50645 84.5896C10.4449 86.9112 13.0877 88.0325 15.4093 87.094L14.6598 85.2398ZM11.3607 83.8401C10.8362 82.5425 11.4629 81.0655 12.7604 80.541L12.0109 78.6867C9.68926 79.6252 8.56799 82.268 9.50645 84.5896L11.3607 83.8401ZM12.7604 80.541L29.5479 73.755L28.7984 71.9007L12.0109 78.6867L12.7604 80.541ZM27.9489 65.5295H9.83414V67.5295H27.9489V65.5295ZM9.83414 65.5295C8.4346 65.5295 7.30005 64.395 7.30005 62.9955H5.30005C5.30005 65.4996 7.33004 67.5295 9.83414 67.5295V65.5295ZM7.30005 62.9955C7.30005 61.5959 8.4346 60.4614 9.83414 60.4614V58.4614C7.33003 58.4614 5.30005 60.4914 5.30005 62.9955H7.30005ZM9.83414 60.4614H27.384V58.4614H9.83414V60.4614ZM29.3928 50.9384L13.3621 43.8547L12.5538 45.6841L28.5844 52.7678L29.3928 50.9384ZM13.3621 43.8547C12.082 43.289 11.5028 41.7927 12.0685 40.5126L10.2391 39.7042C9.22701 41.9947 10.2633 44.6719 12.5538 45.6841L13.3621 43.8547ZM12.0685 40.5126C12.6342 39.2325 14.1305 38.6533 15.4106 39.219L16.219 37.3896C13.9285 36.3775 11.2513 37.4138 10.2391 39.7042L12.0685 40.5126ZM15.4106 39.219L32.0973 46.5926L32.9057 44.7632L16.219 37.3896L15.4106 39.219ZM36.5349 40.1172L23.617 27.1993L22.2028 28.6135L35.1207 41.5314L36.5349 40.1172ZM23.617 27.1993C22.6274 26.2096 22.6274 24.6051 23.617 23.6155L22.2028 22.2013C20.4321 23.972 20.4321 26.8428 22.2028 28.6135L23.617 27.1993ZM23.617 23.6155C24.6066 22.6259 26.2111 22.6259 27.2007 23.6155L28.6149 22.2013C26.8443 20.4306 23.9735 20.4306 22.2028 22.2013L23.617 23.6155ZM27.2007 23.6155L39.756 36.1707L41.1702 34.7565L28.6149 22.2013L27.2007 23.6155ZM47.3836 31.1204L40.7249 14.6478L38.8707 15.3973L45.5294 31.8699L47.3836 31.1204ZM40.7249 14.6478C40.2004 13.3503 40.8271 11.8732 42.1246 11.3487L41.3751 9.49446C39.0535 10.4329 37.9322 13.0757 38.8707 15.3973L40.7249 14.6478ZM42.1246 11.3487C43.4221 10.8242 44.8992 11.4509 45.4237 12.7484L47.2779 11.9989C46.3395 9.67726 43.6967 8.556 41.3751 9.49446L42.1246 11.3487ZM45.4237 12.7484L52.1969 29.5042L54.0511 28.7546L47.2779 11.9989L45.4237 12.7484ZM60.4624 27.8978V9.8339H58.4624V27.8978H60.4624ZM60.4624 9.8339C60.4624 8.43436 61.597 7.2998 62.9965 7.2998V5.2998C60.4924 5.2998 58.4624 7.32979 58.4624 9.8339H60.4624ZM62.9965 7.2998C64.396 7.2998 65.5306 8.43435 65.5306 9.83389H67.5306C67.5306 7.32979 65.5006 5.2998 62.9965 5.2998V7.2998ZM65.5306 9.83389V27.4337H67.5306V9.83389H65.5306ZM75.019 29.4349L82.1383 13.316L80.3088 12.5079L73.1895 28.6268L75.019 29.4349ZM82.1383 13.316C82.7038 12.0357 84.2 11.4563 85.4802 12.0217L86.2883 10.1922C83.9977 9.18051 81.3206 10.2173 80.3088 12.5079L82.1383 13.316ZM85.4802 12.0217C86.7605 12.5872 87.3399 14.0834 86.7744 15.3636L88.6039 16.1717C89.6157 13.881 88.5789 11.204 86.2883 10.1922L85.4802 12.0217ZM86.7744 15.3636L79.3502 32.1729L81.1796 32.981L88.6039 16.1717L86.7744 15.3636ZM85.8492 36.6261L98.8217 23.6536L97.4075 22.2394L84.4349 35.2119L85.8492 36.6261ZM98.8217 23.6536C99.8113 22.6639 101.416 22.6639 102.405 23.6536L103.82 22.2394C102.049 20.4687 99.1782 20.4687 97.4075 22.2394L98.8217 23.6536ZM102.405 23.6536C103.395 24.6432 103.395 26.2477 102.405 27.2373L103.82 28.6515C105.59 26.8809 105.59 24.01 103.82 22.2394L102.405 23.6536ZM102.405 27.2373L89.6959 39.9469L91.1101 41.3611L103.82 28.6515L102.405 27.2373ZM94.6548 47.4369L111.343 40.6912L110.593 38.8369L93.9052 45.5826L94.6548 47.4369ZM111.343 40.6912C112.64 40.1667 114.117 40.7933 114.642 42.0909L116.496 41.3413C115.557 39.0197 112.915 37.8985 110.593 38.8369L111.343 40.6912ZM114.642 42.0909C115.166 43.3884 114.54 44.8655 113.242 45.39L113.992 47.2442C116.313 46.3057 117.434 43.6629 116.496 41.3413L114.642 42.0909ZM113.242 45.39L96.3007 52.2381L97.0502 54.0924L113.992 47.2442L113.242 45.39ZM97.8988 60.4614H116.166V58.4614H97.8988V60.4614ZM116.166 60.4614C117.565 60.4614 118.7 61.5959 118.7 62.9955H120.7C120.7 60.4914 118.67 58.4614 116.166 58.4614V60.4614ZM118.7 62.9955C118.7 64.395 117.565 65.5295 116.166 65.5295V67.5295C118.67 67.5295 120.7 65.4996 120.7 62.9955H118.7ZM116.166 65.5295H98.3713V67.5295H116.166V65.5295ZM96.3739 74.9956L112.67 82.1966L113.478 80.3672L97.1823 73.1662L96.3739 74.9956ZM112.67 82.1966C113.95 82.7622 114.529 84.2586 113.964 85.5387L115.793 86.3471C116.805 84.0566 115.769 81.3793 113.478 80.3672L112.67 82.1966ZM113.964 85.5387C113.398 86.8188 111.902 87.398 110.621 86.8323L109.813 88.6617C112.104 89.6738 114.781 88.6375 115.793 86.3471L113.964 85.5387ZM110.621 86.8323L93.5861 79.3046L92.7777 81.134L109.813 88.6617L110.621 86.8323ZM89.2366 85.6514L102.389 98.8035L103.803 97.3893L90.6508 84.2372L89.2366 85.6514ZM102.389 98.8035C103.378 99.7931 103.378 101.398 102.389 102.387L103.803 103.801C105.574 102.031 105.574 99.1599 103.803 97.3893L102.389 98.8035ZM102.389 102.387C101.399 103.377 99.7946 103.377 98.805 102.387L97.3907 103.801C99.1614 105.572 102.032 105.572 103.803 103.801L102.389 102.387ZM98.805 102.387L86.0241 89.6064L84.6099 91.0206L97.3907 103.801L98.805 102.387ZM78.5046 94.5853L85.2735 111.331L87.1277 110.581L80.3588 93.8358L78.5046 94.5853ZM85.2735 111.331C85.798 112.628 85.1713 114.105 83.8738 114.63L84.6233 116.484C86.9449 115.545 88.0662 112.903 87.1277 110.581L85.2735 111.331ZM83.8738 114.63C82.5763 115.154 81.0992 114.528 80.5747 113.23L78.7205 113.98C79.6589 116.301 82.3017 117.422 84.6233 116.484L83.8738 114.63ZM80.5747 113.23L73.7137 96.257L71.8595 97.0066L78.7205 113.98L80.5747 113.23ZM80.3006 89.1331C78.558 90.2911 77.6782 92.5409 78.5046 94.5853L80.3588 93.8358C79.9297 92.7743 80.36 91.495 81.4075 90.7988L80.3006 89.1331ZM86.0241 89.6064C84.4636 88.0459 82.0508 87.97 80.3006 89.1331L81.4075 90.7988C82.4541 90.1033 83.7959 90.2066 84.6099 91.0206L86.0241 89.6064ZM88.8505 80.7189C87.8201 82.2168 87.8891 84.3039 89.2366 85.6514L90.6508 84.2372C90.0462 83.6325 89.964 82.629 90.4983 81.8524L88.8505 80.7189ZM93.5861 79.3046C91.8453 78.5354 89.8765 79.2275 88.8505 80.7189L90.4983 81.8524C91.0328 81.0754 92.0001 80.7904 92.7777 81.134L93.5861 79.3046ZM93.6824 69.4989C93.2144 71.6948 94.2253 74.0461 96.3739 74.9956L97.1823 73.1662C95.993 72.6407 95.3458 71.2892 95.6385 69.9158L93.6824 69.4989ZM98.3713 65.5295C96.0137 65.5295 94.1459 67.3244 93.6824 69.4989L95.6385 69.9158C95.9339 68.5301 97.0885 67.5295 98.3713 67.5295V65.5295ZM93.8125 56.9567C94.1807 58.881 95.8247 60.4614 97.8988 60.4614V58.4614C96.897 58.4614 95.9867 57.6778 95.7769 56.5809L93.8125 56.9567ZM96.3007 52.2381C94.4003 53.0063 93.4436 55.0285 93.8125 56.9567L95.7769 56.5809C95.571 55.5045 96.1143 54.4707 97.0502 54.0924L96.3007 52.2381ZM89.2119 45.6305C90.3618 47.3777 92.6107 48.2632 94.6548 47.4369L93.9052 45.5826C92.8474 46.0102 91.572 45.5785 90.8826 44.531L89.2119 45.6305ZM89.6959 39.9469C88.1472 41.4955 88.0652 43.888 89.2119 45.6305L90.8826 44.531C90.1992 43.4926 90.3047 42.1665 91.1101 41.3611L89.6959 39.9469ZM79.3502 32.1729C78.5649 33.9507 79.2717 35.9605 80.7913 37.012L81.9294 35.3674C81.1188 34.8065 80.82 33.7952 81.1796 32.981L79.3502 32.1729ZM65.5306 27.4337C65.5306 29.796 67.3292 31.6676 69.508 32.1326L69.9254 30.1766C68.5348 29.8798 67.5306 28.7211 67.5306 27.4337H65.5306ZM56.9417 32.0038C58.8746 31.633 60.4624 29.9815 60.4624 27.8978H58.4624C58.4624 28.909 57.6715 29.8273 56.5648 30.0397L56.9417 32.0038ZM52.1969 29.5042C52.9693 31.415 55.0033 32.3757 56.9417 32.0038L56.5648 30.0397C55.4778 30.2482 54.4332 29.7 54.0511 28.7546L52.1969 29.5042ZM45.5538 36.6526C47.3245 35.4798 48.2227 33.1962 47.3836 31.1204L45.5294 31.8699C45.9699 32.9597 45.5254 34.2725 44.4494 34.9852L45.5538 36.6526ZM39.756 36.1707C41.3364 37.7512 43.7797 37.8277 45.5538 36.6526L44.4494 34.9852C43.3773 35.6954 42.0038 35.5902 41.1702 34.7565L39.756 36.1707ZM36.9307 45.1415C37.9771 43.6145 37.9072 41.4894 36.5349 40.1172L35.1207 41.5314C35.7497 42.1604 35.8343 43.2033 35.2809 44.011L36.9307 45.1415ZM32.0973 46.5926C33.8756 47.3784 35.8859 46.6663 36.9307 45.1415L35.2809 44.011C34.7253 44.8217 33.717 45.1218 32.9057 44.7632L32.0973 46.5926ZM32.104 56.4455C32.5636 54.2425 31.5461 51.89 29.3928 50.9384L28.5844 52.7678C29.7815 53.2968 30.4346 54.6543 30.1461 56.037L32.104 56.4455ZM27.384 60.4614C29.764 60.4614 31.6456 58.6422 32.104 56.4455L30.1461 56.037C29.8528 57.443 28.6842 58.4614 27.384 58.4614V60.4614ZM29.5479 73.755C31.4569 72.9833 32.4126 70.9474 32.0322 69.0128L30.0698 69.3987C30.2823 70.4795 29.7385 71.5207 28.7984 71.9007L29.5479 73.755ZM36.2607 86.2146C37.8531 84.6222 37.9233 82.1584 36.7316 80.3766L35.0691 81.4885C35.7916 82.5687 35.6888 83.9581 34.8465 84.8004L36.2607 86.2146ZM56.4601 93.7122C54.2656 93.2553 51.9232 94.2701 50.9758 96.415L52.8053 97.223C53.3306 96.0337 54.6787 95.3842 56.0525 95.6702L56.4601 93.7122ZM68.9979 93.7842C67.0912 94.158 65.5306 95.7914 65.5306 97.8478H67.5306C67.5306 96.8587 68.3009 95.9589 69.3827 95.7468L68.9979 93.7842ZM32.0322 69.0128C31.6557 67.0977 30.0149 65.5295 27.9489 65.5295V67.5295C28.9473 67.5295 29.8552 68.3072 30.0698 69.3987L32.0322 69.0128ZM46.6468 93.6721C47.4173 91.9277 46.718 89.9556 45.219 88.9349L44.0934 90.588C44.8732 91.119 45.1607 92.0865 44.8173 92.864L46.6468 93.6721ZM36.7316 80.3766C35.5507 78.6109 33.2664 77.7184 31.1904 78.5576L31.9399 80.4118C33.0332 79.9699 34.3497 80.4128 35.0691 81.4885L36.7316 80.3766ZM80.7913 37.012C82.3243 38.0729 84.4668 38.0085 85.8492 36.6261L84.4349 35.2119C83.799 35.8478 82.7434 35.9308 81.9294 35.3674L80.7913 37.012ZM60.4624 98.4152C60.4624 96.0433 58.6496 94.168 56.4601 93.7122L56.0525 95.6702C57.4503 95.9612 58.4624 97.1229 58.4624 98.4152H60.4624ZM45.219 88.9349C43.7246 87.9172 41.6511 87.9917 40.3114 89.3314L41.7256 90.7456C42.3256 90.1456 43.3204 90.0616 44.0934 90.588L45.219 88.9349ZM69.508 32.1326C71.7094 32.6024 74.0674 31.5893 75.019 29.4349L73.1895 28.6268C72.6619 29.8213 71.3044 30.4709 69.9254 30.1766L69.508 32.1326ZM69.3827 95.7468C70.4529 95.537 71.4833 96.076 71.8595 97.0066L73.7137 96.257C72.9463 94.3585 70.9222 93.4068 68.9979 93.7842L69.3827 95.7468Z" fill="#2928E3"/>
</svg>
