<svg width="31" height="30" viewBox="0 0 31 30" fill="none" xmlns="http://www.w3.org/2000/svg">
<path d="M22.2407 9.80859H6.25925C5.70186 9.80859 5.25 10.2468 5.25 10.7874V23.0219C5.25 23.5624 5.70186 24.0006 6.25925 24.0006H22.2407C22.7981 24.0006 23.25 23.5624 23.25 23.0219V10.7874C23.25 10.2468 22.7981 9.80859 22.2407 9.80859Z" stroke="#2928E3" stroke-width="2" stroke-linecap="round" stroke-linejoin="round"/>
<path d="M13.9789 16.6595C14.5194 16.6595 14.9576 16.3309 14.9576 15.9255C14.9576 15.5201 14.5194 15.1914 13.9789 15.1914C13.4383 15.1914 13.0001 15.5201 13.0001 15.9255C13.0001 16.3309 13.4383 16.6595 13.9789 16.6595Z" stroke="#2928E3" stroke-width="2" stroke-linecap="round" stroke-linejoin="round"/>
<path d="M14.0001 17.6387V18.6174" stroke="#2928E3" stroke-width="2" stroke-linecap="round" stroke-linejoin="round"/>
<path d="M10.1889 9.37789V7.42036C10.1889 6.44692 10.5756 5.51333 11.2639 4.82501C11.9522 4.13668 12.8858 3.75001 13.8593 3.75001V3.75001C14.8018 3.74842 15.7084 4.11139 16.3894 4.763" stroke="#2928E3" stroke-width="2" stroke-linecap="round" stroke-linejoin="round"/>
<path d="M17.2235 27.2781C17.2915 27.3491 17.3733 27.4054 17.4638 27.4436C17.5544 27.4817 17.6518 27.501 17.75 27.5001H20.75C20.8932 27.5 21.034 27.4639 21.1595 27.3951C21.2594 27.3349 21.3377 27.2446 21.383 27.1371C21.4305 27.0246 21.4618 26.9059 21.476 26.7846C21.4917 26.6567 21.4998 26.528 21.5 26.3991V26.0001C21.86 25.9926 22.1405 25.9806 22.3445 25.9656C22.5128 25.9632 22.6747 25.9004 22.8005 25.7886C22.9107 25.666 22.973 25.5079 22.976 25.3431C22.991 25.1481 23 24.8676 23 24.5001H23.75C23.915 24.5001 24.047 24.4656 24.149 24.3951C24.2465 24.329 24.3267 24.2405 24.383 24.1371C24.4401 24.0273 24.4757 23.9077 24.488 23.7846C24.503 23.6526 24.512 23.5146 24.512 23.3751C24.5043 23.2618 24.5003 23.1482 24.5 23.0346V22.7421C24.758 22.8366 25.019 22.9026 25.2845 22.9416C25.5515 22.9806 25.82 23.0001 26.0945 23.0001C26.6783 22.999 27.2558 22.879 27.7917 22.6474C28.3276 22.4158 28.8107 22.0775 29.2115 21.6531C29.6165 21.2301 29.933 20.7501 30.1595 20.2116C30.386 19.6716 30.5 19.1016 30.5 18.5001C30.5 17.8746 30.383 17.2896 30.149 16.7421C29.9233 16.2083 29.5969 15.7229 29.1875 15.3126C28.7771 14.9038 28.2917 14.5779 27.758 14.3526C27.2023 14.116 26.604 13.9961 26 14.0001C25.4094 14.0111 24.8258 14.1301 24.278 14.3511C23.7439 14.5662 23.2575 14.8848 22.847 15.2886C22.4352 15.693 22.1016 16.17 21.863 16.6956C21.6197 17.2326 21.4959 17.816 21.5 18.4056C21.5 18.7731 21.5435 19.1601 21.629 19.5666L17.222 23.9721C17.1509 24.0402 17.0945 24.1223 17.0563 24.2131C17.0181 24.3039 16.999 24.4016 17 24.5001V26.7501C17 26.9526 17.075 27.1296 17.222 27.2781M27.92 16.5786C28.0263 16.6819 28.1103 16.8058 28.1668 16.9428C28.2233 17.0798 28.2511 17.2269 28.2485 17.3751C28.2511 17.5233 28.2233 17.6704 28.1668 17.8074C28.1103 17.9444 28.0263 18.0683 27.92 18.1716C27.8168 18.2779 27.6928 18.3618 27.5558 18.4183C27.4188 18.4748 27.2717 18.5027 27.1235 18.5001C26.9754 18.5027 26.8283 18.4748 26.6913 18.4183C26.5543 18.3618 26.4303 18.2779 26.327 18.1716C26.2208 18.0683 26.1368 17.9444 26.0803 17.8074C26.0238 17.6704 25.996 17.5233 25.9985 17.3751C25.9985 17.0631 26.108 16.7976 26.327 16.5786C26.4303 16.4723 26.5543 16.3884 26.6913 16.3319C26.8283 16.2754 26.9754 16.2475 27.1235 16.2501C27.4355 16.2501 27.701 16.3596 27.92 16.5786Z" fill="#2928E3"/>
<path d="M17.2235 27.2781C17.2915 27.3491 17.3733 27.4054 17.4638 27.4436C17.5544 27.4817 17.6518 27.501 17.75 27.5001H20.75C20.8932 27.5 21.034 27.4639 21.1595 27.3951C21.2594 27.3349 21.3377 27.2446 21.383 27.1371C21.4305 27.0246 21.4618 26.9059 21.476 26.7846C21.4917 26.6567 21.4998 26.528 21.5 26.3991V26.0001C21.86 25.9926 22.1405 25.9806 22.3445 25.9656C22.5128 25.9632 22.6747 25.9004 22.8005 25.7886C22.9107 25.666 22.973 25.5079 22.976 25.3431C22.991 25.1481 23 24.8676 23 24.5001H23.75C23.915 24.5001 24.047 24.4656 24.149 24.3951C24.2465 24.329 24.3267 24.2405 24.383 24.1371C24.4401 24.0273 24.4757 23.9077 24.488 23.7846C24.503 23.6526 24.512 23.5146 24.512 23.3751C24.5043 23.2618 24.5003 23.1482 24.5 23.0346V22.7421C24.758 22.8366 25.019 22.9026 25.2845 22.9416C25.5515 22.9806 25.82 23.0001 26.0945 23.0001C26.6783 22.999 27.2558 22.879 27.7917 22.6474C28.3276 22.4158 28.8107 22.0775 29.2115 21.6531C29.6165 21.2301 29.933 20.7501 30.1595 20.2116C30.386 19.6716 30.5 19.1016 30.5 18.5001C30.5 17.8746 30.383 17.2896 30.149 16.7421C29.9233 16.2083 29.5969 15.7229 29.1875 15.3126C28.7771 14.9038 28.2917 14.5779 27.758 14.3526C27.2023 14.116 26.604 13.9961 26 14.0001C25.4094 14.0111 24.8258 14.1301 24.278 14.3511C23.7439 14.5662 23.2575 14.8848 22.847 15.2886C22.4352 15.693 22.1016 16.17 21.863 16.6956C21.6197 17.2326 21.4959 17.816 21.5 18.4056C21.5 18.7731 21.5435 19.1601 21.629 19.5666L17.222 23.9721C17.1509 24.0402 17.0945 24.1223 17.0563 24.2131C17.0181 24.3039 16.999 24.4016 17 24.5001V26.7501C17 26.9526 17.075 27.1296 17.222 27.2781M27.92 16.5786C28.0263 16.6819 28.1103 16.8058 28.1668 16.9428C28.2233 17.0798 28.2511 17.2269 28.2485 17.3751C28.2511 17.5233 28.2233 17.6704 28.1668 17.8074C28.1103 17.9444 28.0263 18.0683 27.92 18.1716C27.8168 18.2779 27.6928 18.3618 27.5558 18.4183C27.4188 18.4748 27.2717 18.5027 27.1235 18.5001C26.9754 18.5027 26.8283 18.4748 26.6913 18.4183C26.5543 18.3618 26.4303 18.2779 26.327 18.1716C26.2208 18.0683 26.1368 17.9444 26.0803 17.8074C26.0238 17.6704 25.996 17.5233 25.9985 17.3751C25.9985 17.0631 26.108 16.7976 26.327 16.5786C26.4303 16.4723 26.5543 16.3884 26.6913 16.3319C26.8283 16.2754 26.9754 16.2475 27.1235 16.2501C27.4355 16.2501 27.701 16.3596 27.92 16.5786Z" stroke="#F9F9FA"/>
</svg>
