<svg width="180" height="180" viewBox="0 0 180 180" fill="none" xmlns="http://www.w3.org/2000/svg">
<g filter="url(#filter0_d_4833_13873)">
<path d="M169.384 89.6906C169.384 96.4257 159.699 101.797 158.038 108.003C156.319 114.431 161.972 123.915 158.716 129.542C155.415 135.25 144.337 135.077 139.711 139.709C135.086 144.341 135.253 155.412 129.544 158.714C123.917 161.969 114.433 156.318 108.005 158.035C101.795 159.696 96.4232 169.381 89.6921 169.381C82.961 169.381 77.5851 159.696 71.379 158.035C64.9517 156.318 55.4668 161.969 49.8399 158.714C44.1317 155.412 44.3053 144.335 39.6728 139.709C35.0402 135.083 23.9696 135.25 20.6678 129.542C17.4121 123.915 23.0648 114.431 21.346 108.003C19.687 101.793 10 96.4216 10 89.6906C10 82.9596 19.687 77.5838 21.346 71.3778C23.0648 64.9507 17.4121 55.466 20.6678 49.8392C23.9696 44.131 35.047 44.3047 39.6728 39.6722C44.2985 35.0398 44.1317 23.9693 49.8399 20.6676C55.4668 17.412 64.9517 23.0645 71.379 21.3458C77.5892 19.6868 82.9624 10 89.6921 10C96.4219 10 101.799 19.6868 108.005 21.3458C114.433 23.0645 123.917 17.412 129.544 20.6676C135.253 23.9707 135.079 35.0465 139.711 39.6735C144.344 44.3006 155.415 44.131 158.716 49.8392C161.972 55.466 156.319 64.9507 158.038 71.3778C159.699 77.5838 169.384 82.9569 169.384 89.6906Z" fill="#BEED3B"/>
</g>
<path d="M145.777 100.112C146.103 100.047 146.4 99.9447 146.668 99.8037C146.939 99.6667 147.176 99.4926 147.378 99.2814C147.584 99.0707 147.75 98.8223 147.877 98.5363C148.004 98.2538 148.087 97.9368 148.127 97.5851C148.194 96.9888 148.101 96.4337 147.848 95.9199C147.594 95.4061 147.186 94.9762 146.623 94.6301C146.063 94.2878 145.354 94.0684 144.497 93.972C143.636 93.8752 142.893 93.9329 142.267 94.1453C141.641 94.3576 141.146 94.6895 140.784 95.141C140.421 95.5924 140.205 96.1284 140.134 96.7489C140.069 97.3246 140.13 97.8394 140.317 98.2933C140.503 98.7507 140.797 99.1207 141.199 99.4033C141.605 99.6898 142.099 99.8659 142.684 99.9316L142.559 100.337L142.902 97.3064L144.224 97.4551L143.753 101.618L142.545 101.482C141.653 101.381 140.9 101.105 140.286 100.652C139.676 100.202 139.23 99.6251 138.949 98.9197C138.668 98.2178 138.575 97.4394 138.672 96.5844C138.781 95.6261 139.097 94.8099 139.621 94.1357C140.145 93.465 140.836 92.9737 141.694 92.6617C142.556 92.3501 143.546 92.2574 144.666 92.3833C145.513 92.4786 146.261 92.6814 146.908 92.9916C147.556 93.3018 148.091 93.6954 148.513 94.1723C148.938 94.6531 149.242 95.1953 149.426 95.799C149.613 96.4065 149.668 97.0533 149.59 97.7393C149.525 98.3115 149.38 98.8346 149.155 99.3085C148.93 99.7859 148.64 100.2 148.285 100.551C147.93 100.906 147.523 101.186 147.066 101.393C146.612 101.601 146.12 101.72 145.592 101.751L145.777 100.112Z" fill="#09090A"/>
<path d="M137.948 102.284L148.183 105.351L146.254 111.75L144.925 111.352L146.389 106.493L143.271 105.558L141.907 110.083L140.583 109.686L141.947 105.161L138.813 104.222L137.331 109.141L136.002 108.743L137.948 102.284Z" fill="#09090A"/>
<path d="M144.067 113.733L145.308 114.353L141.603 121.727L140.362 121.107L141.856 118.134L133.542 113.98L134.262 112.547L142.576 116.701L144.067 113.733Z" fill="#09090A"/>
<path d="M130.037 120.248L131.166 118.965L136.662 128.876L135.434 130.273L124.865 126.127L125.993 124.844L134.56 128.331L134.615 128.269L130.037 120.248ZM132.993 123.216L129.332 127.378L128.312 126.485L131.974 122.323L132.993 123.216Z" fill="#09090A"/>
<path d="M117.142 140.593L118.51 139.711C118.751 139.969 119.015 140.162 119.302 140.291C119.588 140.421 119.886 140.495 120.193 140.516C120.501 140.537 120.808 140.504 121.116 140.417C121.422 140.331 121.717 140.197 122.004 140.012C122.521 139.679 122.9 139.251 123.141 138.728C123.379 138.207 123.454 137.619 123.366 136.966C123.275 136.314 122.995 135.627 122.527 134.904C122.054 134.176 121.539 133.636 120.981 133.286C120.419 132.937 119.851 132.767 119.276 132.774C118.7 132.781 118.157 132.949 117.646 133.279C117.363 133.462 117.118 133.673 116.913 133.912C116.707 134.157 116.549 134.422 116.44 134.707C116.331 134.992 116.276 135.29 116.274 135.601C116.271 135.916 116.335 136.235 116.465 136.556L115.094 137.433C114.882 136.946 114.762 136.45 114.732 135.944C114.702 135.443 114.763 134.953 114.917 134.474C115.069 134 115.307 133.556 115.63 133.141C115.954 132.726 116.362 132.359 116.856 132.041C117.633 131.54 118.444 131.277 119.29 131.253C120.138 131.231 120.959 131.451 121.756 131.913C122.549 132.376 123.254 133.084 123.872 134.037C124.491 134.992 124.848 135.926 124.941 136.836C125.036 137.75 124.898 138.586 124.529 139.345C124.161 140.107 123.59 140.737 122.816 141.236C122.339 141.543 121.851 141.761 121.35 141.889C120.849 142.023 120.348 142.065 119.848 142.015C119.349 141.969 118.87 141.827 118.411 141.591C117.953 141.357 117.53 141.025 117.142 140.593Z" fill="#09090A"/>
<path d="M105.344 143.487C104.927 142.427 104.763 141.441 104.852 140.526C104.942 139.615 105.245 138.823 105.761 138.148C106.274 137.477 106.96 136.974 107.818 136.639C108.68 136.302 109.529 136.204 110.366 136.346C111.201 136.493 111.963 136.872 112.651 137.482C113.339 138.092 113.891 138.925 114.307 139.981C114.723 141.04 114.886 142.026 114.796 142.937C114.707 143.851 114.406 144.643 113.893 145.313C113.377 145.988 112.689 146.494 111.827 146.831C110.969 147.167 110.122 147.261 109.287 147.115C108.451 146.972 107.688 146.596 107 145.986C106.312 145.379 105.761 144.546 105.344 143.487ZM106.83 142.905C107.148 143.713 107.547 144.341 108.026 144.791C108.504 145.245 109.025 145.526 109.59 145.632C110.153 145.744 110.72 145.688 111.29 145.465C111.863 145.241 112.318 144.897 112.655 144.433C112.994 143.973 113.185 143.414 113.229 142.756C113.271 142.102 113.133 141.372 112.815 140.564C112.498 139.757 112.1 139.126 111.623 138.672C111.143 138.222 110.622 137.942 110.058 137.831C109.497 137.722 108.929 137.78 108.356 138.005C107.786 138.228 107.332 138.569 106.993 139.029C106.653 139.494 106.462 140.053 106.42 140.707C106.376 141.365 106.513 142.098 106.83 142.905Z" fill="#09090A"/>
<path d="M95.829 150.689L93.9895 140.191L95.4494 139.937L102.149 146.704L102.247 146.687L100.898 138.987L102.486 138.71L104.326 149.209L102.856 149.465L96.1487 142.689L96.051 142.706L97.4019 150.415L95.829 150.689Z" fill="#09090A"/>
<path d="M86.1717 148.012C86.2177 148.505 86.4398 148.891 86.838 149.17C87.2361 149.452 87.7412 149.599 88.3533 149.61C88.7916 149.619 89.172 149.557 89.4947 149.424C89.8174 149.295 90.0697 149.113 90.2518 148.877C90.4303 148.645 90.5225 148.377 90.5284 148.076C90.5333 147.822 90.4785 147.603 90.3638 147.417C90.2457 147.231 90.0904 147.073 89.8981 146.944C89.7022 146.819 89.4921 146.713 89.2676 146.625C89.0431 146.541 88.827 146.471 88.6193 146.415L87.5812 146.124C87.242 146.034 86.8946 145.915 86.5392 145.765C86.1837 145.616 85.8552 145.422 85.5537 145.184C85.2522 144.946 85.0109 144.653 84.8298 144.306C84.6452 143.959 84.5576 143.546 84.5669 143.067C84.5787 142.464 84.7457 141.931 85.0679 141.469C85.3866 141.007 85.8442 140.646 86.4407 140.387C87.0338 140.128 87.7477 140.006 88.5825 140.023C89.3824 140.038 90.0721 140.178 90.6514 140.443C91.2308 140.707 91.6812 141.075 92.0025 141.546C92.3238 142.021 92.4955 142.58 92.5177 143.222L90.9004 143.19C90.8767 142.805 90.7577 142.482 90.5436 142.221C90.326 141.963 90.0462 141.769 89.7043 141.637C89.3589 141.509 88.9792 141.441 88.5653 141.433C88.1097 141.424 87.7031 141.487 87.3456 141.622C86.9845 141.761 86.6988 141.957 86.4886 142.21C86.2783 142.466 86.1698 142.767 86.163 143.114C86.1569 143.43 86.2422 143.69 86.4192 143.895C86.5926 144.099 86.8311 144.27 87.1346 144.408C87.4346 144.546 87.7749 144.669 88.1555 144.777L89.4114 145.145C90.2624 145.394 90.934 145.748 91.426 146.209C91.9145 146.67 92.1516 147.271 92.1371 148.013C92.1251 148.627 91.9476 149.16 91.6048 149.611C91.262 150.063 90.8029 150.409 90.2275 150.651C89.6521 150.897 89.0062 151.013 88.2897 150.999C87.5662 150.985 86.9305 150.846 86.3824 150.582C85.8309 150.318 85.3995 149.961 85.0882 149.511C84.7768 149.064 84.6197 148.554 84.617 147.982L86.1717 148.012Z" fill="#09090A"/>
<path d="M74.0845 148.987L72.503 148.649L73.979 141.795C74.136 141.066 74.4469 140.457 74.9117 139.967C75.3758 139.481 75.9537 139.144 76.6455 138.955C77.3366 138.769 78.1005 138.766 78.9372 138.945C79.7704 139.124 80.464 139.439 81.0177 139.891C81.5707 140.347 81.9587 140.891 82.1817 141.525C82.4039 142.161 82.4365 142.844 82.2795 143.573L80.8035 150.426L79.227 150.089L80.6757 143.363C80.7772 142.891 80.7637 142.45 80.6351 142.04C80.5031 141.628 80.2676 141.276 79.9286 140.983C79.5888 140.694 79.1553 140.493 78.6282 140.38C78.0976 140.267 77.6178 140.272 77.1889 140.397C76.7559 140.524 76.3979 140.749 76.115 141.071C75.8286 141.393 75.6346 141.79 75.5331 142.261L74.0845 148.987Z" fill="#09090A"/>
<path d="M73.0438 137.631L68.9526 147.476L67.463 146.861L71.0228 138.294L66.5494 136.445L67.0807 135.167L73.0438 137.631Z" fill="#09090A"/>
<path d="M61.0812 142.592L60.3402 143.763L53.3468 139.359L54.0878 138.189L56.9072 139.964L61.8715 132.123L63.2305 132.979L58.2662 140.82L61.0812 142.592Z" fill="#09090A"/>
<path d="M57.2661 128.934L58.515 130.101L48.4018 135.255L47.0424 133.985L51.543 123.586L52.792 124.753L49.017 133.177L49.0779 133.234L57.2661 128.934ZM54.1952 131.783L50.1438 127.997L51.0714 127.01L55.1229 130.796L54.1952 131.783Z" fill="#09090A"/>
<path d="M43.3565 128.31L42.2339 129.124L37.3699 122.453L38.4925 121.639L40.4534 124.329L47.9741 118.875L48.9192 120.171L41.3986 125.625L43.3565 128.31Z" fill="#09090A"/>
<path d="M35.1223 118.387L44.4996 113.276L45.2729 114.687L35.8957 119.798L35.1223 118.387Z" fill="#09090A"/>
<path d="M35.0982 104.66C36.1666 104.261 37.1584 104.112 38.0737 104.214C38.9857 104.318 39.7762 104.632 40.4452 105.156C41.1097 105.678 41.6037 106.369 41.9274 107.23C42.2524 108.094 42.3373 108.942 42.1821 109.775C42.0225 110.605 41.6317 111.359 41.0096 112.036C40.3874 112.714 39.5438 113.251 38.4787 113.65C37.4103 114.049 36.4202 114.197 35.5081 114.094C34.5928 113.991 33.803 113.679 33.1385 113.157C32.4695 112.633 31.9726 111.939 31.6477 111.075C31.324 110.214 31.2419 109.368 31.4015 108.538C31.5566 107.706 31.9453 106.951 32.5674 106.274C33.1863 105.597 34.0299 105.06 35.0982 104.66ZM35.6589 106.151C34.8446 106.456 34.2084 106.844 33.7504 107.315C33.2879 107.784 32.9988 108.3 32.8832 108.862C32.7631 109.422 32.8105 109.988 33.0255 110.559C33.2417 111.134 33.5796 111.593 34.0393 111.936C34.4957 112.281 35.0535 112.48 35.7127 112.533C36.3674 112.585 37.1019 112.458 37.9162 112.154C38.7305 111.849 39.3689 111.462 39.8315 110.993C40.2895 110.522 40.5786 110.006 40.6987 109.446C40.8155 108.887 40.7658 108.32 40.5496 107.746C40.3347 107.174 39.999 106.716 39.5425 106.371C39.0816 106.025 38.5238 105.826 37.8691 105.775C37.2099 105.721 36.4732 105.847 35.6589 106.151Z" fill="#09090A"/>
<path d="M28 95.0957L38.5541 93.4224L38.7868 94.8819L31.8993 101.459L31.9149 101.557L39.6552 100.329L39.9084 101.917L29.3543 103.591L29.12 102.121L36.0169 95.5371L36.0014 95.4395L28.2507 96.6683L28 95.0957Z" fill="#09090A"/>
<path d="M32.0467 79.5473C31.7201 79.6083 31.422 79.7077 31.1525 79.8456C30.8799 79.9797 30.6412 80.1511 30.4364 80.36C30.2282 80.5685 30.0591 80.8149 29.929 81.0995C29.7994 81.3806 29.7127 81.6967 29.669 82.0479C29.5948 82.6434 29.6816 83.1995 29.9293 83.7161C30.177 84.2327 30.5803 84.6671 31.1394 85.0195C31.6955 85.368 32.4016 85.5952 33.2577 85.7012C34.1173 85.8076 34.8614 85.7582 35.4899 85.5528C36.1184 85.3475 36.6164 85.0211 36.9841 84.5737C37.3518 84.1263 37.5742 83.5928 37.6513 82.9731C37.7229 82.3982 37.6679 81.8827 37.4862 81.4267C37.3051 80.9673 37.015 80.5941 36.6161 80.307C36.2141 80.016 35.7214 79.8344 35.138 79.7622L35.2671 79.3587L34.8904 82.3849L33.5699 82.2214L34.0874 78.0643L35.2939 78.2137C36.1846 78.3239 36.9343 78.609 37.5431 79.0689C38.1489 79.5249 38.5882 80.1072 38.8611 80.8156C39.1344 81.5207 39.2179 82.3001 39.1116 83.1539C38.9925 84.1109 38.667 84.9236 38.1351 85.5919C37.6036 86.2567 36.9072 86.7403 36.0458 87.0427C35.1809 87.3446 34.1892 87.4263 33.0707 87.2879C32.2249 87.1832 31.48 86.9721 30.836 86.6547C30.1919 86.3372 29.6615 85.9377 29.2447 85.4561C28.8249 84.9707 28.5265 84.4251 28.3495 83.8194C28.1695 83.2098 28.1221 82.5625 28.2074 81.8774C28.2785 81.3059 28.4293 80.7845 28.6598 80.3131C28.8906 79.8383 29.1854 79.4273 29.5441 79.0802C29.9032 78.7297 30.3127 78.4535 30.7725 78.2517C31.2288 78.0495 31.7215 77.9357 32.2504 77.9103L32.0467 79.5473Z" fill="#09090A"/>
<path d="M39.8626 77.577L29.6618 74.4003L31.6589 68.0225L32.9838 68.4351L31.4673 73.2781L34.5754 74.2459L35.9877 69.7358L37.3076 70.1468L35.8953 74.657L39.0183 75.6295L40.5535 70.7269L41.8784 71.1395L39.8626 77.577Z" fill="#09090A"/>
<path d="M33.8412 66.0799L32.6067 65.4472L36.387 58.1113L37.6215 58.744L36.0975 61.7015L44.368 65.9399L43.6334 67.3655L35.3629 63.127L33.8412 66.0799Z" fill="#09090A"/>
<path d="M49.6188 57.7149L48.4577 58.9689L43.2156 48.9212L44.4794 47.5564L54.9396 51.9689L53.7784 53.2229L45.3036 49.5196L45.247 49.5808L49.6188 57.7149ZM46.739 54.6734L50.5056 50.6057L51.5024 51.5236L47.7357 55.5912L46.739 54.6734Z" fill="#09090A"/>
<path d="M62.8771 37.7875L61.4875 38.6335C61.2528 38.3699 60.9938 38.1699 60.7106 38.0334C60.4273 37.897 60.1323 37.8145 59.8254 37.7859C59.5185 37.7573 59.21 37.7826 58.8997 37.8617C58.5925 37.939 58.2934 38.0663 58.0024 38.2434C57.4769 38.5634 57.0869 38.9817 56.8326 39.4983C56.5812 40.013 56.4911 40.5983 56.5624 41.254C56.6367 41.9079 56.8986 42.602 57.3481 43.3363C57.8013 44.0766 58.3025 44.629 58.8518 44.9937C59.4041 45.3565 59.9679 45.5417 60.543 45.5492C61.1182 45.5567 61.6656 45.4023 62.1852 45.0859C62.4732 44.9106 62.7228 44.7058 62.934 44.4715C63.1464 44.2325 63.3108 43.9718 63.4273 43.6895C63.5439 43.4072 63.6069 43.1107 63.6165 42.8001C63.6272 42.4847 63.5719 42.1647 63.4507 41.8402L64.8429 40.9986C65.0424 41.4909 65.1504 41.9901 65.1668 42.4963C65.1844 42.9978 65.1103 43.4859 64.9445 43.9608C64.7799 44.4309 64.5306 44.8692 64.1967 45.2758C63.8627 45.6823 63.4449 46.0383 62.9431 46.3438C62.1533 46.8247 61.3354 47.0666 60.4894 47.0695C59.6417 47.0694 58.8257 46.8285 58.0416 46.3466C57.2605 45.8629 56.5736 45.137 55.9808 44.1688C55.3863 43.1976 55.0542 42.2556 54.9845 41.3429C54.913 40.4272 55.0718 39.5948 55.461 38.8457C55.8484 38.0936 56.4355 37.4781 57.2223 36.9991C57.7062 36.7044 58.2001 36.4992 58.704 36.3835C59.209 36.263 59.7108 36.2339 60.2095 36.2961C60.7063 36.3554 61.1815 36.5091 61.635 36.7573C62.0868 37.0025 62.5008 37.3459 62.8771 37.7875Z" fill="#09090A"/>
<path d="M74.685 35.1781C75.0736 36.248 75.2115 37.2387 75.0986 38.1502C74.9845 39.0585 74.6609 39.8433 74.1278 40.5044C73.5967 41.1612 72.8978 41.6461 72.0311 41.9591C71.161 42.2734 70.3096 42.3485 69.4767 42.1845C68.6459 42.016 67.8945 41.6177 67.2224 40.9897C66.5503 40.3617 66.0206 39.5144 65.6332 38.4478C65.2446 37.378 65.1073 36.3889 65.2214 35.4806C65.3343 34.569 65.6563 33.7849 66.1873 33.1282C66.7205 32.467 67.4221 31.9793 68.2921 31.665C69.1588 31.3519 70.0076 31.2796 70.8384 31.4481C71.6712 31.6122 72.4237 32.0082 73.0958 32.6362C73.7667 33.261 74.2964 34.1083 74.685 35.1781ZM73.1838 35.7204C72.8876 34.905 72.5057 34.2662 72.0382 33.8042C71.5728 33.3376 71.059 33.0436 70.4968 32.9219C69.9367 32.7959 69.3689 32.8368 68.7932 33.0447C68.2143 33.2539 67.7502 33.5857 67.401 34.0402C67.0506 34.4915 66.8449 35.0454 66.7837 35.7022C66.7246 36.3544 66.8432 37.0883 67.1394 37.9037C67.4356 38.7192 67.8164 39.3602 68.2818 39.8267C68.7493 40.2887 69.2631 40.5828 69.8232 40.7089C70.3821 40.8317 70.951 40.7885 71.5299 40.5794C72.1056 40.3715 72.5686 40.0419 72.919 39.5906C73.2714 39.1349 73.4772 38.5809 73.5363 37.9287C73.5974 37.2719 73.4799 36.5359 73.1838 35.7204Z" fill="#09090A"/>
<path d="M84.3701 28.1753L85.9265 38.7189L84.4604 38.9341L77.9448 31.9905L77.8467 32.0049L78.9882 39.7375L77.393 39.9717L75.8366 29.4281L77.313 29.2113L83.8353 36.1646L83.9334 36.1502L82.7904 28.4072L84.3701 28.1753Z" fill="#09090A"/>
<path d="M94.0303 31.0493C93.9977 30.5546 93.7861 30.1628 93.3956 29.8738C93.0053 29.5813 92.5043 29.4209 91.8928 29.3925C91.4549 29.3722 91.0729 29.4239 90.7467 29.5477C90.4207 29.668 90.1635 29.8436 89.9752 30.0745C89.7904 30.3021 89.691 30.5666 89.677 30.8681C89.6652 31.1211 89.714 31.3421 89.8236 31.5313C89.9367 31.7206 90.0876 31.8821 90.2764 32.0159C90.4688 32.1464 90.676 32.2585 90.898 32.3521C91.1201 32.4423 91.3342 32.5182 91.5403 32.5799L92.5702 32.8986C92.9069 32.9975 93.2508 33.1264 93.6021 33.285C93.9534 33.4437 94.2765 33.6463 94.5715 33.8926C94.8665 34.139 95.0998 34.4381 95.2714 34.7899C95.4465 35.1418 95.5229 35.5569 95.5006 36.0351C95.4725 36.6381 95.2911 37.1662 94.9566 37.6196C94.6255 38.073 94.1582 38.4212 93.5549 38.6641C92.955 38.9072 92.2381 39.0093 91.4041 38.9706C90.6048 38.9336 89.9192 38.775 89.3472 38.4949C88.7752 38.2149 88.335 37.835 88.0266 37.3553C87.7183 36.8722 87.5617 36.3092 87.5569 35.6665L89.1727 35.7415C89.1861 36.1276 89.2962 36.454 89.5032 36.7206C89.7137 36.9838 89.9881 37.1859 90.3263 37.3266C90.6682 37.464 91.0459 37.5423 91.4594 37.5615C91.9146 37.5826 92.3227 37.5303 92.6838 37.4047C93.0485 37.2758 93.3394 37.0878 93.5564 36.8409C93.7735 36.5905 93.8902 36.292 93.9063 35.9455C93.9211 35.6302 93.8428 35.3678 93.6714 35.1584C93.5036 34.9492 93.2698 34.7717 92.9702 34.6258C92.674 34.4801 92.3371 34.3481 91.9596 34.2299L90.7142 33.8283C89.8702 33.5564 89.2085 33.1836 88.7291 32.7099C88.2532 32.2364 88.0326 31.6288 88.0672 30.8872C88.0958 30.2738 88.2876 29.7461 88.6425 29.3042C88.9974 28.8622 89.4657 28.528 90.0474 28.3015C90.6293 28.0715 91.2782 27.9731 91.994 28.0063C92.7168 28.0398 93.3485 28.1959 93.8893 28.4745C94.4334 28.7533 94.855 29.1219 95.154 29.5803C95.4532 30.0352 95.5964 30.5489 95.5836 31.1213L94.0303 31.0493Z" fill="#09090A"/>
<path d="M105.916 30.2861L107.489 30.6608L105.856 37.4785C105.683 38.204 105.358 38.8061 104.882 39.2848C104.407 39.7602 103.821 40.0844 103.125 40.2575C102.43 40.4272 101.666 40.4129 100.834 40.2147C100.005 40.0173 99.319 39.6862 98.7757 39.2216C98.2333 38.7536 97.8579 38.2005 97.6495 37.5623C97.4419 36.9208 97.425 36.2373 97.5987 35.5119L99.2314 28.6942L100.8 29.0677L99.1973 35.7588C99.085 36.2279 99.0884 36.6691 99.2075 37.0827C99.33 37.4971 99.5574 37.8544 99.8896 38.1547C100.223 38.4516 100.651 38.6625 101.176 38.7874C101.704 38.9131 102.183 38.9186 102.615 38.8038C103.051 38.6865 103.414 38.4698 103.704 38.1537C103.998 37.8384 104.201 37.4463 104.313 36.9773L105.916 30.2861Z" fill="#09090A"/>
<path d="M107.028 41.7523L111.375 32.0169L112.848 32.6711L109.065 41.142L113.489 43.1067L112.924 44.3711L107.028 41.7523Z" fill="#09090A"/>
<path d="M119.083 37.0729L119.854 35.9218L126.732 40.5027L125.961 41.6538L123.188 39.807L118.024 47.5182L116.687 46.6281L121.852 38.9168L119.083 37.0729Z" fill="#09090A"/>
<path d="M122.584 50.841L121.365 49.6427L131.606 44.7463L132.933 46.0506L128.168 56.3321L126.95 55.1338L130.938 46.8079L130.879 46.7495L122.584 50.841ZM125.726 48.0701L129.68 51.9573L128.727 52.9208L124.774 49.0335L125.726 48.0701Z" fill="#09090A"/>
<path d="M136.495 51.8362L137.638 51.051L142.329 57.8438L141.186 58.6289L139.295 55.8904L131.637 61.1501L130.725 59.8302L138.383 54.5704L136.495 51.8362Z" fill="#09090A"/>
<path d="M144.446 61.9135L134.939 66.7811L134.203 65.3507L143.71 60.4831L144.446 61.9135Z" fill="#09090A"/>
<path d="M144.145 75.701C143.067 76.0724 142.072 76.1949 141.159 76.0687C140.25 75.9412 139.468 75.6068 138.813 75.0652C138.163 74.5258 137.687 73.8216 137.386 72.9526C137.084 72.0804 137.022 71.2302 137.199 70.4022C137.38 69.5764 137.791 68.8331 138.431 68.1724C139.071 67.5116 139.928 66.9962 141.003 66.6259C142.082 66.2545 143.076 66.1326 143.985 66.26C144.897 66.3863 145.678 66.7191 146.329 67.2585C146.984 67.8001 147.462 68.507 147.764 69.3792C148.065 70.2482 148.125 71.0956 147.943 71.9215C147.766 72.7495 147.358 73.4939 146.718 74.1546C146.081 74.8142 145.224 75.3296 144.145 75.701ZM143.624 74.1959C144.446 73.9128 145.093 73.5417 145.563 73.0824C146.038 72.6254 146.34 72.1175 146.471 71.5587C146.605 71.0022 146.573 70.4353 146.373 69.8582C146.172 69.2778 145.846 68.81 145.396 68.455C144.949 68.0988 144.396 67.8853 143.739 67.8144C143.086 67.7457 142.348 67.8529 141.526 68.136C140.704 68.419 140.056 68.7891 139.581 69.2462C139.111 69.7054 138.808 70.2133 138.673 70.7699C138.542 71.3253 138.576 71.8933 138.777 72.4737C138.977 73.0508 139.301 73.5175 139.748 73.8736C140.199 74.2319 140.752 74.4455 141.405 74.5142C142.062 74.585 142.802 74.4789 143.624 74.1959Z" fill="#09090A"/>
<path d="M151 85.5059L140.405 86.896L140.211 85.4308L147.273 79.0405L147.26 78.9425L139.49 79.962L139.28 78.3678L149.875 76.9777L150.07 78.4532L142.998 84.85L143.011 84.9481L150.792 83.9272L151 85.5059Z" fill="#09090A"/>
<defs>
<filter id="filter0_d_4833_13873" x="10" y="10" width="164.174" height="169.178" filterUnits="userSpaceOnUse" color-interpolation-filters="sRGB">
<feFlood flood-opacity="0" result="BackgroundImageFix"/>
<feColorMatrix in="SourceAlpha" type="matrix" values="0 0 0 0 0 0 0 0 0 0 0 0 0 0 0 0 0 0 127 0" result="hardAlpha"/>
<feOffset dx="4.78936" dy="9.79642"/>
<feComposite in2="hardAlpha" operator="out"/>
<feColorMatrix type="matrix" values="0 0 0 0 0 0 0 0 0 0 0 0 0 0 0 0 0 0 0.5 0"/>
<feBlend mode="normal" in2="BackgroundImageFix" result="effect1_dropShadow_4833_13873"/>
<feBlend mode="normal" in="SourceGraphic" in2="effect1_dropShadow_4833_13873" result="shape"/>
</filter>
</defs>
</svg>
