<svg width="228" height="224" viewBox="0 0 228 224" fill="none" xmlns="http://www.w3.org/2000/svg">
<g clip-path="url(#clip0_480_1677)">
<path d="M83.0616 143.99C72.8361 109.108 80.5763 71.6771 92.6828 37.1961C93.0923 36.0297 94.9663 36.3529 95.0403 37.5869C95.5812 46.616 97.7316 55.4943 101.408 63.7974C112.346 44.8495 125.699 27.4083 141.128 11.9098C141.893 11.1414 143.176 11.8488 142.951 12.9094C139.084 31.1141 136.173 49.5094 134.23 68.0199C145.277 60.4646 157.23 54.3348 169.803 49.7723C170.789 49.4142 171.64 50.527 171.052 51.3968C149.988 82.577 132.221 115.865 118.039 150.724L83.0616 143.99Z" fill="#8D83FF"/>
<path d="M100.576 64.1659L101.301 65.8033L102.196 64.2524C113.095 45.3728 126.4 27.9945 141.773 12.5518C141.818 12.506 141.851 12.4991 141.869 12.4971C141.894 12.4942 141.932 12.4991 141.973 12.5213C142.013 12.5436 142.04 12.574 142.053 12.6011C142.063 12.6214 142.075 12.6558 142.061 12.7203C138.188 30.956 135.271 49.3827 133.325 67.9248L133.119 69.8819L134.743 68.7711C145.728 61.259 157.612 55.1642 170.113 50.6277C170.17 50.607 170.201 50.6135 170.217 50.6188C170.24 50.6262 170.27 50.6445 170.296 50.678C170.321 50.7116 170.333 50.7477 170.335 50.7771C170.336 50.8 170.333 50.8355 170.298 50.8873C149.338 81.9134 131.637 115.023 117.478 149.689L83.7803 143.202C73.8703 108.751 81.5149 71.751 93.5414 37.4976C93.5615 37.4404 93.5851 37.4229 93.6127 37.4094C93.6546 37.3889 93.7334 37.3715 93.8359 37.3888C93.9379 37.406 94.019 37.4504 94.0666 37.4964C94.1054 37.5337 94.1279 37.575 94.1318 37.6414C94.6793 46.7786 96.8554 55.7632 100.576 64.1659Z" stroke="#09090A" stroke-width="1.82013"/>
<path d="M84.0042 136.365C85.3724 136.76 86.7463 135.761 86.7926 134.337L87.4972 112.64C87.5087 112.286 87.9661 112.155 88.1632 112.448L100.27 130.468C101.064 131.65 102.759 131.768 103.709 130.707L118.196 114.537C118.432 114.273 118.867 114.467 118.829 114.818L116.521 136.405C116.369 137.821 117.592 139.001 119.002 138.799L140.498 135.725C140.848 135.675 141.057 136.102 140.802 136.348L125.156 151.402C124.13 152.39 124.308 154.08 125.518 154.831L143.958 166.287C144.258 166.474 144.143 166.936 143.79 166.96L122.13 168.437C120.709 168.534 119.76 169.943 120.203 171.297L126.963 191.928C127.073 192.264 126.688 192.543 126.403 192.335L108.858 179.545C107.707 178.706 106.074 179.175 105.544 180.497L97.4596 200.646C97.328 200.974 96.8532 200.941 96.7684 200.598L91.5559 179.525C91.2139 178.142 89.6613 177.452 88.4054 178.123L69.2603 188.365C68.9487 188.532 68.6063 188.201 68.7617 187.884L78.314 168.383C78.9405 167.104 78.1951 165.577 76.8012 165.285L55.5549 160.825C55.209 160.752 55.1591 160.279 55.4822 160.136L75.3313 151.34C76.6335 150.763 77.0439 149.114 76.1642 147.994L62.7552 130.921C62.5369 130.643 62.8028 130.249 63.1424 130.347L84.0042 136.365Z" fill="#FED1CE" stroke="#09090A" stroke-width="1.82013"/>
</g>
<defs>
<clipPath id="clip0_480_1677">
<rect width="170" height="153.073" fill="white" transform="translate(0 99.9731) rotate(-36.0207)"/>
</clipPath>
</defs>
</svg>
