<svg width="60" height="52" viewBox="0 0 60 52" fill="none" xmlns="http://www.w3.org/2000/svg">
<g clip-path="url(#clip0_890_2376)">
<path d="M34.56 12.6565C38.0063 10.3665 42.0463 9.15376 46.1734 9.17054C50.302 9.15309 54.3437 10.3671 57.79 12.6598C57.72 12.4346 57.6467 12.2195 57.5734 11.9875C55.2234 5.0896 51 0.477539 46.17 0.477539C41.34 0.477539 37.1234 5.08624 34.7767 11.9909C34.7034 12.2094 34.63 12.438 34.56 12.6565Z" fill="#8D83FF"/>
<path d="M32.8199 24.5392C32.8152 26.9811 33.0238 29.4187 33.4433 31.8237C35.1533 41.5722 40.2066 48.608 46.1733 48.608C52.1399 48.608 57.1933 41.5487 58.9033 31.8237C59.321 29.4185 59.5296 26.981 59.5266 24.5392C59.5384 21.2666 59.1579 18.0047 58.3933 14.8243C58.2133 14.0847 58.0099 13.3653 57.7933 12.6628C54.3465 10.3678 50.3035 9.15259 46.1733 9.17011C42.0463 9.15413 38.0065 10.3668 34.5599 12.656C34.3399 13.3519 34.1399 14.0746 33.9566 14.8142C33.1892 17.9976 32.8075 21.2631 32.8199 24.5392Z" fill="#F9F9FA"/>
<path d="M5.09983 12.6563C8.55332 10.3805 12.5894 9.16851 16.7148 9.16851C20.8403 9.16851 24.8763 10.3805 28.3298 12.6563C28.2598 12.431 28.1832 12.2159 28.1098 11.9839C25.7765 5.07593 21.5332 0.463867 16.7098 0.463867C11.8865 0.463867 7.6665 5.08601 5.33317 11.9907C5.2465 12.2092 5.16983 12.4378 5.09983 12.6563Z" fill="#8D83FF"/>
<path d="M3.35985 24.5393C3.35683 26.9811 3.5654 29.4186 3.98318 31.8238C5.69651 41.5723 10.7498 48.6081 16.7132 48.6081C22.6765 48.6081 27.7332 41.5488 29.4465 31.8238C29.8643 29.4186 30.0729 26.9811 30.0698 24.5393C30.0806 21.2666 29.699 18.0046 28.9332 14.8244C28.7565 14.0848 28.5532 13.3654 28.3332 12.6629C24.88 10.3863 20.8438 9.17383 16.7182 9.17383C12.5926 9.17383 8.55636 10.3863 5.10318 12.6629C4.87985 13.3587 4.67985 14.0815 4.49985 14.821C3.73183 18.0021 3.34904 21.2653 3.35985 24.5393Z" fill="#F9F9FA"/>
<path d="M1.15328 17.6146C1.33994 16.8448 1.54661 16.1052 1.76328 15.4228C1.83661 15.1976 1.90995 14.9724 1.98661 14.7505C3.53328 10.1956 5.80327 6.77355 8.45661 4.80703C10.7966 1.71776 13.6666 0 16.7133 0C21.6133 0 26.0466 4.42718 28.5633 11.8428V11.8798C28.6333 12.0915 28.7066 12.3033 28.7733 12.5185C29.0133 13.295 29.2133 14.011 29.3799 14.7102C29.757 16.2343 30.042 17.7801 30.2333 19.3391C30.3466 18.7575 30.4699 18.1827 30.6099 17.6146C30.7999 16.8448 31.0033 16.1052 31.2233 15.4228C31.2933 15.1976 31.3699 14.9724 31.4433 14.7505C32.9999 10.1956 35.2566 6.77355 37.9133 4.80703C40.2499 1.71776 43.1199 0 46.1733 0C51.0699 0 55.4999 4.42718 58.0233 11.8428V11.8798C58.0966 12.0915 58.1666 12.3033 58.2333 12.5185C58.4866 13.295 58.6666 14.011 58.8533 14.7102C59.6276 17.9279 60.0126 21.2283 59.9999 24.5394C60.0027 27.0094 59.7919 29.4749 59.3699 31.9079C58.1233 38.9941 55.2199 44.4667 51.5399 47.1896C49.2066 50.2453 46.3499 52 43.2866 52C37.1999 52 31.8966 45.0954 30.0899 34.8191C29.9633 34.1064 29.8599 33.387 29.7566 32.6576C28.4433 39.3807 25.6133 44.5709 22.0633 47.193C19.7299 50.2453 16.8799 52 13.8133 52C7.72994 52 2.42661 45.0954 0.616611 34.8191C0.198948 32.3868 -0.00739288 29.9224 -5.72205e-05 27.4539C-0.0146255 24.139 0.372692 20.8347 1.15328 17.6146ZM46.1733 0.954684C41.8933 0.954684 37.8166 4.98856 35.4366 11.5503C38.7053 9.66532 42.4079 8.67995 46.1733 8.693C49.9417 8.67924 53.6472 9.66708 56.9166 11.557C54.5333 4.99864 50.4533 0.954684 46.1733 0.954684ZM58.2866 32.5534C57.3053 33.8461 55.933 34.7812 54.3775 35.2169C52.822 35.6527 51.1681 35.5655 49.6662 34.9685C48.1643 34.3715 46.8961 33.2972 46.0538 31.9083C45.2116 30.5194 44.841 28.8915 44.9982 27.2712C45.1555 25.6509 45.8319 24.1264 46.9253 22.9285C48.0186 21.7306 49.4692 20.9247 51.0574 20.6326C52.6455 20.3406 54.2849 20.5784 55.727 21.31C57.1692 22.0416 58.3357 23.2272 59.0499 24.6873C59.0499 24.6402 59.0499 24.5898 59.0499 24.5394C59.0642 21.3054 58.6892 18.0817 57.9333 14.9388C57.7799 14.3068 57.5999 13.6614 57.3899 12.9689C54.0517 10.7835 50.1532 9.62914 46.1733 9.64768C42.1966 9.6304 38.3011 10.7822 34.9633 12.9622C34.7699 13.5807 34.5866 14.2396 34.4166 14.9287C33.656 18.0743 33.2788 21.3017 33.2933 24.5394C33.2898 26.953 33.495 29.3623 33.9066 31.7399C35.6333 41.5455 40.5733 48.1308 46.1733 48.1308C51.6299 48.1308 56.4399 41.9019 58.2866 32.5466V32.5534ZM16.7133 0.954684C12.4366 0.954684 8.35661 4.98856 5.97661 11.5503C9.25073 9.67536 12.9514 8.68966 16.7166 8.68966C20.4818 8.68966 24.1825 9.67536 27.4566 11.5503C25.0733 4.99864 20.9999 0.954684 16.7133 0.954684ZM28.8299 32.5534C27.8519 33.8455 26.4836 34.7819 24.9316 35.2211C23.3796 35.6604 21.728 35.5787 20.226 34.9884C18.7241 34.3981 17.4532 33.3313 16.6052 31.9488C15.7572 30.5663 15.378 28.9431 15.5249 27.3243C15.6717 25.7054 16.3367 24.1786 17.4194 22.9743C18.5021 21.7699 19.9438 20.9533 21.527 20.6476C23.1102 20.342 24.7491 20.5639 26.1963 21.2799C27.6435 21.9958 28.8206 23.167 29.5499 24.6167L29.5899 24.099C29.5701 21.0146 29.1954 17.9428 28.4733 14.9455C28.3233 14.3135 28.1399 13.6681 27.9333 12.9756C24.5872 10.8094 20.6945 9.65778 16.7183 9.65778C12.742 9.65778 8.84939 10.8094 5.50327 12.9756C5.30994 13.5942 5.12661 14.253 4.95995 14.9421C4.19929 18.0832 3.82094 21.306 3.83327 24.5394C3.83088 26.9531 4.03722 29.3624 4.44994 31.7399C6.17328 41.5455 11.1166 48.1308 16.7133 48.1308C22.1699 48.1308 26.9799 41.9019 28.8299 32.5466V32.5534Z" fill="black"/>
<path d="M20.3467 28.193C18.8114 28.193 17.5667 26.9378 17.5667 25.3895C17.5667 23.8411 18.8114 22.5859 20.3467 22.5859C21.8821 22.5859 23.1267 23.8411 23.1267 25.3895C23.1267 26.9378 21.8821 28.193 20.3467 28.193Z" fill="#F9F9FA"/>
<path d="M49.8033 28.193C48.2679 28.193 47.0233 26.9378 47.0233 25.3895C47.0233 23.8411 48.2679 22.5859 49.8033 22.5859C51.3386 22.5859 52.5833 23.8411 52.5833 25.3895C52.5833 26.9378 51.3386 28.193 49.8033 28.193Z" fill="#F9F9FA"/>
</g>
<defs>
<clipPath id="clip0_890_2376">
<rect width="60" height="52" fill="white" transform="matrix(-1 0 0 1 60 0)"/>
</clipPath>
</defs>
</svg>
