<svg width="320" height="320" viewBox="0 0 320 320" fill="none" xmlns="http://www.w3.org/2000/svg">
<g clip-path="url(#clip0_890_2308)">
<path d="M227.947 234.637C227.944 234.63 227.941 234.622 227.937 234.615C223.986 227.036 220.914 221.381 218.719 217.651C205.651 193.335 193.188 163.9 181.332 129.347C178.478 120.45 176.394 113.713 175.078 109.137C175.075 109.127 175.071 109.117 175.067 109.106C172.651 103.22 169.634 100.276 166.015 100.273C159.426 100.273 155.144 103.464 153.168 109.845C151.081 116.706 148.885 123.448 146.58 130.07C131.756 173.291 119.678 203.749 110.345 221.443C107.599 226.5 105.512 230.232 104.086 232.639C101.229 237.577 99.8015 240.888 99.8037 242.571C99.8037 246.183 101.231 250.005 104.086 254.038C106.94 258.07 109.905 260.087 112.98 260.088C115.94 260.088 118.588 254.973 123.171 244.964C123.184 244.934 127.495 234.89 128.691 231.63C130.24 227.406 148.556 176.659 148.556 176.659C153.972 161.455 159.282 147.129 164.487 133.682C164.5 133.637 164.527 133.597 164.565 133.569C164.602 133.541 164.648 133.525 164.695 133.524C164.743 133.524 164.789 133.538 164.827 133.565C164.866 133.592 164.895 133.63 164.909 133.675C175.497 160.334 206.044 239.46 207.187 242.744L207.194 242.761C209.717 248.655 212.406 251.601 215.26 251.6C218.444 251.6 221.546 250.276 224.566 247.627C227.585 244.981 229.095 242.032 229.095 238.779C229.095 237.819 228.713 236.439 227.947 234.638V234.637Z" fill="#F9F9FA"/>
<path d="M142.802 176.772C142.848 176.804 142.885 176.846 142.911 176.895C142.937 176.944 142.951 176.999 142.952 177.054C142.952 177.11 142.939 177.164 142.914 177.214C142.888 177.263 142.851 177.306 142.806 177.338C142.2 177.736 141.618 177.508 140.955 177.108C132.842 172.219 124.471 167.932 115.676 164.631C100.233 158.757 83.7498 156.014 67.2094 156.565C66.2057 156.599 65.2021 156.649 64.1984 156.692C64.0225 156.7 63.8466 156.717 63.6712 156.714C62.2159 156.694 61.9524 156.264 62.6576 154.938C64.7591 150.987 67.9566 148.94 72.1715 148.698C74.7469 148.55 77.2794 148.963 79.8156 149.352C84.6613 150.093 89.5086 150.809 94.2879 151.982C105.841 154.857 116.874 159.476 126.999 165.676C132.425 168.971 137.622 172.619 142.557 176.596C142.636 176.659 142.721 176.714 142.802 176.772Z" fill="#03AA89"/>
<path d="M142.802 176.771C142.848 176.803 142.885 176.845 142.911 176.894C142.937 176.943 142.951 176.998 142.952 177.053C142.952 177.109 142.939 177.163 142.914 177.213C142.888 177.262 142.851 177.305 142.806 177.338C142.2 177.735 141.618 177.507 140.955 177.107C132.842 172.218 124.471 167.931 115.676 164.63C100.233 158.756 83.7498 156.013 67.2094 156.564C66.2057 156.598 65.2021 156.648 64.1984 156.691C64.0225 156.699 63.8466 156.716 63.6712 156.714C62.2159 156.693 61.9524 156.263 62.6576 154.937C64.7591 150.986 67.9566 148.939 72.1715 148.697C74.7469 148.549 77.2794 148.962 79.8156 149.351C84.6613 150.093 89.5086 150.809 94.2879 151.981C105.841 154.856 116.874 159.475 126.999 165.675C132.424 168.97 137.622 172.618 142.557 176.595C142.636 176.658 142.721 176.713 142.802 176.771ZM268.336 138.939C268.385 138.978 268.423 139.027 268.448 139.083C268.474 139.139 268.485 139.2 268.482 139.261C268.479 139.322 268.462 139.382 268.431 139.435C268.4 139.489 268.357 139.534 268.305 139.567C267.662 139.956 266.93 140.177 266.178 140.21C244.376 141.925 224.425 149.651 205.735 161.523C198.725 165.976 192.148 171.097 185.555 176.202C185.406 176.304 185.263 176.414 185.127 176.531C184.752 176.893 184.518 176.534 184.304 176.317C183.987 175.996 184.378 175.844 184.523 175.709C186.79 173.58 189.042 171.434 191.35 169.358C200.742 160.912 210.67 153.3 221.541 147.17C230.14 142.249 239.339 138.428 248.915 135.798C252.052 134.964 255.289 134.551 258.537 134.569C260.375 134.561 262.17 135.117 263.673 136.161C264.922 136.969 266.214 137.71 267.545 138.379C267.826 138.541 268.091 138.729 268.336 138.939Z" fill="#03AA89"/>
<path d="M268.336 138.939C268.384 138.978 268.422 139.027 268.448 139.083C268.473 139.139 268.485 139.2 268.482 139.261C268.479 139.322 268.461 139.382 268.43 139.435C268.399 139.489 268.356 139.534 268.304 139.567C267.662 139.956 266.93 140.177 266.177 140.21C244.376 141.925 224.424 149.651 205.735 161.523C198.725 165.976 192.147 171.097 185.554 176.202C185.405 176.304 185.263 176.414 185.126 176.531C184.752 176.893 184.517 176.534 184.303 176.317C183.987 175.996 184.378 175.844 184.522 175.709C186.789 173.58 189.041 171.434 191.35 169.358C200.742 160.912 210.669 153.3 221.54 147.17C230.14 142.249 239.338 138.428 248.915 135.798C252.052 134.964 255.288 134.551 258.537 134.569C260.374 134.561 262.169 135.117 263.673 136.161C264.921 136.969 266.214 137.71 267.544 138.379C267.825 138.541 268.09 138.729 268.336 138.939ZM63.5331 142.525C63.4898 142.497 63.4532 142.46 63.4258 142.417C63.3985 142.373 63.3811 142.324 63.3747 142.273C63.3684 142.223 63.3734 142.171 63.3892 142.122C63.4051 142.074 63.4315 142.029 63.4666 141.991C63.6656 141.799 63.891 141.637 64.1363 141.507C65.85 140.56 67.4903 139.463 69.2334 138.577C70.5041 137.927 71.9032 137.559 73.3331 137.497C78.1842 137.297 82.847 138.361 87.4759 139.772C103.342 144.607 117.653 152.765 130.957 163.094C136.271 167.219 141.375 171.627 146.345 176.216C146.425 176.291 146.506 176.368 146.586 176.445C146.62 176.478 146.647 176.518 146.666 176.561C146.684 176.605 146.694 176.651 146.695 176.698C146.695 176.746 146.686 176.792 146.668 176.836C146.65 176.88 146.624 176.92 146.59 176.953C145.867 177.675 146.045 177.539 145.149 176.851C136.959 170.552 128.565 164.61 119.588 159.652C107.306 152.869 94.4648 147.821 80.8483 145.147C75.7917 144.156 70.6746 143.493 65.5301 143.164C64.8084 143.194 64.0997 142.968 63.5331 142.525Z" fill="#03AA89"/>
<path d="M63.5317 142.525C63.4884 142.497 63.4518 142.46 63.4244 142.416C63.3971 142.373 63.3797 142.324 63.3733 142.273C63.367 142.222 63.372 142.171 63.3878 142.122C63.4037 142.073 63.4301 142.029 63.4652 141.991C63.6642 141.799 63.8896 141.636 64.1349 141.507C65.8486 140.56 67.4889 139.463 69.232 138.577C70.5028 137.927 71.9018 137.558 73.3317 137.497C78.1828 137.297 82.8456 138.361 87.4745 139.772C103.34 144.607 117.652 152.765 130.956 163.093C136.269 167.218 141.373 171.626 146.343 176.216C146.424 176.291 146.504 176.368 146.584 176.445C146.618 176.478 146.646 176.518 146.664 176.561C146.683 176.604 146.693 176.651 146.693 176.698C146.694 176.745 146.685 176.792 146.667 176.836C146.649 176.88 146.622 176.919 146.589 176.953C145.865 177.675 146.044 177.539 145.148 176.85C136.958 170.552 128.563 164.61 119.587 159.652C107.304 152.869 94.4634 147.821 80.8469 145.147C75.7903 144.156 70.6732 143.493 65.5287 143.164C64.807 143.194 64.0983 142.967 63.5317 142.525ZM61.7684 168.563C62.7704 168.834 63.7901 168.669 64.814 168.537C77.4029 166.919 89.9868 166.65 102.561 168.298C112.645 169.623 122.513 172.231 131.919 176.057C133.917 176.867 135.93 177.635 138.005 178.446C138.159 178.506 138.302 178.332 138.235 178.17C138.075 177.822 137.826 177.522 137.512 177.299C134.976 175.281 132.126 173.85 129.327 172.333C121.149 167.901 112.672 164.3 103.705 162.084C98.2773 160.728 92.7186 159.948 87.1232 159.757C83.329 159.635 79.544 159.221 75.7378 159.441C72.6765 159.617 69.7018 160.191 66.9943 161.874C64.6322 163.323 62.7429 165.413 61.5524 167.894C61.5318 167.936 61.5153 167.982 61.4959 168.027C61.4741 168.079 61.4639 168.136 61.4661 168.193C61.4683 168.25 61.4828 168.305 61.5086 168.356C61.5344 168.407 61.571 168.452 61.6158 168.487C61.6606 168.523 61.7126 168.549 61.7684 168.563Z" fill="#03AA89"/>
<path d="M61.7684 168.563C62.7704 168.834 63.7901 168.668 64.814 168.537C77.4029 166.918 89.9868 166.649 102.561 168.298C112.645 169.622 122.513 172.23 131.919 176.057C133.917 176.866 135.93 177.635 138.005 178.445C138.159 178.505 138.302 178.331 138.235 178.169C138.075 177.821 137.826 177.521 137.512 177.298C134.976 175.281 132.126 173.849 129.327 172.332C121.149 167.9 112.672 164.3 103.705 162.083C98.2773 160.727 92.7186 159.947 87.1232 159.756C83.329 159.634 79.544 159.221 75.7378 159.44C72.6765 159.617 69.7018 160.19 66.9943 161.873C64.6322 163.322 62.7429 165.412 61.5524 167.893C61.5318 167.935 61.5153 167.981 61.4959 168.026C61.4741 168.079 61.4639 168.135 61.4661 168.192C61.4683 168.249 61.4828 168.305 61.5086 168.355C61.5344 168.406 61.571 168.451 61.6158 168.487C61.6606 168.522 61.7126 168.548 61.7684 168.563ZM267.288 169.681C266.279 169.928 265.264 169.738 264.244 169.582C251.698 167.662 239.125 167.091 226.514 168.438C216.4 169.52 206.471 171.89 196.973 175.49C194.956 176.251 192.925 176.971 190.83 177.732C190.674 177.789 190.535 177.61 190.607 177.45C190.775 177.106 191.032 176.812 191.351 176.597C193.936 174.641 196.82 173.278 199.656 171.829C207.94 167.594 216.503 164.199 225.524 162.198C230.983 160.972 236.559 160.326 242.157 160.269C245.953 160.238 249.748 159.915 253.547 160.226C256.603 160.477 259.563 161.121 262.228 162.868C264.554 164.374 266.391 166.508 267.521 169.017C267.54 169.06 267.555 169.106 267.574 169.152C267.594 169.205 267.603 169.262 267.599 169.318C267.595 169.375 267.58 169.43 267.553 169.48C267.525 169.531 267.488 169.575 267.442 169.609C267.397 169.644 267.344 169.668 267.288 169.681Z" fill="#03AA89"/>
<path d="M267.289 169.682C266.281 169.929 265.265 169.739 264.245 169.583C251.7 167.663 239.126 167.092 226.516 168.439C216.402 169.521 206.472 171.891 196.975 175.491C194.957 176.252 192.926 176.972 190.831 177.733C190.676 177.79 190.537 177.611 190.609 177.451C190.777 177.107 191.033 176.813 191.352 176.598C193.937 174.642 196.821 173.279 199.658 171.83C207.942 167.595 216.505 164.2 225.525 162.199C230.984 160.973 236.56 160.327 242.159 160.27C245.955 160.239 249.749 159.916 253.548 160.227C256.604 160.478 259.564 161.122 262.229 162.869C264.555 164.375 266.393 166.509 267.522 169.018C267.541 169.061 267.557 169.107 267.575 169.153C267.595 169.206 267.604 169.263 267.6 169.319C267.597 169.376 267.581 169.431 267.554 169.481C267.527 169.532 267.489 169.576 267.444 169.61C267.398 169.645 267.345 169.669 267.289 169.682ZM165.876 169.139C165.869 169.081 165.842 169.028 165.799 168.987C165.757 168.947 165.702 168.923 165.643 168.918C163.546 168.87 161.815 167.804 160.309 166.338C160.006 166.043 159.704 165.745 159.404 165.446C147.128 153.107 133.213 142.466 118.041 133.816C110.619 129.608 104.172 126.895 96.4416 123.6C96.1319 123.468 94.5825 122.987 94.3026 123.084C88.0211 125.257 81.7398 127.431 75.4589 129.605L74.2657 130.015C74.1798 130.047 74.1018 130.096 74.037 130.159C73.9722 130.223 73.9221 130.3 73.8904 130.385C73.8586 130.469 73.8459 130.56 73.853 130.65C73.8601 130.74 73.887 130.827 73.9317 130.906C74.4416 131.77 75.2335 131.928 75.9869 132.152C83.245 134.308 90.5051 136.438 97.5864 139.349C115.258 146.592 131.161 157.474 144.232 171.268C147.604 174.797 150.191 178.122 153.16 181.304C153.779 181.962 154.597 182.404 155.492 182.563C156.733 182.74 157.983 182.852 159.236 182.899C161.697 183.088 164.165 183.149 166.632 183.081C166.738 183.076 169.223 183.073 167.537 182.788C167.302 182.742 167.09 182.622 166.931 182.446C166.772 182.27 166.675 182.048 166.655 181.813C166.473 177.573 166.556 173.306 165.876 169.139Z" fill="#03AA89"/>
<path d="M165.876 169.139C165.869 169.081 165.842 169.028 165.799 168.987C165.757 168.947 165.701 168.923 165.643 168.918C163.546 168.87 161.815 167.804 160.309 166.338C160.006 166.043 159.704 165.745 159.404 165.446C147.128 153.107 133.213 142.466 118.041 133.816C110.619 129.608 104.172 126.895 96.4416 123.6C96.1319 123.468 94.5825 122.987 94.3026 123.084C88.0211 125.257 81.7398 127.431 75.4589 129.605L74.2657 130.015C74.1798 130.047 74.1018 130.096 74.037 130.159C73.9722 130.223 73.9221 130.3 73.8904 130.385C73.8586 130.469 73.8459 130.56 73.853 130.65C73.8601 130.74 73.887 130.827 73.9317 130.906C74.4416 131.77 75.2335 131.928 75.9869 132.152C83.245 134.308 90.5051 136.438 97.5864 139.349C115.258 146.592 131.161 157.474 144.232 171.268C147.604 174.797 150.191 178.122 153.16 181.304C153.779 181.962 154.597 182.404 155.492 182.563C156.733 182.74 157.983 182.852 159.236 182.899C161.696 183.088 164.165 183.149 166.632 183.081C166.738 183.076 169.223 183.073 167.537 182.788C167.302 182.742 167.09 182.622 166.931 182.446C166.772 182.27 166.675 182.048 166.655 181.813C166.473 177.573 166.556 173.306 165.876 169.139Z" fill="#03AA89"/>
<path d="M165.876 169.139C165.869 169.081 165.842 169.028 165.799 168.987C165.757 168.947 165.701 168.923 165.643 168.918C163.546 168.87 161.815 167.804 160.309 166.338C160.006 166.043 159.704 165.745 159.404 165.446C147.128 153.107 133.213 142.466 118.041 133.816C110.619 129.608 104.172 126.895 96.4416 123.6C96.1319 123.468 94.5825 122.987 94.3026 123.084C88.0211 125.257 81.7398 127.431 75.4589 129.605L74.2657 130.015C74.1798 130.047 74.1018 130.096 74.037 130.159C73.9722 130.223 73.9221 130.3 73.8904 130.385C73.8586 130.469 73.8459 130.56 73.853 130.65C73.8601 130.74 73.887 130.827 73.9317 130.906C74.4416 131.77 75.2335 131.928 75.9869 132.152C83.245 134.308 90.5051 136.438 97.5864 139.349C115.258 146.592 131.161 157.474 144.232 171.268C147.604 174.797 150.191 178.122 153.16 181.304C153.779 181.962 154.597 182.404 155.492 182.563C156.733 182.74 157.983 182.852 159.236 182.899C161.696 183.088 164.165 183.149 166.632 183.081C166.738 183.076 169.223 183.073 167.537 182.788C167.302 182.742 167.09 182.622 166.931 182.446C166.772 182.27 166.675 182.048 166.655 181.813C166.473 177.573 166.556 173.306 165.876 169.139Z" fill="#03AA89"/>
<path d="M162.905 168.914C162.75 168.432 164.238 168.963 164.424 168.949C166.251 168.803 168.181 167.744 169.638 166.26C169.935 165.958 170.229 165.655 170.522 165.349C182.516 152.741 196.185 141.795 211.157 132.811C218.482 128.441 224.866 125.586 232.519 122.12C232.826 121.982 234.364 121.467 234.646 121.558C240.975 123.591 247.304 125.625 253.633 127.659L254.835 128.044C254.922 128.073 255.001 128.12 255.067 128.182C255.134 128.245 255.185 128.32 255.219 128.404C255.253 128.488 255.267 128.579 255.262 128.669C255.257 128.759 255.232 128.847 255.189 128.927C254.699 129.802 253.911 129.978 253.163 130.218C245.956 132.534 238.746 134.824 231.732 137.892C214.229 145.524 198.578 156.755 185.823 170.834C182.7 174.254 180.279 177.473 177.565 180.567C176.637 181.63 175.35 182.325 173.943 182.521C172.987 182.652 171.969 182.842 171.088 182.882C169.462 182.954 167.893 183.217 166.267 183.076C164.872 182.955 163.659 182.04 163.575 180.66C163.335 176.755 164.064 172.545 162.905 168.914Z" fill="#03AA89"/>
<path d="M162.905 168.914C162.75 168.432 164.238 168.963 164.424 168.949C166.251 168.803 168.181 167.744 169.638 166.26C169.935 165.958 170.229 165.655 170.522 165.349C182.516 152.741 196.185 141.795 211.157 132.811C218.482 128.441 224.866 125.586 232.519 122.12C232.826 121.982 234.364 121.467 234.646 121.558C240.975 123.591 247.304 125.625 253.633 127.659L254.835 128.044C254.922 128.073 255.001 128.12 255.067 128.182C255.134 128.245 255.185 128.32 255.219 128.404C255.253 128.488 255.267 128.579 255.262 128.669C255.257 128.759 255.232 128.847 255.189 128.927C254.699 129.802 253.911 129.978 253.163 130.218C245.956 132.534 238.746 134.824 231.732 137.892C214.229 145.524 198.578 156.755 185.823 170.834C182.7 174.254 180.279 177.473 177.565 180.567C176.637 181.63 175.35 182.325 173.943 182.521C172.987 182.652 171.969 182.842 171.088 182.882C169.462 182.954 167.893 183.217 166.267 183.076C164.872 182.955 163.659 182.04 163.575 180.66C163.335 176.755 164.064 172.545 162.905 168.914Z" fill="#03AA89"/>
<path d="M162.905 168.914C162.75 168.432 164.238 168.963 164.424 168.949C166.251 168.803 168.181 167.744 169.638 166.26C169.935 165.958 170.229 165.655 170.522 165.349C182.516 152.741 196.185 141.795 211.157 132.811C218.482 128.441 224.866 125.586 232.519 122.12C232.826 121.982 234.364 121.467 234.646 121.558C240.975 123.591 247.304 125.625 253.633 127.659L254.835 128.044C254.922 128.073 255.001 128.12 255.067 128.182C255.134 128.245 255.185 128.32 255.219 128.404C255.253 128.488 255.267 128.579 255.262 128.669C255.257 128.759 255.232 128.847 255.189 128.927C254.699 129.802 253.911 129.978 253.163 130.218C245.956 132.534 238.746 134.824 231.732 137.892C214.229 145.524 198.578 156.755 185.823 170.834C182.7 174.254 180.279 177.473 177.565 180.567C176.637 181.63 175.35 182.325 173.943 182.521C172.987 182.652 171.969 182.842 171.088 182.882C169.462 182.954 167.893 183.217 166.267 183.076C164.872 182.955 163.659 182.04 163.575 180.66C163.335 176.755 164.064 172.545 162.905 168.914ZM187.17 177.079C187.128 177.053 187.092 177.018 187.065 176.977C187.038 176.935 187.021 176.888 187.014 176.84C187.008 176.791 187.013 176.741 187.028 176.694C187.044 176.648 187.07 176.605 187.104 176.569C187.275 176.386 187.458 176.212 187.651 176.051C199.359 166.692 211.99 159.21 225.906 154.341C233.334 151.767 241.011 149.961 248.816 148.95C251.158 148.638 253.48 148.156 255.839 148.005C258.398 147.84 260.917 148 263.263 149.263C265.624 150.535 267.263 152.55 268.4 155.081C268.542 155.398 268.492 155.528 268.302 155.635C267.754 155.926 267.131 156.052 266.51 155.998C258.41 155.502 250.28 155.813 242.243 156.927C228.265 158.848 214.913 163.108 202.115 169.422C197.434 171.732 192.903 174.352 188.375 176.98C187.773 177.329 187.675 177.387 187.17 177.078V177.079Z" fill="#03AA89"/>
<path d="M187.169 177.078C187.127 177.052 187.091 177.017 187.064 176.976C187.037 176.934 187.019 176.887 187.013 176.839C187.007 176.79 187.011 176.74 187.027 176.693C187.042 176.647 187.068 176.604 187.103 176.568C187.274 176.385 187.457 176.212 187.65 176.05C199.358 166.692 211.989 159.209 225.905 154.341C233.333 151.767 241.01 149.96 248.815 148.949C251.156 148.637 253.478 148.155 255.838 148.004C258.396 147.839 260.916 147.999 263.262 149.262C265.623 150.534 267.262 152.549 268.399 155.08C268.541 155.397 268.491 155.527 268.301 155.634C267.752 155.925 267.129 156.051 266.509 155.997C258.409 155.501 250.279 155.812 242.242 156.926C228.264 158.847 214.912 163.107 202.114 169.421C197.433 171.731 192.902 174.351 188.374 176.979C187.772 177.328 187.674 177.386 187.169 177.077V177.078Z" fill="#03AA89"/>
<path d="M179.398 76.6279C175.816 79.7432 169.472 82.1012 164.576 82.1012C159.006 82.1012 153.26 79.9873 149.754 76.6279C148.769 79.0499 148.352 81.6604 148.534 84.264C148.738 88.2786 150.513 92.0582 153.484 94.8074C156.455 97.5566 160.39 99.061 164.462 99.004C172.793 99.004 180.35 92.2323 180.39 84.264C180.402 81.5755 180.402 79.0508 179.398 76.6279Z" fill="#F9F9FA"/>
<path d="M189.694 76.6486C189.692 76.3057 189.593 75.9701 189.407 75.6805C189.221 75.3908 188.956 75.1588 188.642 75.0111V63.7161C188.709 63.6907 188.767 63.6457 188.807 63.5871C188.847 63.5285 188.869 63.4592 188.868 63.3884C188.867 63.3175 188.845 63.2486 188.803 63.1908C188.762 63.133 188.703 63.089 188.636 63.0648L165.028 54.8451C164.725 54.7391 164.395 54.7391 164.092 54.8451L140.488 63.0665C140.42 63.0903 140.361 63.134 140.32 63.1916C140.278 63.2492 140.255 63.318 140.254 63.3889C140.253 63.4597 140.274 63.5291 140.314 63.5879C140.354 63.6467 140.411 63.692 140.478 63.7177L164.051 72.7745C164.379 72.8989 164.742 72.8989 165.07 72.7745L187.014 64.3384V75.0095C186.693 75.1614 186.422 75.4019 186.236 75.702C186.05 76.0021 185.956 76.349 185.964 76.7008C185.973 77.0526 186.085 77.3944 186.286 77.685C186.488 77.9755 186.77 78.2024 187.098 78.3383C186.431 79.6392 185.964 82.309 185.964 83.0711C185.971 83.5542 186.171 84.0151 186.519 84.3542C186.868 84.6933 187.338 84.8833 187.827 84.8833C188.317 84.8833 188.787 84.6933 189.135 84.3542C189.484 84.0151 189.684 83.5542 189.691 83.0711C189.691 82.309 189.223 79.6396 188.557 78.3383C188.893 78.198 189.181 77.963 189.383 77.6625C189.585 77.362 189.694 77.0094 189.694 76.6486Z" fill="#03AA89"/>
<path d="M149.08 67.625C149.081 70.0156 149.082 72.8289 149.082 73.2756C149.082 77.7267 155.907 81.0205 164.449 81.5772C172.946 80.9647 179.815 77.7308 179.815 73.2756C179.815 72.8313 179.815 70.0169 179.818 67.625L164.915 73.3347C164.613 73.4503 164.279 73.4503 163.977 73.3347L149.08 67.625Z" fill="#03AA89"/>
<path d="M152.649 320.003C152.096 319.886 151.544 319.76 150.988 319.657C150.548 319.575 150.103 319.522 149.551 319.441C149.924 315.436 150.289 311.493 150.657 307.551C151.027 303.601 151.396 299.657 151.767 295.72C151.005 295.417 150.998 295.414 150.663 296.126C149.364 298.886 148.068 301.648 146.773 304.411C145.286 307.579 143.798 310.747 142.31 313.915C141.75 315.106 141.377 315.299 140.024 315.119C139.245 315.015 138.467 314.905 137.688 314.802C136.407 314.63 136.032 314.286 135.813 313.01C135.189 309.361 134.571 305.711 133.958 302.06C133.478 299.235 132.995 296.41 132.509 293.585C132.402 292.965 132.389 292.967 131.617 292.978L127.438 316.473L124.026 316.009C124.008 315.764 124.01 315.518 124.031 315.274C125.466 307.282 126.907 299.291 128.355 291.301C128.411 290.949 128.526 290.609 128.694 290.294C128.817 290.084 129.004 289.918 129.228 289.818C129.452 289.719 129.702 289.691 129.943 289.739C131.353 289.915 132.762 290.099 134.166 290.309C134.928 290.422 135.289 290.938 135.412 291.658C135.698 293.335 135.995 295.011 136.287 296.688C136.982 300.688 137.675 304.688 138.366 308.688C138.528 309.63 138.641 310.579 138.798 311.521C138.848 311.817 138.746 312.223 139.228 312.297C139.707 312.37 139.744 311.97 139.874 311.691C141.595 308.005 143.303 304.314 145.028 300.63C146.094 298.355 147.183 296.09 148.263 293.821C148.904 292.474 149.187 292.324 150.649 292.527C151.697 292.671 152.747 292.803 153.795 292.947C155.105 293.127 155.456 293.546 155.339 294.863C154.955 299.174 154.553 303.484 154.164 307.795C153.84 311.392 153.527 314.99 153.201 318.587C153.158 319.061 153.076 319.531 153.012 320.003L152.649 320.003ZM320 134.74C319.822 135.153 319.498 135.487 319.088 135.681C311.279 139.811 303.472 143.946 295.669 148.086C295.538 148.156 295.398 148.207 295.137 148.323C294.882 147.176 294.736 146.072 294.52 144.887L302.36 140.876C302.129 139.553 301.911 138.292 301.691 137.032C301.33 134.973 300.968 132.915 300.604 130.856C300.476 130.135 300.472 130.127 299.708 130.023C297.252 129.688 294.796 129.357 292.339 129.029C292.163 129.005 291.99 128.963 291.73 128.914L291.124 125.509C291.595 125.559 291.948 125.583 292.297 125.635C300.757 126.902 309.216 128.17 317.675 129.441C317.854 129.467 318.031 129.51 318.211 129.533C318.517 129.56 318.803 129.692 319.021 129.905C319.238 130.119 319.373 130.401 319.402 130.702C319.553 131.524 319.67 132.352 319.814 133.175C319.865 133.401 319.927 133.624 320 133.844V134.74ZM303.606 130.551L305.17 139.448L317.049 133.37C317.02 132.331 317.018 132.345 316.153 132.231C313.277 131.85 310.403 131.456 307.528 131.07C306.278 130.902 305.027 130.739 303.606 130.551ZM159.546 0.00292969C158.767 3.16505 157.969 6.32512 156.527 9.27165C156.128 10.0414 155.645 10.7657 155.087 11.4316C154.294 12.4171 153.198 12.986 151.759 13.352C152.17 13.4485 152.358 13.5109 152.551 13.5353C153.336 13.6302 154.093 13.8811 154.777 14.2729C155.461 14.6646 156.057 15.1892 156.53 15.8147C157.32 16.7947 158.013 17.8476 158.599 18.9589C159.844 21.4099 160.973 23.9187 162.222 26.5583C161.495 26.6211 160.914 26.6753 160.331 26.7197C159.761 26.7633 159.191 26.7972 158.559 26.8395C158.397 26.5066 158.24 26.1916 158.093 25.8724C157.255 24.0516 156.466 22.207 155.566 20.4167C155.027 19.3486 154.396 18.3283 153.679 17.3671C153.136 16.5664 152.384 15.9262 151.501 15.5145C150.619 15.1029 149.64 14.9352 148.668 15.0294C147.711 15.1032 146.753 15.1618 145.848 15.2242L146.816 27.6481L143.552 27.8955C143.289 27.2076 141.473 2.84798 141.572 1.34822L144.886 1.11022C145.12 4.89587 145.563 8.58902 145.546 12.3082C146.655 12.5312 149.277 12.239 150.263 11.7817C151.486 11.1659 152.475 10.1768 153.083 8.96151C154.165 7.03873 154.748 4.93337 155.355 2.8382C155.587 2.03697 155.8 1.23085 156.03 0.399468L158.82 0.00292969H159.546ZM0 149.969C0.143771 149.724 0.256764 149.463 0.336479 149.191C0.459098 148.461 0.526394 147.723 0.630847 146.859C4.42831 147.339 8.19028 147.538 11.958 148.242C12.0232 148.055 12.0747 147.863 12.112 147.669C12.1987 146.958 12.2611 146.244 12.3449 145.533C12.4617 144.684 12.3625 143.82 12.0561 143.019C11.7496 142.218 11.2457 141.504 10.5898 140.943C9.74981 140.171 8.82665 139.493 7.83687 138.919C6.18833 137.985 4.46052 137.186 2.76574 136.33C2.47343 136.183 2.17948 136.039 1.82813 135.865L2.20301 132.513C2.39088 132.547 2.57523 132.597 2.75376 132.664C4.85521 133.717 6.98762 134.717 9.03746 135.861C10.1281 136.499 11.148 137.248 12.0802 138.096C12.6427 138.578 13.1011 139.166 13.428 139.826C13.7549 140.486 13.9435 141.205 13.9827 141.939C14.0082 142.056 14.044 142.172 14.0896 142.283C14.1742 142.134 14.248 141.98 14.3105 141.82C14.5483 141.031 14.945 140.297 15.4767 139.663C16.0085 139.028 16.6644 138.506 17.4053 138.127C18.9229 137.317 20.5428 136.709 22.2225 136.319C24.2975 135.781 26.3816 135.276 28.4628 134.763C28.669 134.727 28.877 134.704 29.0858 134.693C28.9645 135.793 28.8505 136.822 28.7382 137.851C28.6953 138.242 28.3836 138.279 28.0859 138.349C26.5868 138.704 25.0762 139.018 23.5944 139.433C22.0838 139.855 20.5911 140.336 19.1199 140.877C18.4495 141.15 17.8189 141.51 17.2447 141.948C16.2133 142.66 15.5105 143.747 15.291 144.97C15.0825 146.111 14.9801 147.273 14.829 148.442L27.4162 149.732C27.3056 150.867 27.2119 151.918 27.0323 153.025C26.7609 153.038 26.489 153.036 26.2177 153.021C21.4093 152.511 16.6014 151.996 11.7941 151.477C8.27849 151.099 4.76328 150.718 1.24848 150.334C0.830257 150.289 0.416161 150.211 0 150.149L0 149.969ZM248.601 58.2414L245.759 56.3199L258.472 36.2921C257.973 35.682 257.967 35.6746 257.35 36.1629C254.848 38.1416 252.348 40.1231 249.85 42.1073C247.279 44.1453 244.709 46.1834 242.139 48.2216C242.021 48.3154 241.904 48.4107 241.783 48.5C241 49.0775 240.524 49.1072 239.716 48.5835C238.959 48.0908 238.21 47.5853 237.469 47.0675C236.56 46.4337 236.382 45.9667 236.712 44.9185C237.565 42.2108 238.441 39.5096 239.308 36.8064C240.439 33.2776 241.573 29.7497 242.71 26.2225C242.854 25.7767 242.937 25.4127 242.245 25.2232L227.908 44.2481L225.096 42.3449C225.24 42.1126 225.346 41.908 225.483 41.7266C230.369 35.2668 235.257 28.8086 240.147 22.3521C240.969 21.2664 241.53 21.1792 242.67 21.9376C243.522 22.5049 244.371 23.0786 245.215 23.6587C246.31 24.4069 246.43 24.7338 246.032 25.9939C244.772 29.9835 243.508 33.9715 242.239 37.9581C241.51 40.2346 240.753 42.5022 239.999 44.771C239.868 45.1622 239.715 45.5282 240.362 45.7075C240.536 45.5771 240.751 45.4243 240.957 45.2608C246.171 41.1316 251.385 37.0028 256.599 32.8744C257.39 32.2492 257.869 32.2435 258.737 32.8108C259.67 33.4205 260.591 34.0494 261.51 34.679C262.573 35.4069 262.69 35.9082 262.006 37.002C260.115 40.0251 258.217 43.0437 256.31 46.0576C253.932 49.8358 251.553 53.6137 249.173 57.3913C249 57.6652 248.811 57.9293 248.601 58.2414ZM61.2144 282.653L63.4645 284.126C64.9885 283.248 66.4348 282.245 67.788 281.128C70.9678 278.456 73.8446 275.452 76.3676 272.168C76.8708 271.534 77.3522 270.882 77.8716 270.261C79.3856 268.453 81.475 267.935 83.6558 268.852C84.236 269.105 84.7915 269.41 85.315 269.764C87.7302 271.351 90.1318 272.959 92.5359 274.562C92.782 274.726 93.014 274.91 93.2935 275.114L79.7625 294.973L82.5782 296.882L77.6763 304.083L75.61 302.711L78.6453 297.672L61.9919 286.578L58.367 291.226L56.3056 289.858C57.9549 287.437 59.5634 285.076 61.2144 282.653ZM88.7203 275.489C88.5027 275.323 88.3669 275.208 88.2199 275.109C86.893 274.222 85.5681 273.332 84.2354 272.453C82.2818 271.165 81.4065 271.328 79.9479 273.147C78.5974 274.833 77.2449 276.52 75.8189 278.142C73.2489 281.169 70.1921 283.758 66.7707 285.805C66.6431 285.894 66.5211 285.991 66.4053 286.095L76.7788 293.005L88.7203 275.489ZM58.7278 53.7418C59.0581 53.5453 59.3834 53.3403 59.7195 53.1533C60.3814 52.7524 61.1363 52.5255 61.9122 52.4939C62.6881 52.4624 63.4593 52.6274 64.1523 52.9732C66.3153 54.0141 68.1144 55.6684 69.3197 57.7243C69.704 58.3554 69.9247 59.0704 69.9622 59.8059C69.9996 60.5414 69.8527 61.2747 69.5344 61.9407C69.0141 63.088 68.294 64.1363 67.4069 65.038C64.8976 67.7471 62.2433 70.3217 59.4553 72.7507C59.388 72.8086 59.3079 72.8518 59.1241 72.9757L39.8445 54.4114C40.143 54.0438 40.3829 53.7055 40.6661 53.4064C42.7081 51.2492 44.7133 49.055 46.8292 46.9697C47.7636 46.0803 48.8046 45.3069 49.929 44.6666C51.5721 43.6983 53.2814 43.7986 54.9122 44.7966C56.3547 45.6819 57.5994 46.8481 58.5701 48.2241C59.7426 49.8705 59.9077 51.5757 58.7881 53.3265C58.7262 53.4231 58.6816 53.5311 58.6291 53.6338L58.7278 53.7418ZM59.6567 68.7992C61.5823 66.7762 63.4278 64.8485 65.2559 62.9053C65.4876 62.6292 65.6866 62.3278 65.8492 62.0071C66.4792 60.9145 66.4871 59.7954 65.6997 58.8149C64.9975 57.9207 64.2011 57.1028 63.3237 56.3749C61.5501 54.9391 60.0791 54.9713 58.2163 56.3211C58.1157 56.3875 58.02 56.4608 57.9297 56.5404C56.1169 58.2887 54.3057 60.0387 52.4375 61.8437L59.6567 68.7992ZM50.5978 60.0737C52.3269 58.2663 53.9919 56.5452 55.6289 54.7977C55.9426 54.435 56.2088 54.0348 56.4212 53.6065C56.6828 53.1652 56.8122 52.6597 56.7943 52.1488C56.7765 51.6378 56.6122 51.1423 56.3204 50.7199C55.6076 49.6069 54.6475 48.6687 53.513 47.9763C53.0753 47.6738 52.556 47.5073 52.0218 47.498C51.4875 47.4887 50.9627 47.6371 50.5144 47.9241C49.8181 48.3397 49.1684 48.8271 48.5765 49.3782C47.1451 50.7451 45.7698 52.1691 44.376 53.5739C44.3005 53.6754 44.237 53.7852 44.1869 53.9011L50.5978 60.0737ZM38.4453 105.715L17.4854 97.7367C17.4928 97.7677 17.4878 97.8345 17.5192 97.8663C20.1888 100.53 22.3084 103.636 24.6567 106.556C27.5149 110.11 30.2972 113.724 33.1422 117.289C33.3388 117.487 33.4662 117.743 33.5058 118.018C33.5455 118.293 33.4953 118.574 33.3626 118.819C33.0142 119.575 32.7367 120.363 32.385 121.247L7.20974 111.702L8.43056 108.603L29.3761 116.583C28.955 116.113 28.5491 115.699 28.1879 115.25C26.1954 112.77 24.2096 110.286 22.2303 107.797C19.394 104.226 16.5783 100.638 13.7238 97.0806C13.5212 96.8881 13.3873 96.6361 13.342 96.3622C13.2968 96.0883 13.3426 95.8073 13.4728 95.5612C13.839 94.7828 14.1206 93.9653 14.4773 93.0663L39.6406 102.609L38.4457 105.714L38.4453 105.715ZM205.673 312.413L202.217 313.268L199.49 302.747C199.192 302.801 198.96 302.828 198.735 302.886C197.067 303.311 195.397 303.736 193.732 304.175C191.813 304.68 190.947 305.707 190.846 307.684C190.719 310.158 190.64 312.635 190.538 315.11C190.525 315.436 190.5 315.762 190.474 316.194L186.861 317.114C186.861 316.737 186.85 316.472 186.863 316.21C186.99 313.645 187.114 311.081 187.251 308.518C187.359 306.535 187.966 305.459 189.863 303.915C189.659 303.876 189.451 303.85 189.243 303.84C186.874 303.915 185.177 302.863 184.112 300.813C183.174 298.996 182.68 296.987 182.671 294.947C182.617 293.892 182.879 292.846 183.424 291.938C183.97 291.029 184.774 290.3 185.737 289.841C186.715 289.305 187.755 288.888 188.834 288.599C191.912 287.842 195.019 287.199 198.116 286.517C198.348 286.466 198.592 286.463 198.955 286.425C201.207 295.062 203.426 303.692 205.673 312.413ZM196.148 289.804C193.772 290.416 191.547 290.968 189.337 291.574C188.79 291.746 188.269 291.989 187.788 292.299C187.351 292.547 186.987 292.902 186.73 293.33C186.473 293.757 186.332 294.243 186.321 294.741C186.223 296.543 186.683 298.333 187.641 299.87C187.914 300.359 188.312 300.768 188.796 301.057C189.279 301.346 189.831 301.504 190.396 301.516C191.27 301.529 192.141 301.444 192.995 301.261C194.677 300.899 196.34 300.443 198.008 300.018C198.232 299.961 198.444 299.861 198.721 299.76L196.148 289.804ZM259.153 269.338L249.303 277.296L257.549 287.259L254.786 289.497L237.546 268.695L240.315 266.463L247.377 274.974L257.232 267.019L250.192 258.5L252.946 256.256L270.185 277.059L267.43 279.286C266.488 278.159 265.573 277.068 264.662 275.973C263.76 274.889 262.86 273.803 261.963 272.715C261.047 271.612 260.129 270.51 259.153 269.338ZM11.8044 222.874L10.6138 219.454L17.7488 214.168L14.0409 203.529L5.1215 203.668L3.94362 200.314C4.3057 200.286 4.56414 200.249 4.82301 200.249C13.6207 200.232 22.4185 200.217 31.2162 200.206C32.4085 200.204 32.6913 200.401 33.0831 201.495C33.3953 202.367 33.69 203.245 33.9955 204.12C34.4476 205.413 34.377 205.663 33.3019 206.486C30.4582 208.661 27.614 210.836 24.7694 213.01C20.7061 216.116 16.6422 219.222 12.5777 222.327C12.3651 222.49 12.1401 222.637 11.8044 222.874ZM17.2397 203.473C18.2636 206.483 19.2545 209.336 20.3072 212.285L31.1881 204.217L30.7736 203.262L17.2397 203.473ZM51.2604 277.798L48.768 275.182L53.0708 267.469L45.2637 259.258L37.2055 263.016L34.7114 260.413C34.9649 260.268 35.1536 260.138 35.3596 260.046C43.4291 256.437 51.4995 252.83 59.5709 249.226C60.5968 248.768 60.9548 248.838 61.7322 249.643C62.444 250.375 63.1486 251.115 63.846 251.86C64.5693 252.639 64.6201 253.034 64.1309 253.946C59.9847 261.674 55.8363 269.401 51.6857 277.127C51.5767 277.33 51.4388 277.518 51.2604 277.798ZM60.43 252.203L48.1446 257.914L54.6108 264.71L61.1525 252.953L60.43 252.203ZM277.128 257.49L282.107 264.824L279.876 267.614C279.723 267.456 279.579 267.29 279.446 267.115C274.584 259.702 269.726 252.287 264.87 244.871C264.352 244.079 264.369 243.662 264.945 242.918C265.571 242.113 266.207 241.316 266.853 240.527C267.636 239.564 267.941 239.477 269.117 239.887C272.992 241.239 276.866 242.594 280.738 243.952C285.124 245.488 289.509 247.024 293.894 248.562C294.173 248.66 294.446 248.776 294.818 248.921L292.549 251.752L284.187 248.672L277.128 257.49ZM281.194 247.57L268.434 242.89L267.792 243.72C270.346 247.423 272.771 251.144 275.372 254.852L281.194 247.57ZM33.0774 229.899C33.8184 231.027 34.3861 232.32 35.3691 233.348C36.4929 234.524 37.947 234.969 39.5307 235.075C41.664 235.217 43.7485 234.842 45.8301 234.461C46.8672 234.271 47.901 234.062 49.0227 233.845L50.8666 236.882C50.5396 236.967 50.3195 237.042 50.0929 237.081C47.9204 237.458 45.7517 237.861 43.5714 238.189C42.135 238.417 40.6711 238.421 39.2335 238.201C37.8116 238.007 36.5035 237.327 35.5363 236.28C35.4722 236.172 35.4288 236.053 35.4083 235.929L35.1891 236.1C35.2136 236.232 35.2465 236.363 35.2878 236.491C35.6035 237.287 35.7493 238.138 35.7161 238.992C35.6829 239.846 35.4715 240.684 35.095 241.454C34.6347 242.492 34.0709 243.483 33.4118 244.411C31.7083 246.725 29.9149 248.974 28.0504 251.388C27.6536 250.761 27.3395 250.275 27.0352 249.783C26.721 249.275 26.4159 248.76 26.0736 248.194C26.2264 247.983 26.373 247.765 26.5364 247.559C27.8444 245.917 29.1998 244.309 30.4487 242.625C31.1948 241.612 31.8514 240.538 32.4114 239.414C32.8886 238.523 33.1111 237.52 33.0551 236.514C32.9991 235.507 32.6667 234.535 32.0935 233.7C31.5981 232.919 31.1274 232.123 30.67 231.373L19.7982 237.918L18.0394 235.038C18.5786 234.451 37.1316 223.324 41.2255 221.127C41.5158 221.585 41.8143 222.05 42.1066 222.52C42.4063 223.001 42.6994 223.486 43.0607 224.075C41.3828 225.074 39.7454 226.063 38.0927 227.028C36.457 227.982 34.806 228.911 33.0774 229.9V229.899ZM303.653 195.296C304.758 192.836 306.796 191.664 309.276 191.16C311.019 190.805 312.792 190.577 314.56 190.363C316.09 190.177 317.632 190.088 319.169 189.961C319.344 189.946 319.522 189.958 319.844 189.958L318.867 193.475C318.016 193.546 317.205 193.598 316.399 193.686C314.296 193.916 312.187 194.106 310.097 194.425C309.116 194.6 308.161 194.891 307.251 195.293C306.573 195.562 305.963 195.975 305.463 196.501C304.964 197.028 304.587 197.656 304.359 198.341C303.968 199.466 303.673 200.623 303.344 201.736L315.677 205.012L314.734 208.395L288.547 201.273C288.702 200.669 288.834 200.127 288.981 199.589C289.122 199.073 289.278 198.56 289.458 197.939C291.362 198.38 293.204 198.918 295.051 199.431C296.877 199.938 298.693 200.478 300.624 201.035C300.963 199.614 301.58 198.238 301.577 196.723C301.578 195.452 301.105 194.224 300.248 193.274C299.362 192.258 298.394 191.314 297.354 190.451C296.052 189.388 294.636 188.46 293.27 187.472C293.029 187.299 292.79 187.123 292.5 186.912L293.418 183.575C293.547 183.597 293.672 183.637 293.79 183.693C295.737 185.109 297.698 186.507 299.613 187.965C300.321 188.526 300.978 189.147 301.577 189.82C302.997 191.353 303.844 193.117 303.653 195.296ZM259.926 69.6652L257.701 66.9539C258.066 66.7986 258.331 66.6731 258.604 66.5716C266.699 63.5661 274.795 60.5625 282.892 57.5608C284.117 57.1073 284.424 57.1973 285.23 58.1819C285.839 58.9245 286.459 59.6593 287.055 60.4112C287.629 61.1358 287.661 61.5246 287.173 62.2806C282.345 69.7576 277.512 77.2322 272.675 84.7043C272.611 84.7776 272.541 84.8457 272.466 84.9081C272.089 84.4623 271.709 84.0205 271.337 83.5726C270.975 83.1373 270.62 82.6964 270.24 82.2306L275.111 74.9519L268.159 66.4713L259.926 69.6652ZM283.627 60.5045C280.628 61.4806 271.851 64.9695 271.246 65.4191C272.194 66.8414 276.376 71.8289 276.954 72.203L284.267 61.2434L283.627 60.5045ZM196.368 31.1037L192.886 30.4826C192.785 29.7694 192.686 29.1254 192.603 28.4791C192.348 26.4952 192.085 24.5121 191.86 22.5249C191.803 22.0359 191.64 21.7868 191.119 21.6972C187.783 21.1225 184.452 20.5202 181.12 19.9293C181.022 19.9325 180.926 19.9462 180.832 19.97L176.75 27.6033L173.273 26.9801C173.407 26.6892 173.479 26.5009 173.577 26.3256C177.769 18.7565 181.962 11.1883 186.156 3.62108C186.777 2.50279 187.058 2.37564 188.35 2.60794C189.242 2.76851 190.136 2.92297 191.027 3.08639C192.126 3.28771 192.387 3.55302 192.548 4.65787C193.276 9.65025 194.002 14.6429 194.727 19.6358C195.256 23.2698 195.785 26.9037 196.316 30.5376C196.334 30.6545 196.338 30.774 196.367 31.1037H196.368ZM191.353 18.7319L189.632 5.5618L188.627 5.378L182.343 17.1323L191.353 18.7319ZM307.425 100.18C306.997 99.2336 306.62 98.3941 306.239 97.5558C305.904 96.8205 305.578 96.0817 305.229 95.3534C304.455 93.7428 303.394 93.2778 301.684 93.8394C299.79 94.4609 297.913 95.1305 296.023 95.7605C293.667 96.6156 291.243 97.2802 288.778 97.7477C286.779 98.1151 284.727 98.083 282.742 97.6532C281.712 97.4508 280.748 97.004 279.933 96.3514C279.117 95.6987 278.475 94.8599 278.062 93.9074L280.307 92.5772C280.421 92.6516 280.529 92.7335 280.631 92.8226C281.23 93.4371 281.957 93.9171 282.761 94.23C283.566 94.543 284.429 94.6814 285.292 94.6361C287.442 94.6049 289.575 94.2526 291.619 93.5912C294.525 92.6702 297.401 91.6541 300.303 90.7213C301.131 90.4439 301.988 90.2607 302.857 90.1752C303.571 90.114 304.289 90.2404 304.937 90.5416C305.586 90.8428 306.142 91.308 306.549 91.8901C306.881 92.3159 307.164 92.7768 307.392 93.2643C308.703 96.0854 309.991 98.9169 311.284 101.747C311.332 101.85 311.357 101.964 311.422 102.164L286.948 113.082C286.848 112.95 286.757 112.811 286.675 112.667C286.277 111.804 285.887 110.937 285.455 109.985L307.425 100.18ZM111.847 35.9632L103.513 10.6785L106.788 9.60828C107.974 12.9913 108.999 16.3714 110.184 19.7756C111.148 19.4728 112.029 19.1806 112.92 18.9198C114.744 18.3871 116.547 17.7501 118.405 17.3736C122.033 16.638 124.238 17.8162 125.768 21.1539C126.582 22.8583 127.102 24.6849 127.306 26.5583C127.521 28.8231 126.713 30.6056 124.707 31.7708C123.91 32.2574 123.062 32.656 122.177 32.9592C119.099 33.9312 115.996 34.829 112.901 35.7472C112.588 35.8397 112.26 35.88 111.847 35.9632H111.847ZM114.283 32.2611C114.427 32.2575 114.57 32.2417 114.711 32.2138C116.725 31.5707 118.745 30.9447 120.744 30.2625C121.369 30.0367 121.964 29.7388 122.517 29.3749C122.951 29.1199 123.302 28.7479 123.529 28.3028C123.756 27.8577 123.849 27.3578 123.798 26.862C123.665 25.0371 123.086 23.2712 122.112 21.7147C121.816 21.2031 121.371 20.7911 120.835 20.5321C120.299 20.273 119.696 20.1789 119.105 20.2618C118.354 20.3364 117.612 20.4814 116.888 20.695C115.18 21.2016 113.49 21.7652 111.795 22.313C111.574 22.3839 111.368 22.4972 111.1 22.6154L114.283 32.2611ZM102.025 294.753C101.884 295.048 101.756 295.278 101.659 295.52C100.871 297.49 100.078 299.459 99.3055 301.435C98.5434 303.386 98.9092 304.179 100.898 304.959C103.931 306.149 106.965 307.338 109.999 308.527C110.273 308.634 110.54 308.758 110.866 308.898L110.041 311.359C109.792 311.312 109.546 311.251 109.304 311.177C105.769 309.865 102.235 308.547 98.7044 307.222C98.2834 307.056 97.8813 306.846 97.5047 306.596C95.4032 305.25 94.7435 303.263 95.667 300.923C97.4444 296.42 99.2519 291.929 101.047 287.432C101.402 286.544 101.749 285.653 102.113 284.769C103.092 282.397 105.003 281.383 107.559 281.889C108.005 281.974 108.441 282.1 108.862 282.267C112.216 283.63 115.565 285.002 118.911 286.384C119.209 286.507 119.492 286.666 119.837 286.836L118.71 289.251C118.39 289.141 118.113 289.055 117.844 288.95C114.893 287.798 111.942 286.644 108.992 285.489C108.739 285.39 108.487 285.288 108.231 285.199C106.826 284.714 105.934 285.027 105.349 286.366C104.538 288.225 103.82 290.123 103.013 292.123L114.126 296.487L113.093 299.075L102.025 294.753ZM301.383 237.44L299.265 235.93C299.701 235.189 300.07 234.506 300.491 233.855C301.618 232.109 301.512 230.495 300.054 228.972C299.454 228.345 298.91 227.665 298.286 226.947C298.129 227.164 298.001 227.313 297.905 227.481C297.756 227.74 297.638 228.016 297.492 228.278C296.77 229.569 295.985 229.977 294.522 229.821C293.469 229.708 292.418 229.585 291.366 229.466C286.679 228.936 281.992 228.405 277.305 227.873C276.978 227.836 276.654 227.775 276.194 227.705L277.803 224.522C278.129 224.548 278.425 224.559 278.718 224.595C283.668 225.216 288.618 225.838 293.567 226.462C293.807 226.492 294.049 226.508 294.29 226.533C294.5 226.57 294.718 226.538 294.908 226.442C295.099 226.345 295.252 226.189 295.344 225.999C295.581 225.554 295.807 225.103 296.051 224.627L284.136 212.139L285.762 208.935C286.029 209.195 286.239 209.385 286.433 209.59C291.106 214.516 295.773 219.445 300.437 224.378C301.435 225.458 302.374 226.589 303.25 227.768C303.935 228.617 304.351 229.646 304.446 230.727C304.513 231.408 304.456 232.096 304.277 232.757C303.704 234.513 302.58 235.96 301.383 237.44ZM97.0216 39.4208C97.2446 39.6702 97.4283 39.865 97.6004 40.07C97.9452 40.4808 98.2841 40.8969 98.6491 41.3391C98.526 41.52 98.3913 41.6928 98.2457 41.8566C95.8394 44.2205 93.025 46.1415 89.9349 47.5292C88.5096 48.2119 86.9136 48.4693 85.3423 48.2701C83.4956 48.0109 82.0002 47.0882 80.679 45.8591C80.0598 45.289 79.4823 44.6763 78.9508 44.0256C76.5971 41.1755 74.6867 37.9951 73.2823 34.5894C72.7251 33.2624 72.4274 31.8434 72.405 30.4072C72.363 28.7769 72.9324 27.1887 74.004 25.9474C74.6842 25.1487 75.4537 24.4283 76.2978 23.8001C78.5049 22.1705 80.9424 20.8695 83.5323 19.9386C83.8114 19.84 84.1012 19.7699 84.4584 19.6656L85.538 22.0147C85.1668 22.2095 84.8501 22.3692 84.5397 22.5396C82.8763 23.4541 81.1997 24.3466 79.5594 25.299C78.8859 25.6985 78.2534 26.1617 77.671 26.6822C76.9918 27.2434 76.4877 27.9829 76.2169 28.8153C75.9461 29.6477 75.9197 30.5387 76.1409 31.3853C76.3772 32.4325 76.7257 33.4519 77.1805 34.4263C78.3508 36.9546 79.8342 39.3298 81.5968 41.4976C82.3566 42.4233 83.219 43.2619 84.1681 43.9979C84.821 44.519 85.6077 44.8509 86.4404 44.9567C87.2732 45.0625 88.1193 44.9379 88.8846 44.5969C89.5362 44.3571 90.1607 44.0507 90.7478 43.6828C92.7316 42.3734 94.6832 41.0167 96.6467 39.6775L97.0216 39.4208ZM167.302 292.454C167.892 292.397 168.366 292.339 168.841 292.306C169.469 292.264 170.099 292.242 170.858 292.205L172.779 318.936L169.221 319.183L167.302 292.454ZM49.6515 85.8719L47.7664 88.7541L25.1154 74.2811L27.0021 71.3985L49.6515 85.8719ZM23.0742 65.2748C23.2103 65.3058 23.3428 65.3509 23.4693 65.4093C24.1815 65.8576 24.8995 66.2981 25.5906 66.7758C25.6751 66.8276 25.7481 66.8959 25.805 66.9765C25.862 67.0571 25.9018 67.1482 25.9219 67.2444C25.9421 67.3407 25.9422 67.4399 25.9223 67.5362C25.9024 67.6324 25.8629 67.7237 25.8061 67.8044C25.7772 67.857 25.7483 67.9095 25.7173 67.9605C24.6212 69.7419 24.4845 69.5968 23.0346 68.635C22.6589 68.3856 22.2737 68.1492 21.9075 67.8875C21.7481 67.7935 21.6304 67.6437 21.5779 67.4679C21.5253 67.2921 21.5417 67.1032 21.6238 66.9388C21.893 66.4416 22.2062 65.9689 22.5598 65.5262C22.67 65.3836 22.921 65.3457 23.0742 65.2748ZM22.2419 73.0874C21.8972 73.834 21.5813 74.5166 20.9451 74.9515C20.823 75.0008 20.6913 75.0225 20.5596 75.015C20.428 75.0074 20.2997 74.9708 20.1842 74.9079C19.5018 74.5255 18.8412 74.1063 18.2054 73.6522C18.1006 73.6022 18.0087 73.5296 17.9363 73.4396C17.864 73.3496 17.8132 73.2447 17.7877 73.1327C17.7622 73.0206 17.7626 72.9043 17.789 72.7925C17.8153 72.6806 17.8669 72.5761 17.9399 72.4866C18.8849 70.9082 19.0439 70.5785 20.6631 71.7042C21.0087 71.9438 21.391 72.137 21.7126 72.4031C21.9145 72.611 22.0921 72.8402 22.2419 73.0874Z" fill="#09090A"/>
</g>
<defs>
<clipPath id="clip0_890_2308">
<rect width="320" height="320" fill="white"/>
</clipPath>
</defs>
</svg>
