<svg width="124" height="121" viewBox="0 0 124 121" fill="none" xmlns="http://www.w3.org/2000/svg">
<path d="M87.524 54.0375C95.3111 36.4399 92.7194 18.2489 81.7355 13.4069C70.7515 8.56489 55.5347 18.9053 47.7476 36.5029L18.8927 101.711C11.1057 119.309 13.6973 137.5 24.6813 142.342C35.6652 147.184 50.8821 136.843 58.6691 119.246L87.524 54.0375Z" fill="#AAAEDF"/>
<path d="M7.18909 45.7944C7.18909 45.7944 11.8311 43.9728 16.3055 46.3216C20.994 48.7828 17.5025 52.4924 17.5025 52.4924C17.5025 52.4924 21.826 57.6811 23.866 60.1995C25.906 62.718 23.1093 65.412 20.2657 62.592C18.8571 61.1951 15.0488 57.1922 15.0488 57.1922C15.0488 57.1922 13.6586 59.7863 10.4251 59.3618C10.0283 61.3987 7.5714 62.0816 5.41462 60.4596C3.25784 58.8374 1.44802 53.9816 2.69689 50.0748C4.02458 45.9216 7.18927 45.7944 7.18927 45.7944L7.18909 45.7944Z" fill="#AAAEDF"/>
<path d="M109.282 77.0543C102.011 77.1983 91.7557 74.4975 78.6225 68.9671L81.5156 62.8024C106.497 73.3221 113.034 70.0536 114.09 69.2915C114.387 69.0778 115.003 68.6334 114.868 67.2158C114.583 64.2054 111.177 59.6996 106.563 57.7908L109.417 51.6098C115.871 54.2796 121.149 60.626 121.694 66.3719C122.016 69.7655 120.717 72.6988 118.037 74.6316C115.898 76.1742 112.975 76.981 109.283 77.0543L109.282 77.0543Z" fill="#AAAEDF"/>
<path d="M103.881 58.7671C103.881 58.7671 94.268 60.7442 92.0207 51.897C90.2207 44.8106 97.1632 45.5513 97.8775 50.2802C98.4378 53.9899 101.735 54.4391 104.634 52.2066C108.943 48.8892 106.627 44.3561 104.179 43.4307C101.731 42.5053 100.177 43.0481 98.2707 44.2743C96.3643 45.5005 94.0331 42.3584 96.6777 40.2808C99.3223 38.2032 107.996 37.0863 110.157 43.6181C113.082 41.7723 111.869 35.5359 111.222 33.7839C110.574 32.0318 114.238 29.3346 115.427 33.2384C116.616 37.1421 115.891 42.1432 114.096 45.0446C117.294 43.3016 119.064 38.0675 119.287 35.451C119.509 32.8346 122.67 32.5221 122.639 36.0276C122.609 39.533 118.06 56.7166 103.881 58.767L103.881 58.7671Z" fill="#AAAEDF"/>
<path d="M98.206 27.9717C98.0992 27.9735 97.9915 27.9527 97.8897 27.9064C97.5351 27.7447 97.393 27.3344 97.5728 26.9902L99.5687 23.1647L99.6773 14.5107C99.6821 14.1304 100.008 13.8165 100.406 13.8097C100.804 13.803 101.122 14.1058 101.117 14.4862L101.007 23.3003C101.005 23.4057 100.979 23.5099 100.929 23.6053L98.8575 27.5756C98.7294 27.8213 98.4718 27.9672 98.206 27.9717Z" fill="#AAAEDF"/>
<path d="M99.8891 28.7821C99.8656 28.7825 99.8422 28.7818 99.8185 28.78C99.4283 28.7499 99.1471 28.4187 99.1907 28.0403L99.6789 23.8071C99.7226 23.4286 100.075 23.1466 100.465 23.1763C100.855 23.2064 101.136 23.5376 101.092 23.916L100.604 28.1492C100.563 28.5046 100.251 28.7755 99.8891 28.7821Z" fill="#AAAEDF"/>
<path d="M101.7 28.5374C101.385 28.5436 101.101 28.3412 101.026 28.0311L100.104 24.2334C100.015 23.868 100.249 23.4917 100.628 23.3927C101.006 23.2945 101.384 23.5098 101.473 23.8753L102.395 27.673C102.484 28.0384 102.249 28.4147 101.871 28.5137C101.814 28.5287 101.757 28.5365 101.7 28.5376L101.7 28.5374Z" fill="#AAAEDF"/>
<path d="M103.104 27.5669C102.878 27.5715 102.659 27.4681 102.529 27.2718C101.873 26.2828 99.9201 23.8882 99.9004 23.8641C99.6653 23.5762 99.7194 23.1474 100.021 22.9061C100.323 22.6649 100.758 22.7031 100.993 22.9908C101.075 23.0913 103.007 25.46 103.697 26.5021C103.903 26.8117 103.807 27.2351 103.484 27.4476C103.366 27.5255 103.234 27.5642 103.104 27.5669Z" fill="#AAAEDF"/>
<path d="M78.2517 0.774414L84.7333 12.4465L102.457 15.0874L95.9075 2.04849L78.2517 0.774414Z" fill="#AAAEDF"/>
<path d="M78.2106 15.025L84.0743 5.14879C84.0743 5.14879 91.3693 5.6041 96.1162 11.8101C92.2712 16.033 87.8815 21.3895 87.8815 21.3895L78.2105 15.025L78.2106 15.025Z" fill="#AAAEDF"/>
<path d="M40.5632 52.4057C35.1714 45.307 29.4437 39.895 23.9995 36.7551C19.5749 34.2032 15.5879 33.3616 13.0615 34.4457C9.64788 35.9106 8.32147 41.5516 9.51344 49.5357L2.73077 50.7229C0.403555 35.1347 6.59162 30.0027 10.4872 28.331C15.2087 26.3049 21.1373 27.214 27.632 30.9599C33.8195 34.5284 40.2114 40.5243 46.1168 48.2993L40.5631 52.4057L40.5632 52.4057Z" fill="#AAAEDF"/>
<path d="M60.6131 46.3281C57.3279 42.4807 51.3756 46.9581 53.7985 51.7361C56.2214 56.5139 59.4174 57.9269 63.3897 58.4978C68.4749 59.2288 71.2363 52.5908 66.6619 50.8806C63.1206 49.5566 61.5817 47.4624 60.6131 46.3281Z" fill="#FED1CE"/>
<path d="M58.8997 49.6213C57.7799 48.5799 55.878 49.6469 56.9157 51.2392C57.9536 52.8315 59.6819 54.3125 62.1866 54.9735C64.5997 55.6106 64.8823 52.9565 63.1335 52.4936C61.3847 52.0308 59.6126 50.2843 58.8997 49.6211L58.8997 49.6213Z" fill="#AAAEDF"/>
<path d="M79.9561 39.6426C79.2178 39.6434 78.5691 39.0921 78.4524 38.3209C78.2011 36.6593 77.1916 35.831 76.3887 35.429C74.9634 34.715 73.1596 34.7953 71.6825 35.6394C71.279 35.8698 70.7956 35.8998 70.3685 35.7215L48.4752 26.5859C48.4491 26.575 48.4234 26.5635 48.398 26.5512C45.3438 25.0699 39.6993 24.9023 37.2845 29.2471C36.8684 29.9958 35.9391 30.2568 35.2088 29.83C34.4788 29.4033 34.2241 28.4504 34.6402 27.7017C38.0343 21.5949 45.4491 21.6908 49.6596 23.711L70.8806 32.5661C73.0782 31.5706 75.6372 31.5795 77.7243 32.625C79.78 33.6548 81.1066 35.5078 81.4599 37.8431C81.5887 38.6947 81.0198 39.492 80.1895 39.624C80.111 39.6364 80.0331 39.6425 79.9561 39.6426Z" fill="#8D83FF"/>
<path d="M63.2927 39.1307C67.5834 39.1258 71.0576 35.5553 71.0527 31.1557C71.0477 26.7561 67.5654 23.1935 63.2747 23.1983C58.984 23.2031 55.5098 26.7736 55.5147 31.1732C55.5197 35.5728 59.002 39.1355 63.2927 39.1307Z" fill="#F9F9FA"/>
<path d="M63.2949 40.689C58.172 40.6948 53.9994 36.4259 53.9935 31.173C53.9876 25.9201 58.1506 21.6418 63.2735 21.636C68.3964 21.6303 72.569 25.8992 72.5749 31.1521C72.5808 36.405 68.4179 40.6833 63.2949 40.689ZM63.277 24.7567C59.8322 24.7606 57.033 27.6373 57.0369 31.1696C57.0409 34.7018 59.8466 37.5723 63.2914 37.5684C66.7362 37.5645 69.5355 34.6878 69.5315 31.1555C69.5275 27.6233 66.7218 24.7528 63.277 24.7567Z" fill="#8D83FF"/>
<path d="M99.1194 47.9876C98.9204 47.9878 98.7183 47.9478 98.5238 47.8631L79.3627 39.5206C78.5891 39.1837 78.2283 38.2677 78.5566 37.4745C78.885 36.6813 79.7785 36.3114 80.5519 36.6482L99.713 44.9908C100.487 45.3276 100.847 46.2436 100.519 47.0368C100.273 47.6304 99.7112 47.9871 99.1196 47.9878L99.1194 47.9876Z" fill="#8D83FF"/>
<path d="M87.1817 48.4646C91.4725 48.4598 94.9468 44.8893 94.9418 40.4897C94.9369 36.0901 91.4545 32.5275 87.1638 32.5323C82.8731 32.5371 79.3988 36.1076 79.4037 40.5072C79.4087 44.9068 82.891 48.4695 87.1817 48.4646Z" fill="#F9F9FA"/>
<path d="M87.1829 50.0328C82.06 50.0386 77.8874 45.7697 77.8814 40.5167C77.8755 35.2638 82.0385 30.9855 87.1615 30.9798C92.2844 30.974 96.457 35.2429 96.4629 40.4958C96.4688 45.7488 92.3058 50.027 87.1829 50.0328ZM87.165 34.1004C83.7202 34.1043 80.9209 36.9811 80.9249 40.5133C80.9288 44.0456 83.7346 46.916 87.1794 46.9121C90.6242 46.9083 93.4235 44.0315 93.4195 40.4993C93.4155 36.967 90.6098 34.0966 87.165 34.1004Z" fill="#8D83FF"/>
<path d="M62.4411 33.5512C63.7642 33.5497 64.8357 32.4487 64.8341 31.0919C64.8326 29.7351 63.7587 28.6364 62.4355 28.6379C61.1123 28.6394 60.0409 29.7405 60.0424 31.0973C60.044 32.454 61.1179 33.5527 62.4411 33.5512Z" fill="#8D83FF"/>
<path d="M86.3441 43.0141C87.6673 43.0126 88.7387 41.9116 88.7372 40.5548C88.7357 39.198 87.6618 38.0993 86.3386 38.1008C85.0154 38.1023 83.944 39.2034 83.9455 40.5602C83.947 41.9169 85.0209 43.0156 86.3441 43.0141Z" fill="#8D83FF"/>
</svg>
