<svg width="40" height="40" viewBox="0 0 40 40" fill="none" xmlns="http://www.w3.org/2000/svg">
<g clip-path="url(#clip0_2836_21343)">
<mask id="mask0_2836_21343" style="mask-type:luminance" maskUnits="userSpaceOnUse" x="0" y="0" width="40" height="40">
<path d="M40 0H0V40H40V0Z" fill="white"/>
</mask>
<g mask="url(#mask0_2836_21343)">
<path d="M11.4262 22.3255C12.9676 22.3255 14.2169 21.0762 14.2169 19.5348C14.2169 17.9934 12.9676 16.7441 11.4262 16.7441C9.8848 16.7441 8.6355 17.9934 8.6355 19.5348C8.6355 21.0762 9.8848 22.3255 11.4262 22.3255Z" fill="#F9F9FA"/>
<path d="M19.7981 22.3255C21.3395 22.3255 22.5888 21.0762 22.5888 19.5348C22.5888 17.9934 21.3395 16.7441 19.7981 16.7441C18.2567 16.7441 17.0074 17.9934 17.0074 19.5348C17.0074 21.0762 18.2567 22.3255 19.7981 22.3255Z" fill="#F9F9FA"/>
<path d="M28.1702 22.3255C29.7116 22.3255 30.9609 21.0762 30.9609 19.5348C30.9609 17.9934 29.7116 16.7441 28.1702 16.7441C26.6297 16.7441 25.3795 17.9934 25.3795 19.5348C25.3795 21.0762 26.6297 22.3255 28.1702 22.3255Z" fill="#F9F9FA"/>
<path d="M0.91081 17.3751L0.910658 17.3765C0.536184 20.9394 1.21531 24.5357 2.8633 27.7174L2.87703 27.7427L2.89211 27.769C2.9418 27.8521 2.98685 27.9376 3.02691 28.0223L3.03036 28.0296L3.03358 28.0371C3.10458 28.2007 3.16155 28.3666 3.19122 28.5071L3.22222 28.6538L3.16736 28.7934L0.874365 34.6266L0.872446 34.6314C0.813658 34.7764 0.770019 34.9283 0.742208 35.0831L0.740829 35.0908L0.740769 35.0908L0.736954 35.1103L0.734897 35.1298L0.734073 35.1377L0.734011 35.1377C0.706527 35.3647 0.724421 35.5945 0.787329 35.8143L0.787569 35.8152C0.850316 36.0359 0.955889 36.2424 1.09771 36.4207C1.24139 36.6014 1.41803 36.7511 1.61791 36.8608L1.61845 36.8611C1.81772 36.9709 2.03826 37.04 2.26772 37.0649L2.27237 37.0654L2.31533 37.0704L2.359 37.0701L2.36435 37.0701C2.5824 37.0708 2.79819 37.04 3.00654 36.9785L3.01739 36.9753L3.02836 36.9726L9.12792 35.4694L9.14969 35.4632C9.38037 35.3922 9.6219 35.3702 9.85912 35.3962M0.91081 17.3751L9.85912 35.3962M0.91081 17.3751C1.95736 7.12345 11.3193 -0.26232 21.7739 0.836494C30.8941 1.79507 37.8644 8.91658 38.7664 17.5256L38.7665 17.5266C38.9028 18.803 38.9049 20.0905 38.7708 21.3661C37.6954 31.5982 28.6583 39.1745 18.1735 38.0725C16.4811 37.8946 14.2989 37.2428 13.1162 36.773L13.1159 36.7729C11.9461 36.309 10.7981 35.74 10.4956 35.5849L10.4925 35.5833C10.2983 35.4854 10.085 35.4199 9.86168 35.3965L9.85983 35.3963C9.8601 35.3963 9.86037 35.3963 9.86065 35.3964L9.84372 35.5495L9.80571 35.8933L9.85798 35.3961L9.85912 35.3962M0.91081 17.3751L9.85912 35.3962M36.9863 17.7161L36.9834 17.6886L36.9828 17.686C36.1582 9.93932 29.8675 3.48773 21.5867 2.61738C12.0755 1.61772 3.63311 8.33388 2.69214 17.558L2.69203 17.5591L2.69174 17.5619C2.35494 20.7663 2.96131 23.9995 4.43887 26.8643L4.4445 26.8752L4.45066 26.8858C4.52374 27.0119 4.59164 27.1427 4.65515 27.277L4.65549 27.2779L4.66241 27.2947L4.67051 27.311C4.77254 27.5443 4.88361 27.8439 4.94759 28.1597C5.00735 28.4575 5.04982 28.883 4.89233 29.2984L4.8919 29.2993L4.88717 29.3113L2.90922 34.3452L2.55572 35.2449L3.49426 35.0135L8.63919 33.7453L8.64935 33.7428L8.65939 33.7399C9.1118 33.608 9.5852 33.5652 10.0518 33.6159L10.0526 33.616C10.4903 33.6628 10.9167 33.7898 11.3092 33.9897L11.3917 34.0317L11.3926 34.0318C11.7616 34.2175 12.7672 34.7092 13.7766 35.1094L13.7767 35.1094C14.8608 35.539 16.8789 36.1359 18.3607 36.2916C27.8419 37.2881 36.0158 30.4472 36.9898 21.1798C37.1109 20.028 37.1094 18.8673 36.9863 17.7161Z" fill="#F9F9FA" stroke="#09090A"/>
</g>
</g>
<defs>
<clipPath id="clip0_2836_21343">
<rect width="40" height="40" fill="white"/>
</clipPath>
</defs>
</svg>
