<svg width="26" height="26" viewBox="0 0 26 26" fill="none" xmlns="http://www.w3.org/2000/svg">
<path d="M25.4265 13.7542C18.0077 15.6337 15.5348 17.884 13.7296 25.4265C13.6868 25.5907 13.5908 25.7361 13.4565 25.8399C13.3223 25.9437 13.1573 26 12.9876 26C12.8179 26 12.6531 25.9437 12.5188 25.8399C12.3846 25.7361 12.2885 25.5907 12.2458 25.4265C10.3663 18.0077 8.11596 15.5347 0.573483 13.7542C0.409266 13.7115 0.263847 13.6154 0.160068 13.4812C0.0562887 13.3469 0 13.182 0 13.0123C0 12.8426 0.0562887 12.6778 0.160068 12.5435C0.263847 12.4092 0.409266 12.3132 0.573483 12.2705C8.11596 10.3663 10.4653 8.11592 12.2458 0.573445C12.2885 0.409228 12.3846 0.263847 12.5188 0.160068C12.6531 0.0562887 12.8179 0 12.9876 0C13.1573 0 13.3223 0.0562887 13.4565 0.160068C13.5908 0.263847 13.6868 0.409228 13.7296 0.573445C15.6337 7.99227 17.884 10.4652 25.4265 12.2705C25.5907 12.3132 25.7362 12.4092 25.8399 12.5435C25.9437 12.6778 26 12.8426 26 13.0123C26 13.182 25.9437 13.3469 25.8399 13.4812C25.7362 13.6154 25.5907 13.7115 25.4265 13.7542Z" fill="#FFECD0"/>
</svg>
