<svg width="135" height="40" viewBox="0 0 135 40" fill="none" xmlns="http://www.w3.org/2000/svg">
<path d="M1 1C4.31436 4.31436 8.44402 6.92352 12.4819 9.25792C17.6851 12.266 23.4619 14.5038 29.2428 16.083C34.4644 17.5093 39.5172 19.0252 44.948 19.4578C48.2057 19.7172 54.2022 20.6997 57.0709 18.4962C59.1453 16.9029 60.8682 14.6353 61.5204 12.086C62.9639 6.44313 55.5293 5.01608 51.3771 6.16591C49.1836 6.77335 46.4149 7.83261 45.2496 9.9178C43.9808 12.1883 42.4068 15.3699 42.8929 18.0437C44.2949 25.7545 51.9479 31.7799 59.0317 33.7677C65.755 35.6544 73.2291 35.8365 80.1478 36.1056C84.8135 36.287 89.507 36.4004 94.175 36.2376C98.5877 36.0836 102.526 35.0633 106.769 33.994C114.428 32.064 122.097 31.2628 129.903 30.3552C130.838 30.2465 131.755 30.03 132.674 29.8462" stroke="#FED1CE" stroke-width="2" stroke-linecap="round"/>
<path d="M113.33 26.4531C117.152 26.5564 120.62 28.3615 124.454 28.4893C127.168 28.5798 129.932 29.0787 132.618 29.5263C134.981 29.9202 128.151 31.2688 125.887 32.0527C123.594 32.8463 121.382 33.7745 119.25 34.9373C117.659 35.8051 113.94 36.841 113.33 38.6703" stroke="#FED1CE" stroke-width="2" stroke-linecap="round"/>
</svg>
