<svg width="24" height="24" viewBox="0 0 24 24" fill="none" xmlns="http://www.w3.org/2000/svg">
<path d="M20.0001 20.0004L15.9501 15.9504M15.9501 15.9504C16.6002 15.3003 17.1158 14.5286 17.4676 13.6793C17.8194 12.83 18.0005 11.9197 18.0005 11.0004C18.0005 10.0811 17.8194 9.17076 17.4676 8.32144C17.1158 7.47211 16.6002 6.7004 15.9501 6.05036C15.3001 5.40031 14.5284 4.88467 13.679 4.53287C12.8297 4.18107 11.9194 4 11.0001 4C10.0808 4 9.17051 4.18107 8.32119 4.53287C7.47187 4.88467 6.70016 5.40031 6.05011 6.05036C4.73729 7.36318 3.99976 9.14375 3.99976 11.0004C3.99976 12.857 4.73729 14.6375 6.05011 15.9504C7.36293 17.2632 9.1435 18.0007 11.0001 18.0007C12.8567 18.0007 14.6373 17.2632 15.9501 15.9504Z" stroke="#DBDBDC" stroke-linecap="round" stroke-linejoin="round"/>
</svg>
