<svg width="24.000000" height="24.000000" viewBox="0 0 24 24" fill="none" xmlns="http://www.w3.org/2000/svg" xmlns:xlink="http://www.w3.org/1999/xlink">
	<desc>
			Created with Pixso.
	</desc>
	<defs>
		<clipPath id="clip2860_38429">
			<rect id="majesticons:search-line" width="24.000000" height="24.000000" fill="white" fill-opacity="0"/>
		</clipPath>
	</defs>
	<rect id="majesticons:search-line" width="24.000000" height="24.000000" fill="#FFFFFF" fill-opacity="0"/>
	<g clip-path="url(#clip2860_38429)">
		<path id="Vector" d="M19.9999 20L15.9499 15.9492M17.4673 13.6797C17.8192 12.8281 18.0002 11.918 18.0002 11C18.0002 10.082 17.8192 9.17188 17.4673 8.32031C17.1155 7.47266 16.5999 6.69922 15.9499 6.05078C15.2998 5.39844 14.5281 4.88281 13.6788 4.53125C12.8295 4.17969 11.9192 4 10.9999 4C10.0806 4 9.17026 4.17969 8.32095 4.53125C7.47162 4.88281 6.69992 5.39844 6.04987 6.05078C4.73706 7.36328 3.99951 9.14453 3.99951 11C3.99951 12.8555 4.73706 14.6367 6.04987 15.9492C7.3627 17.2617 9.14325 18 10.9999 18C12.8565 18 14.6371 17.2617 15.9499 15.9492C16.5999 15.3008 17.1155 14.5273 17.4673 13.6797Z" stroke="#09090A" stroke-opacity="1.000000" stroke-width="2.000000" stroke-linejoin="round"/>
	</g>
</svg>
