<svg width="600" height="600" viewBox="0 0 600 600" fill="none" xmlns="http://www.w3.org/2000/svg">
<path d="M216.504 48.4996L217.895 47.9374V47.9374L216.504 48.4996ZM209.232 45.414L209.794 46.8047L209.232 45.414ZM188.385 53.8409L187.823 52.4502V52.4502L188.385 53.8409ZM185.3 61.1135L186.69 60.5514V60.5513L185.3 61.1135ZM124.944 101.139L123.884 102.199L124.944 101.139ZM101.145 124.939L102.205 123.878L101.145 124.939ZM65.0247 177.858L65.631 176.486H65.631L65.0247 177.858ZM57.6573 180.71L56.2853 180.104L57.6573 180.71ZM48.569 201.277L49.941 201.883H49.941L48.569 201.277ZM51.4207 208.644L52.027 207.272L51.4207 208.644ZM48.5556 383.328L49.1177 384.719H49.1177L48.5556 383.328ZM45.47 390.601L46.8607 390.038H46.8607L45.47 390.601ZM53.8969 411.447L55.2876 410.885L55.2876 410.885L53.8969 411.447ZM61.1695 414.533L61.7316 415.924H61.7316L61.1695 414.533ZM101.224 475.258L102.285 476.318L101.224 475.258ZM101.224 483.158L102.285 482.097L101.224 483.158ZM117.124 499.057L116.063 500.118L117.124 499.057ZM125.024 499.057L126.085 500.118L125.024 499.057ZM177.662 534.946L176.29 534.34L176.29 534.34L177.662 534.946ZM180.515 542.313L179.909 543.685L180.515 542.313ZM201.084 551.398L200.478 552.77L201.084 551.398ZM208.451 548.545L207.078 547.939H207.078L208.451 548.545ZM383.487 551.399L382.097 551.961L383.487 551.399ZM390.76 554.485L390.198 553.094L390.76 554.485ZM411.607 546.058L412.169 547.449L411.607 546.058ZM414.692 538.785L416.083 538.223V538.223L414.692 538.785ZM475.082 498.876L474.022 499.937H474.022L475.082 498.876ZM498.882 475.076L499.943 474.016V474.016L498.882 475.076ZM535.128 422.388L534.521 423.76L535.128 422.388ZM542.495 419.536L541.123 418.93L542.495 419.536ZM551.583 398.969L552.955 399.575L551.583 398.969ZM548.732 391.602L549.338 390.23L548.732 391.602ZM551.455 216.345L552.018 217.736L551.455 216.345ZM554.541 209.072L553.15 209.635V209.635L554.541 209.072ZM546.114 188.226L544.723 188.788V188.788L546.114 188.226ZM538.841 185.14L538.279 183.749L538.841 185.14ZM498.962 125.12L500.023 126.18V126.18L498.962 125.12ZM498.962 117.22L497.901 118.28L498.962 117.22ZM483.062 101.32L484.123 100.259L483.062 101.32ZM475.162 101.32L474.101 100.259L475.162 101.32ZM422.11 64.8006L420.738 64.1946V64.1946L422.11 64.8006ZM419.257 57.4336L418.651 58.8058V58.8058L419.257 57.4336ZM398.688 48.3489L398.082 49.7211L398.688 48.3489ZM391.321 51.202L392.693 51.808V51.808L391.321 51.202ZM321.772 146.534L321.986 145.049L321.772 146.534ZM381.695 168.55L380.897 169.82L381.695 168.55ZM379.444 161.4L378.072 160.794L379.444 161.4ZM423.691 207.379L422.488 208.274L423.691 207.379ZM424.177 199.904L423.117 198.844L424.177 199.904ZM449.764 262.79L448.307 263.146L449.764 262.79ZM452.578 321.768L451.093 321.555L452.578 321.768ZM430.609 381.616L429.339 380.819L430.609 381.616ZM437.761 379.363L438.368 377.991L437.761 379.363ZM392.379 423.204L391.477 422.005L392.379 423.204ZM336.971 449.6L337.333 451.056L336.971 449.6ZM343.695 452.96L345.086 452.398L343.695 452.96ZM448.322 341.789L446.879 341.38L448.322 341.789ZM348.713 147.671L350.085 148.277L348.713 147.671ZM341.878 150.814L341.468 152.257L341.878 150.814ZM278.163 452.69L278.369 451.204L278.163 452.69ZM168.185 218.005L169.459 218.797L168.185 218.005ZM161.021 220.278L161.627 218.906L161.021 220.278ZM423.21 392.373L424.409 393.274L423.21 392.373ZM400.543 175.939L401.604 176.999L400.543 175.939ZM393.02 176.388L392.112 177.583L393.02 176.388ZM218.129 431.001L218.92 429.727L218.129 431.001ZM220.407 438.168L221.779 438.774L220.407 438.168ZM206.739 175.902L205.837 174.703L206.739 175.902ZM374.868 440.267L376.259 439.705L374.868 440.267ZM377.351 433.189L378.107 434.485L377.351 433.189ZM440.62 224.844L440.057 223.454L440.62 224.844ZM433.529 222.34L432.23 223.09L433.529 222.34ZM176.392 393.016L177.586 392.109L176.392 393.016ZM175.942 400.54L177.003 401.6L175.942 400.54ZM262.632 149.387L262.989 150.844L262.632 149.387ZM255.926 146.023L254.536 146.585L255.926 146.023ZM321.772 452.574L321.986 454.059L321.772 452.574ZM452.693 278.159L451.207 278.365L452.693 278.159ZM149.552 337.13L151.007 336.766L149.552 337.13ZM146.193 343.86L146.755 345.251L146.193 343.86ZM158.932 375.015L159.494 376.405L158.932 375.015ZM166.006 377.492L167.301 376.734L166.006 377.492ZM251.237 451.672L249.865 451.066L251.237 451.672ZM258.042 448.52L257.64 449.966L258.042 448.52ZM146.538 321.768L148.022 321.555L146.538 321.768ZM199.908 424.174L198.847 423.113L199.908 424.174ZM207.383 423.688L208.278 422.484L207.383 423.688ZM175.439 199.233L174.379 200.294L175.439 199.233ZM175.907 206.733L177.106 207.634L175.907 206.733ZM147.481 251.092L146.874 252.464L147.481 251.092ZM150.629 257.901L149.185 257.498L150.629 257.901ZM224.698 158.579L226.089 158.017L224.698 158.579ZM222.199 165.666L222.95 166.964L222.199 165.666ZM278.163 146.418L277.957 144.933L278.163 146.418ZM288.74 31.5H311.226V28.5H288.74V31.5ZM284.654 35.5862C284.654 33.3295 286.484 31.5 288.74 31.5V28.5C284.827 28.5 281.654 31.6726 281.654 35.5862H284.654ZM284.654 140.782V35.5862H281.654V140.782H284.654ZM262.989 150.844C268.022 149.611 273.153 148.626 278.369 147.904L277.957 144.933C272.64 145.669 267.408 146.673 262.275 147.93L262.989 150.844ZM215.114 49.0617L254.536 146.585L257.317 145.461L217.895 47.9374L215.114 49.0617ZM209.794 46.8047C211.886 45.959 214.268 46.9695 215.114 49.0617L217.895 47.9374C216.428 44.3091 212.298 42.5567 208.67 44.0234L209.794 46.8047ZM188.947 55.2316L209.794 46.8047L208.67 44.0234L187.823 52.4502L188.947 55.2316ZM186.69 60.5513C185.844 58.4591 186.855 56.0773 188.947 55.2316L187.823 52.4502C184.195 53.9169 182.442 58.0473 183.909 61.6757L186.69 60.5513ZM226.089 158.017L186.69 60.5514L183.909 61.6757L223.307 159.141L226.089 158.017ZM207.64 177.101C212.525 173.428 217.637 170.041 222.95 166.964L221.447 164.368C216.029 167.505 210.818 170.959 205.837 174.703L207.64 177.101ZM123.884 102.199L198.179 176.495L200.3 174.373L126.005 100.078L123.884 102.199ZM118.105 102.199C119.701 100.604 122.288 100.604 123.884 102.199L126.005 100.078C123.238 97.3108 118.751 97.3108 115.984 100.078L118.105 102.199ZM102.205 118.099L118.105 102.199L115.984 100.078L100.084 115.978L102.205 118.099ZM102.205 123.878C100.61 122.282 100.61 119.695 102.205 118.099L100.084 115.978C97.3166 118.745 97.3166 123.232 100.084 125.999L102.205 123.878ZM176.5 198.173L102.205 123.878L100.084 125.999L174.379 200.294L176.5 198.173ZM169.459 218.797C171.846 214.96 174.399 211.235 177.106 207.634L174.708 205.831C171.948 209.503 169.346 213.3 166.912 217.212L169.459 218.797ZM64.4185 179.23L160.415 221.65L161.627 218.906L65.631 176.486L64.4185 179.23ZM59.0293 181.316C59.9415 179.252 62.3542 178.318 64.4185 179.23L65.631 176.486C62.0513 174.904 57.8671 176.524 56.2853 180.104L59.0293 181.316ZM49.941 201.883L59.0293 181.316L56.2853 180.104L47.197 200.671L49.941 201.883ZM52.027 207.272C49.9628 206.36 49.0289 203.947 49.941 201.883L47.197 200.671C45.6152 204.25 47.2347 208.434 50.8144 210.016L52.027 207.272ZM148.087 249.72L52.027 207.272L50.8144 210.016L146.874 252.464L148.087 249.72ZM147.908 278.365C148.855 271.523 150.254 264.826 152.074 258.304L149.185 257.498C147.329 264.148 145.902 270.977 144.936 277.954L147.908 278.365ZM35.5862 284.65H140.785V281.65H35.5862V284.65ZM31.5 288.737C31.5 286.48 33.3295 284.65 35.5862 284.65V281.65C31.6726 281.65 28.5 284.823 28.5 288.737H31.5ZM31.5 311.222V288.737H28.5V311.222H31.5ZM35.5862 315.308C33.3295 315.308 31.5 313.479 31.5 311.222H28.5C28.5 315.136 31.6726 318.308 35.5862 318.308V315.308ZM140.905 315.308H35.5862V318.308H140.905V315.308ZM151.007 336.766C149.764 331.788 148.765 326.713 148.022 321.555L145.053 321.982C145.81 327.241 146.829 332.416 148.096 337.493L151.007 336.766ZM49.1177 384.719L146.755 345.251L145.631 342.469L47.9934 381.937L49.1177 384.719ZM46.8607 390.038C46.0149 387.946 47.0254 385.564 49.1177 384.719L47.9934 381.937C44.365 383.404 42.6126 387.534 44.0793 391.163L46.8607 390.038ZM55.2876 410.885L46.8607 390.038L44.0793 391.163L52.5062 412.009L55.2876 410.885ZM60.6073 413.142C58.5151 413.988 56.1333 412.977 55.2876 410.885L52.5062 412.009C53.9729 415.638 58.1033 417.39 61.7316 415.924L60.6073 413.142ZM158.37 373.624L60.6073 413.142L61.7316 415.924L159.494 376.405L158.37 373.624ZM177.586 392.109C173.861 387.207 170.424 382.073 167.301 376.734L164.712 378.249C167.895 383.693 171.399 388.926 175.198 393.924L177.586 392.109ZM102.285 476.318L177.003 401.6L174.882 399.479L100.164 474.197L102.285 476.318ZM102.285 482.097C100.689 480.501 100.689 477.914 102.285 476.318L100.164 474.197C97.3965 476.964 97.3965 481.451 100.164 484.218L102.285 482.097ZM118.185 497.997L102.285 482.097L100.164 484.218L116.063 500.118L118.185 497.997ZM123.964 497.997C122.368 499.592 119.781 499.592 118.185 497.997L116.063 500.118C118.831 502.885 123.318 502.885 126.085 500.118L123.964 497.997ZM198.847 423.113L123.964 497.997L126.085 500.118L200.968 425.235L198.847 423.113ZM218.92 429.727C215.268 427.459 211.717 425.042 208.278 422.484L206.488 424.891C209.994 427.499 213.614 429.964 217.338 432.276L218.92 429.727ZM179.034 535.552L221.779 438.774L219.035 437.561L176.29 534.34L179.034 535.552ZM181.121 540.941C179.057 540.029 178.122 537.617 179.034 535.552L176.29 534.34C174.709 537.92 176.329 542.104 179.909 543.685L181.121 540.941ZM201.69 550.026L181.121 540.941L179.909 543.685L200.478 552.77L201.69 550.026ZM207.078 547.939C206.167 550.003 203.754 550.937 201.69 550.026L200.478 552.77C204.057 554.351 208.241 552.731 209.823 549.151L207.078 547.939ZM249.865 451.066L207.078 547.939L209.823 549.151L252.609 452.278L249.865 451.066ZM278.369 451.204C271.574 450.263 264.922 448.877 258.444 447.075L257.64 449.966C264.247 451.803 271.029 453.217 277.957 454.176L278.369 451.204ZM284.654 564.414V458.326H281.654V564.414H284.654ZM288.74 568.5C286.483 568.5 284.654 566.671 284.654 564.414H281.654C281.654 568.327 284.827 571.5 288.74 571.5V568.5ZM311.226 568.5H288.74V571.5H311.226V568.5ZM315.312 564.414C315.312 566.671 313.483 568.5 311.226 568.5V571.5C315.139 571.5 318.312 568.327 318.312 564.414H315.312ZM315.312 458.206V564.414H318.312V458.206H315.312ZM336.609 448.145C331.682 449.369 326.661 450.355 321.558 451.089L321.986 454.059C327.189 453.31 332.309 452.305 337.333 451.056L336.609 448.145ZM384.878 550.837L345.086 452.398L342.305 453.522L382.097 551.961L384.878 550.837ZM390.198 553.094C388.106 553.94 385.724 552.93 384.878 550.837L382.097 551.961C383.563 555.59 387.694 557.342 391.322 555.876L390.198 553.094ZM411.045 544.667L390.198 553.094L391.322 555.876L412.169 547.449L411.045 544.667ZM413.302 539.348C414.147 541.44 413.137 543.822 411.045 544.667L412.169 547.449C415.797 545.982 417.55 541.852 416.083 538.223L413.302 539.348ZM373.478 440.829L413.302 539.348L416.083 538.223L376.259 439.705L373.478 440.829ZM391.477 422.005C386.724 425.58 381.755 428.883 376.595 431.894L378.107 434.485C383.368 431.415 388.434 428.047 393.28 424.403L391.477 422.005ZM476.143 497.815L400.939 422.611L398.818 424.733L474.022 499.937L476.143 497.815ZM481.922 497.815C480.326 499.411 477.739 499.411 476.143 497.815L474.022 499.937C476.789 502.704 481.276 502.704 484.043 499.937L481.922 497.815ZM497.821 481.916L481.922 497.815L484.043 499.937L499.943 484.037L497.821 481.916ZM497.821 476.137C499.417 477.733 499.417 480.32 497.821 481.916L499.943 484.037C502.71 481.27 502.71 476.783 499.943 474.016L497.821 476.137ZM422.617 400.933L497.821 476.137L499.943 474.016L424.738 398.811L422.617 400.933ZM429.339 380.819C427.043 384.477 424.598 388.03 422.011 391.471L424.409 393.274C427.046 389.766 429.54 386.143 431.88 382.414L429.339 380.819ZM535.734 421.016L438.368 377.991L437.155 380.735L534.521 423.76L535.734 421.016ZM541.123 418.93C540.211 420.994 537.798 421.928 535.734 421.016L534.521 423.76C538.101 425.342 542.285 423.722 543.867 420.142L541.123 418.93ZM550.211 398.363L541.123 418.93L543.867 420.142L552.955 399.575L550.211 398.363ZM548.125 392.974C550.189 393.886 551.123 396.299 550.211 398.363L552.955 399.575C554.537 395.996 552.918 391.812 549.338 390.23L548.125 392.974ZM450.858 349.993L548.125 392.974L549.338 390.23L452.071 347.249L450.858 349.993ZM451.093 321.555C450.12 328.316 448.705 334.935 446.879 341.38L449.765 342.198C451.628 335.625 453.07 328.876 454.062 321.982L451.093 321.555ZM564.414 315.308H458.21V318.308H564.414V315.308ZM568.5 311.222C568.5 313.479 566.671 315.308 564.414 315.308V318.308C568.327 318.308 571.5 315.136 571.5 311.222H568.5ZM568.5 288.737V311.222H571.5V288.737H568.5ZM564.414 284.65C566.671 284.65 568.5 286.48 568.5 288.737H571.5C571.5 284.823 568.327 281.65 564.414 281.65V284.65ZM458.33 284.65H564.414V281.65H458.33V284.65ZM448.307 263.146C449.522 268.128 450.493 273.205 451.207 278.365L454.179 277.954C453.451 272.693 452.46 267.515 451.221 262.435L448.307 263.146ZM550.893 214.954L452.568 254.7L453.692 257.482L552.018 217.736L550.893 214.954ZM553.15 209.635C553.996 211.727 552.986 214.109 550.893 214.954L552.018 217.736C555.646 216.269 557.398 212.139 555.932 208.51L553.15 209.635ZM544.723 188.788L553.15 209.635L555.932 208.51L547.505 187.663L544.723 188.788ZM539.404 186.531C541.496 185.685 543.878 186.695 544.723 188.788L547.505 187.663C546.038 184.035 541.908 182.283 538.279 183.749L539.404 186.531ZM441.182 226.235L539.404 186.531L538.279 183.749L440.057 223.454L441.182 226.235ZM422.488 208.274C426.01 213.01 429.265 217.956 432.23 223.09L434.828 221.589C431.804 216.355 428.486 211.312 424.895 206.484L422.488 208.274ZM497.901 124.059L423.117 198.844L425.238 200.965L500.023 126.18L497.901 124.059ZM497.901 118.28C499.497 119.876 499.497 122.463 497.901 124.059L500.023 126.18C502.79 123.413 502.79 118.926 500.023 116.159L497.901 118.28ZM482.002 102.381L497.901 118.28L500.023 116.159L484.123 100.259L482.002 102.381ZM476.223 102.381C477.819 100.785 480.406 100.785 482.002 102.381L484.123 100.259C481.355 97.4919 476.869 97.4919 474.101 100.259L476.223 102.381ZM401.604 176.999L476.223 102.381L474.101 100.259L399.483 174.878L401.604 176.999ZM380.897 169.82C384.754 172.243 388.496 174.834 392.112 177.583L393.927 175.194C390.241 172.392 386.426 169.751 382.493 167.279L380.897 169.82ZM420.738 64.1946L378.072 160.794L380.816 162.006L423.482 65.4067L420.738 64.1946ZM418.651 58.8058C420.715 59.7176 421.649 62.1302 420.738 64.1946L423.482 65.4067C425.063 61.8267 423.443 57.6427 419.863 56.0615L418.651 58.8058ZM398.082 49.7211L418.651 58.8058L419.863 56.0615L399.294 46.9768L398.082 49.7211ZM392.693 51.808C393.605 49.7436 396.018 48.8093 398.082 49.7211L399.294 46.9768C395.714 45.3956 391.53 47.016 389.949 50.596L392.693 51.808ZM350.085 148.277L392.693 51.808L389.949 50.5959L347.341 147.065L350.085 148.277ZM321.558 148.019C328.349 148.996 334.996 150.419 341.468 152.257L342.287 149.371C335.688 147.497 328.91 146.046 321.986 145.049L321.558 148.019ZM315.312 35.5862V140.902H318.312V35.5862H315.312ZM311.226 31.5C313.483 31.5 315.312 33.3295 315.312 35.5862H318.312C318.312 31.6726 315.139 28.5 311.226 28.5V31.5ZM321.986 145.049C319.877 144.746 318.312 142.973 318.312 140.902H315.312C315.312 144.524 318.032 147.511 321.558 148.019L321.986 145.049ZM382.493 167.279C380.692 166.148 379.981 163.897 380.816 162.006L378.072 160.794C376.611 164.102 377.885 167.928 380.897 169.82L382.493 167.279ZM424.895 206.484C423.626 204.779 423.777 202.426 425.238 200.965L423.117 198.844C420.562 201.399 420.367 205.423 422.488 208.274L424.895 206.484ZM451.221 262.435C450.717 260.367 451.775 258.257 453.692 257.482L452.568 254.7C449.214 256.056 447.464 259.69 448.307 263.146L451.221 262.435ZM454.062 321.982C454.366 319.873 456.139 318.308 458.21 318.308V315.308C454.588 315.308 451.6 318.029 451.093 321.555L454.062 321.982ZM431.88 382.414C433.011 380.611 435.263 379.899 437.155 380.735L438.368 377.991C435.058 376.529 431.23 377.805 429.339 380.819L431.88 382.414ZM393.28 424.403C394.986 423.121 397.351 423.266 398.818 424.733L400.939 422.611C398.373 420.046 394.329 419.861 391.477 422.005L393.28 424.403ZM337.333 451.056C339.406 450.541 341.527 451.599 342.305 453.522L345.086 452.398C343.726 449.033 340.073 447.284 336.609 448.145L337.333 451.056ZM144.936 277.954C144.643 280.073 142.865 281.65 140.785 281.65V284.65C144.423 284.65 147.417 281.908 147.908 278.365L144.936 277.954ZM452.071 347.249C450.172 346.41 449.183 344.254 449.765 342.198L446.879 341.38C445.905 344.816 447.537 348.525 450.858 349.993L452.071 347.249ZM347.341 147.065C346.501 148.965 344.344 149.955 342.287 149.371L341.468 152.257C344.905 153.233 348.617 151.601 350.085 148.277L347.341 147.065ZM277.957 454.176C280.077 454.469 281.654 456.247 281.654 458.326H284.654C284.654 454.689 281.912 451.694 278.369 451.204L277.957 454.176ZM166.912 217.212C165.784 219.025 163.525 219.744 161.627 218.906L160.415 221.65C163.735 223.117 167.574 221.828 169.459 218.797L166.912 217.212ZM424.738 398.811C423.272 397.345 423.126 394.98 424.409 393.274L422.011 391.471C419.867 394.323 420.052 398.367 422.617 400.933L424.738 398.811ZM399.483 174.878C398.01 176.351 395.633 176.491 393.927 175.194L392.112 177.583C394.964 179.75 399.028 179.575 401.604 176.999L399.483 174.878ZM217.338 432.276C219.153 433.402 219.874 435.662 219.035 437.561L221.779 438.774C223.246 435.452 221.954 431.61 218.92 429.727L217.338 432.276ZM205.837 174.703C204.132 175.985 201.767 175.84 200.3 174.373L198.179 176.495C200.744 179.06 204.788 179.245 207.64 177.101L205.837 174.703ZM376.259 439.705C375.484 437.787 376.268 435.558 378.107 434.485L376.595 431.894C373.52 433.687 372.121 437.474 373.478 440.829L376.259 439.705ZM440.057 223.454C438.132 224.232 435.896 223.44 434.828 221.589L432.23 223.09C434.016 226.183 437.815 227.596 441.182 226.235L440.057 223.454ZM175.198 393.924C176.494 395.63 176.354 398.006 174.882 399.479L177.003 401.6C179.579 399.025 179.754 394.961 177.586 392.109L175.198 393.924ZM262.275 147.93C260.206 148.437 258.093 147.38 257.317 145.461L254.536 146.585C255.892 149.942 259.531 151.692 262.989 150.844L262.275 147.93ZM318.312 458.206C318.312 456.135 319.877 454.362 321.986 454.059L321.558 451.089C318.032 451.597 315.312 454.584 315.312 458.206H318.312ZM458.33 281.65C456.25 281.65 454.472 280.073 454.179 277.954L451.207 278.365C451.698 281.908 454.692 284.65 458.33 284.65V281.65ZM148.096 337.493C148.614 339.567 147.557 341.691 145.631 342.469L146.755 345.251C150.123 343.889 151.872 340.232 151.007 336.766L148.096 337.493ZM159.494 376.405C161.411 375.63 163.638 376.412 164.712 378.249L167.301 376.734C165.506 373.664 161.722 372.269 158.37 373.624L159.494 376.405ZM252.609 452.278C253.445 450.385 255.589 449.395 257.64 449.966L258.444 447.075C255.016 446.122 251.327 447.756 249.865 451.066L252.609 452.278ZM140.905 318.308C142.976 318.308 144.749 319.873 145.053 321.982L148.022 321.555C147.515 318.029 144.528 315.308 140.905 315.308V318.308ZM200.968 425.235C202.429 423.774 204.782 423.623 206.488 424.891L208.278 422.484C205.426 420.363 201.402 420.558 198.847 423.113L200.968 425.235ZM174.379 200.294C175.846 201.761 175.991 204.126 174.708 205.831L177.106 207.634C179.251 204.782 179.066 200.738 176.5 198.173L174.379 200.294ZM146.874 252.464C148.767 253.3 149.757 255.446 149.185 257.498L152.074 258.304C153.031 254.875 151.398 251.183 148.087 249.72L146.874 252.464ZM223.307 159.141C224.085 161.064 223.294 163.298 221.447 164.368L222.95 166.964C226.039 165.176 227.448 161.381 226.089 158.017L223.307 159.141ZM281.654 140.782C281.654 142.861 280.077 144.639 277.957 144.933L278.369 147.904C281.912 147.414 284.654 144.419 284.654 140.782H281.654Z" fill="#03AA89"/>
</svg>
