<svg width="32" height="32" viewBox="0 0 32 32" fill="none" xmlns="http://www.w3.org/2000/svg">
<path d="M10.532 5.10019L13.318 8.36019L13.017 8.69619C7.283 9.98219 3 15.1032 3 21.2252C3 26.6072 7.368 30.9752 12.75 30.9752H18.92C24.302 30.9752 28.67 26.6082 28.67 21.2262C28.68 15.1032 24.397 9.98219 18.663 8.69619C18.6863 8.48487 18.6481 8.27132 18.553 8.08119L20.923 5.36819L21.076 5.13219C21.2547 4.74251 21.3004 4.30494 21.2061 3.88676C21.1118 3.46858 20.8827 3.09296 20.5541 2.81766C20.2256 2.54235 19.8156 2.38262 19.3874 2.36302C18.9592 2.34342 18.5364 2.46505 18.184 2.70919L17.341 1.70919C17.1519 1.49757 16.9203 1.32817 16.6614 1.21203C16.4024 1.0959 16.1219 1.03563 15.8381 1.03516C15.5543 1.03469 15.2736 1.09402 15.0143 1.2093C14.7549 1.32457 14.5228 1.4932 14.333 1.70419L13.45 2.69019C13.0985 2.44097 12.6748 2.3145 12.2442 2.33033C11.8137 2.34617 11.4003 2.50343 11.0681 2.77779C10.7359 3.05215 10.5034 3.42833 10.4065 3.84813C10.3096 4.26793 10.3537 4.70797 10.532 5.10019ZM14.331 6.48519L12.635 4.52519C13.029 4.71504 13.4748 4.76896 13.9028 4.67849C14.3307 4.58802 14.7165 4.35827 15 4.02519L15.8 2.98719L16.688 4.03919C16.9649 4.36116 17.3384 4.58506 17.7528 4.6775C18.1673 4.76995 18.6005 4.72599 18.988 4.55219L17.3 6.48519H14.331ZM5 21.2252C5 15.2372 9.852 10.3852 15.84 10.3852C21.828 10.3852 26.68 15.2372 26.67 21.2232V21.2252C26.6692 23.2804 25.8524 25.2511 24.3992 26.7044C22.946 28.1576 20.9752 28.9744 18.92 28.9752H12.75C10.6948 28.9744 8.72404 28.1576 7.2708 26.7044C5.81757 25.2511 5.0008 23.2804 5 21.2252Z" fill="#09090A"/>
<path d="M14.331 6.48519L12.635 4.52519C13.029 4.71504 13.4748 4.76896 13.9028 4.67849C14.3307 4.58802 14.7165 4.35827 15 4.02519L15.8 2.98719L16.688 4.03919C16.9649 4.36116 17.3384 4.58506 17.7528 4.6775C18.1673 4.76995 18.6005 4.72599 18.988 4.55219L17.3 6.48519H14.331Z" fill="#09090A"/>
<path d="M5 21.2252C5 15.2372 9.852 10.3852 15.84 10.3852C21.828 10.3852 26.68 15.2372 26.67 21.2232V21.2252C26.6692 23.2804 25.8524 25.2511 24.3992 26.7044C22.946 28.1576 20.9752 28.9744 18.92 28.9752H12.75C10.6948 28.9744 8.72404 28.1576 7.2708 26.7044C5.81757 25.2511 5.0008 23.2804 5 21.2252Z" fill="#09090A"/>
<path d="M16 18.4638H16.1011C18.2671 18.5217 20 20.2899 20 22.4638C20 24.3188 18.7437 25.8696 17.0397 26.3333V27.9565C17.0397 28.5362 16.5776 29 16 29C15.4224 29 14.9603 28.5362 14.9603 27.9565V26.3333C14.1118 26.1044 13.3621 25.6013 12.827 24.9019C12.2919 24.2024 12.0013 23.3456 12 22.4638C12 21.8841 12.4621 21.4203 13.0397 21.4203C13.6173 21.4203 14.0794 21.8841 14.0794 22.4638C14.0794 23.5362 14.9314 24.3913 15.9856 24.3913C17.0397 24.3913 17.9061 23.5217 17.9061 22.4638C17.9061 21.4058 17.0397 20.5362 15.9856 20.5362H15.8845C14.8457 20.5079 13.8588 20.0743 13.1334 19.3274C12.4081 18.5805 12.0015 17.5792 12 16.5362C12 14.6812 13.2563 13.1304 14.9603 12.6667V11.0435C14.9603 10.4638 15.4224 10 16 10C16.5776 10 17.0397 10.4638 17.0397 11.0435V12.6667C18.7437 13.1304 20 14.6812 20 16.5362C20 17.1159 19.5379 17.5797 18.9603 17.5797C18.3827 17.5797 17.9206 17.1159 17.9206 16.5362C17.9206 15.4783 17.0542 14.6087 16 14.6087C14.9458 14.6087 14.0794 15.4783 14.0794 16.5362C14.0794 17.5942 14.9458 18.4638 16 18.4638Z" fill="#AAAEDF"/>
</svg>
