<svg width="50" height="50" viewBox="0 0 50 50" fill="none" xmlns="http://www.w3.org/2000/svg">
<path d="M48.6175 25.3358C41.3252 27.1645 36.37 29.2197 32.7987 32.7957C29.2277 36.3713 27.1777 41.3299 25.3484 48.6178C25.3286 48.6909 25.2854 48.7557 25.2253 48.8022C25.1643 48.8494 25.0892 48.875 25.0119 48.875C24.9345 48.875 24.8595 48.8494 24.7985 48.8022L24.1107 49.6925L24.7985 48.8022C24.7383 48.7557 24.6951 48.6909 24.6754 48.6178C22.8458 41.329 20.7896 36.3705 17.2124 32.795C13.6353 29.2196 8.67463 27.1644 1.38245 25.3358C1.30897 25.3159 1.24406 25.2726 1.1976 25.2125C1.15052 25.1517 1.125 25.0769 1.125 25C1.125 24.9231 1.15052 24.8483 1.1976 24.7875C1.24406 24.7274 1.30897 24.6841 1.38245 24.6642C8.67463 22.8356 13.6353 20.7805 17.2124 17.205C20.7896 13.6295 22.8458 8.67103 24.6754 1.38217C24.6951 1.30908 24.7383 1.2443 24.7985 1.19781C24.8596 1.15063 24.9346 1.125 25.0119 1.125C25.0891 1.125 25.1642 1.15063 25.2253 1.19781C25.2854 1.2443 25.3286 1.30909 25.3484 1.38218C27.1777 8.67011 29.2277 13.6287 32.7987 17.2043C36.37 20.7803 41.3252 22.8356 48.6175 24.6642C48.691 24.6841 48.756 24.7274 48.8024 24.7875C48.8495 24.8483 48.875 24.9231 48.875 25C48.875 25.0769 48.8495 25.1517 48.8024 25.2126C48.756 25.2726 48.691 25.3159 48.6175 25.3358Z" fill="#FFECD0" stroke="#26103D" stroke-width="2.25"/>
</svg>
