<svg width="322" height="322" viewBox="0 0 322 322" fill="none" xmlns="http://www.w3.org/2000/svg">
<g clip-path="url(#clip0_3671_29218)" filter="url(#filter0_d_3671_29218)">
<path d="M306.994 170.483L306.994 170.481C307.056 169.669 307.434 168.968 307.893 168.391C308.354 167.813 308.956 167.282 309.604 166.794C310.84 165.863 312.426 164.957 313.925 164.101L314.108 163.996C315.705 163.083 317.187 162.226 318.276 161.373C318.816 160.949 319.206 160.567 319.452 160.228C319.697 159.892 319.75 159.669 319.75 159.534C319.75 159.399 319.697 159.177 319.452 158.84C319.206 158.501 318.816 158.119 318.276 157.696C317.188 156.843 315.705 155.986 314.108 155.073L313.927 154.97C312.427 154.114 310.841 153.207 309.603 152.275C308.956 151.788 308.354 151.257 307.893 150.678C307.434 150.1 307.056 149.399 306.994 148.587L306.994 148.586C306.934 147.771 307.2 147.018 307.568 146.373C307.937 145.726 308.454 145.107 309.022 144.525C310.122 143.399 311.582 142.249 312.956 141.168L313.065 141.082C314.511 139.943 315.851 138.88 316.804 137.882C317.277 137.386 317.606 136.954 317.8 136.587C317.992 136.223 318.01 136.003 317.992 135.88C317.972 135.749 317.887 135.538 317.596 135.242C317.302 134.944 316.86 134.625 316.263 134.286C315.061 133.605 313.467 132.978 311.752 132.312L311.568 132.24C309.955 131.614 308.247 130.952 306.883 130.211C306.17 129.825 305.496 129.388 304.954 128.883C304.415 128.379 303.937 127.741 303.756 126.947L303.756 126.947C303.576 126.151 303.727 125.367 303.995 124.675C304.263 123.981 304.682 123.292 305.157 122.633C306.075 121.357 307.344 120.005 308.538 118.732L308.639 118.624C309.899 117.282 311.065 116.029 311.856 114.899C312.25 114.338 312.51 113.861 312.647 113.469C312.783 113.079 312.767 112.859 312.73 112.739C312.692 112.614 312.577 112.42 312.246 112.172C311.912 111.923 311.428 111.675 310.787 111.431C309.497 110.941 307.829 110.562 306.033 110.162L305.864 110.125C304.168 109.748 302.37 109.348 300.901 108.815C300.137 108.539 299.404 108.206 298.792 107.785C298.181 107.365 297.614 106.803 297.315 106.044C297.017 105.285 297.05 104.487 297.211 103.763C297.373 103.038 297.684 102.295 298.055 101.573C298.769 100.182 299.816 98.6632 300.803 97.2316L300.898 97.0937C301.941 95.5788 302.906 94.1662 303.518 92.9293C303.822 92.3146 304.007 91.8037 304.083 91.3937C304.158 90.9871 304.109 90.7678 304.052 90.6507C303.996 90.5338 303.855 90.3591 303.49 90.1645C303.122 89.9683 302.606 89.7953 301.936 89.6506C300.586 89.3592 298.88 89.2344 297.044 89.108L296.873 89.0963C295.139 88.9772 293.3 88.8509 291.768 88.5447C290.972 88.3856 290.197 88.1669 289.529 87.8426C288.862 87.5189 288.218 87.0485 287.809 86.3422C287.401 85.6362 287.315 84.8429 287.367 84.1039C287.419 83.3632 287.615 82.5824 287.874 81.8132C288.373 80.3326 289.179 78.6759 289.94 77.1138L290.016 76.9591C290.821 75.305 291.564 73.7635 291.984 72.4486C292.192 71.7952 292.3 71.2619 292.313 70.845C292.326 70.4313 292.245 70.2215 292.172 70.1141C292.099 70.0067 291.933 69.8549 291.543 69.7167C291.149 69.5773 290.613 69.483 289.929 69.4396C288.55 69.3521 286.844 69.4825 285.009 69.6307L284.836 69.6447C283.104 69.7848 281.267 69.9334 279.708 69.859C278.897 69.8203 278.098 69.7197 277.389 69.4986C276.683 69.2782 275.975 68.9094 275.466 68.272C274.958 67.6348 274.755 66.8633 274.696 66.1252C274.637 65.3853 274.715 64.5842 274.857 63.7851C275.129 62.2459 275.681 60.4861 276.201 58.8269L276.251 58.6657C276.801 56.9098 277.306 55.2746 277.526 53.9117C277.635 53.2344 277.662 52.691 277.614 52.2769C277.566 51.8658 277.455 51.6713 277.367 51.577C277.28 51.4829 277.094 51.3576 276.687 51.2789C276.278 51.1997 275.734 51.186 275.05 51.2446C273.674 51.3625 272.004 51.744 270.212 52.1618L270.045 52.2005C268.352 52.5954 266.556 53.0142 265.001 53.1714C264.194 53.253 263.389 53.2716 262.656 53.158C261.924 53.0447 261.17 52.785 260.572 52.2302C259.975 51.6755 259.66 50.9426 259.493 50.2216C259.326 49.4988 259.284 48.6949 259.306 47.8837C259.347 46.3208 259.631 44.4981 259.899 42.7795L259.925 42.6136C260.208 40.7952 260.465 39.1028 260.48 37.7221C260.488 37.0359 260.434 36.4945 260.325 36.0921C260.216 35.6926 260.078 35.5172 259.978 35.4375C259.878 35.3578 259.677 35.2615 259.263 35.2441C258.846 35.2265 258.306 35.2937 257.639 35.453C256.295 35.7735 254.701 36.3979 252.99 37.0766L252.83 37.1398C251.214 37.7811 249.501 38.461 247.986 38.8469C247.2 39.0473 246.407 39.1851 245.665 39.1818C244.926 39.1785 244.141 39.0341 243.468 38.5746C242.795 38.115 242.375 37.4369 242.103 36.749C241.83 36.0592 241.669 35.2704 241.57 34.465C241.378 32.9134 241.388 31.0685 241.397 29.3288L241.398 29.1602C241.408 27.3195 241.409 25.6072 241.219 24.2394C241.125 23.5596 240.991 23.0323 240.824 22.6509C240.657 22.2721 240.494 22.12 240.385 22.0567C240.275 21.9932 240.061 21.928 239.649 21.9725C239.235 22.0174 238.711 22.1644 238.074 22.4214C236.793 22.9385 235.309 23.7933 233.718 24.7189L233.57 24.8048C232.067 25.6794 230.473 26.6067 229.033 27.2137C228.285 27.529 227.522 27.7833 226.788 27.8906C226.056 27.9976 225.259 27.972 224.525 27.6182C223.792 27.2644 223.275 26.6566 222.903 26.0174C222.53 25.3763 222.254 24.6204 222.035 23.8389C221.613 22.3328 221.346 20.5063 221.095 18.7841L221.071 18.6191C220.805 16.7975 220.55 15.104 220.158 13.7799C219.963 13.1217 219.752 12.6203 219.529 12.2683C219.308 11.9186 219.125 11.7932 219.008 11.7474C218.892 11.7017 218.673 11.6691 218.273 11.7749C217.871 11.8815 217.376 12.1054 216.786 12.4552C215.599 13.1591 214.262 14.2272 212.829 15.3815L212.711 15.4762C211.352 16.5705 209.909 17.7323 208.569 18.5513C207.876 18.975 207.158 19.3406 206.446 19.556C205.736 19.7709 204.943 19.8632 204.163 19.6231L204.163 19.623C203.385 19.3832 202.784 18.8593 202.322 18.2831C201.858 17.7054 201.473 16.9997 201.141 16.2603C200.504 14.8428 199.971 13.0884 199.468 11.4319L199.411 11.247C198.876 9.48686 198.371 7.85155 197.782 6.60169C197.49 5.98057 197.205 5.51635 196.93 5.20118C196.658 4.88852 196.454 4.78877 196.325 4.75942C196.204 4.73213 195.984 4.73299 195.606 4.89731C195.225 5.06308 194.769 5.35891 194.239 5.79347C193.171 6.66785 192.01 7.92459 190.766 9.2811L190.669 9.3866C189.488 10.6742 188.233 12.0419 187.029 13.0542C186.406 13.5771 185.75 14.0462 185.078 14.3658C184.408 14.6847 183.637 14.8945 182.83 14.774L182.83 14.774C182.024 14.6535 181.352 14.2253 180.81 13.7248C180.265 13.2229 179.779 12.5828 179.341 11.9016C178.501 10.5971 177.714 8.94475 176.97 7.38405L176.884 7.20376C176.093 5.54351 175.349 4.00224 174.58 2.85438C174.198 2.28397 173.846 1.8675 173.527 1.59679C173.21 1.32866 172.993 1.25948 172.859 1.24942C172.737 1.2404 172.52 1.27341 172.17 1.4927C171.819 1.71343 171.413 2.07389 170.953 2.58275C170.028 3.60663 169.066 5.02239 168.037 6.54909L167.964 6.65804C166.985 8.10997 165.945 9.65326 164.9 10.8359C164.362 11.4455 163.782 12.0067 163.164 12.4223C162.547 12.837 161.816 13.158 160.999 13.158C160.182 13.158 159.45 12.837 158.834 12.4223C158.216 12.0067 157.636 11.4455 157.097 10.836C156.053 9.6531 155.012 8.10946 154.033 6.65727L153.96 6.54914C152.931 5.02243 151.969 3.60664 151.044 2.58271C150.584 2.07382 150.178 1.71336 149.827 1.49262C149.478 1.2736 149.261 1.2405 149.139 1.24938C149.006 1.25927 148.789 1.32804 148.472 1.59657C148.153 1.8673 147.802 2.28381 147.42 2.85428C146.651 4.00225 145.907 5.5436 145.115 7.20389L145.03 7.38214C144.285 8.9435 143.497 10.5967 142.657 11.9017C142.219 12.583 141.733 13.223 141.188 13.7249C140.645 14.2254 139.973 14.6536 139.168 14.774L139.167 14.774C138.36 14.8945 137.59 14.6848 136.919 14.3659C136.247 14.0463 135.591 13.5772 134.969 13.0542C133.764 12.0417 132.509 10.6736 131.328 9.38574L131.232 9.28105C129.987 7.92452 128.826 6.6678 127.759 5.79342C127.228 5.35887 126.773 5.06306 126.392 4.8973C126.014 4.73294 125.794 4.73213 125.673 4.75945C125.543 4.78886 125.339 4.88875 125.067 5.20139C124.792 5.51656 124.507 5.98076 124.214 6.60185C123.626 7.85164 123.12 9.48692 122.585 11.247L122.528 11.4341C122.025 13.0899 121.492 14.8433 120.856 16.2602C120.524 16.9995 120.139 17.7051 119.676 18.2829C119.214 18.8588 118.614 19.3825 117.836 19.6226L306.994 170.483ZM306.994 170.483C306.934 171.297 307.2 172.05 307.568 172.696C307.937 173.342 308.453 173.962 309.022 174.544C310.123 175.672 311.583 176.822 312.958 177.905L313.064 177.989C314.511 179.128 315.851 180.192 316.804 181.19C317.277 181.686 317.606 182.118 317.8 182.485C317.993 182.849 318.01 183.068 317.992 183.19M306.994 170.483L317.992 183.19M317.992 183.19C317.972 183.321 317.887 183.532 317.596 183.828C317.302 184.126 316.86 184.445 316.263 184.784C315.061 185.465 313.467 186.092 311.752 186.758L311.567 186.83C309.954 187.456 308.247 188.118 306.883 188.858C306.171 189.244 305.496 189.681 304.955 190.186C304.415 190.689 303.937 191.327 303.756 192.121L303.756 192.122C303.576 192.917 303.727 193.701 303.995 194.393C304.263 195.087 304.682 195.776 305.157 196.436C306.076 197.712 307.344 199.064 308.539 200.338L308.639 200.445C309.899 201.787 311.065 203.04 311.856 204.17C312.25 204.731 312.51 205.208 312.647 205.6C312.783 205.99 312.767 206.21 312.73 206.329M317.992 183.19L312.73 206.329M312.73 206.329C312.691 206.454 312.577 206.65 312.245 206.898C311.91 207.148 311.425 207.397 310.784 207.642C309.493 208.135 307.824 208.516 306.028 208.918L305.838 208.96C304.148 209.338 302.359 209.737 300.898 210.265C300.135 210.541 299.403 210.872 298.791 211.29C298.182 211.707 297.614 212.266 297.316 213.023C297.017 213.781 297.052 214.578 297.214 215.298C297.376 216.021 297.687 216.763 298.058 217.485C298.771 218.874 299.815 220.394 300.799 221.827L300.897 221.97C301.94 223.488 302.904 224.904 303.515 226.143C303.82 226.759 304.005 227.27 304.081 227.68C304.156 228.087 304.107 228.304 304.053 228.417C303.998 228.53 303.859 228.703 303.493 228.897C303.125 229.093 302.609 229.265 301.937 229.41C300.586 229.702 298.878 229.828 297.041 229.957L296.877 229.969C295.14 230.09 293.297 230.219 291.762 230.527C290.967 230.686 290.192 230.906 289.525 231.23C288.86 231.553 288.215 232.023 287.808 232.729C287.402 233.435 287.317 234.227 287.37 234.965C287.422 235.704 287.619 236.484 287.878 237.253C288.376 238.734 289.181 240.391 289.94 241.954L290.016 242.109C290.82 243.765 291.561 245.308 291.981 246.623C292.189 247.277 292.297 247.811 292.311 248.227C292.324 248.641 292.243 248.85 292.172 248.955C292.1 249.059 291.937 249.21 291.547 249.348C291.154 249.486 290.617 249.58 289.932 249.624C288.553 249.711 286.845 249.581 285.009 249.434L284.843 249.421C283.107 249.282 281.267 249.134 279.704 249.21C278.894 249.249 278.095 249.35 277.387 249.572C276.68 249.792 275.973 250.161 275.465 250.8C274.958 251.437 274.756 252.208 274.698 252.946C274.64 253.685 274.719 254.486 274.86 255.285C275.133 256.822 275.683 258.58 276.202 260.238L276.254 260.404C276.803 262.16 277.307 263.795 277.526 265.158C277.635 265.836 277.662 266.379 277.614 266.793C277.565 267.205 277.454 267.399 277.367 267.493C277.28 267.587 277.095 267.712 276.688 267.79C276.279 267.87 275.735 267.883 275.051 267.824C273.675 267.706 272.007 267.325 270.214 266.907L270.05 266.868C268.356 266.473 266.559 266.054 265.003 265.897C264.195 265.815 263.39 265.797 262.657 265.91C261.925 266.023 261.171 266.283 260.573 266.838C259.975 267.392 259.66 268.125 259.493 268.846C259.325 269.569 259.284 270.373 259.305 271.184C259.347 272.746 259.631 274.567 259.9 276.284L259.926 276.454C260.21 278.272 260.467 279.964 260.483 281.345C260.491 282.031 260.436 282.572 260.327 282.974C260.218 283.374 260.079 283.55 259.979 283.63C259.877 283.711 259.675 283.807 259.261 283.825C258.844 283.843 258.304 283.775 257.637 283.616C256.294 283.295 254.701 282.67 252.99 281.991L252.832 281.928C251.216 281.286 249.503 280.606 247.989 280.22C247.202 280.019 246.409 279.881 245.667 279.885C244.926 279.889 244.141 280.034 243.468 280.494C242.795 280.954 242.374 281.632 242.101 282.32C241.828 283.01 241.668 283.799 241.568 284.605C241.377 286.155 241.388 287.998 241.399 289.736L241.4 289.907C241.41 291.747 241.413 293.458 241.223 294.826C241.129 295.505 240.995 296.033 240.827 296.414C240.66 296.793 240.496 296.947 240.384 297.012C240.272 297.077 240.057 297.142 239.646 297.098C239.231 297.053 238.708 296.907 238.072 296.65C236.792 296.133 235.31 295.277 233.721 294.351L233.574 294.265C232.072 293.389 230.479 292.461 229.038 291.853C228.29 291.537 227.526 291.283 226.791 291.176C226.058 291.069 225.26 291.096 224.526 291.45C223.791 291.804 223.273 292.412 222.9 293.052C222.526 293.694 222.25 294.45 222.032 295.232C221.611 296.736 221.347 298.559 221.099 300.279L221.074 300.449C220.81 302.27 220.558 303.962 220.166 305.285C219.971 305.942 219.76 306.444 219.537 306.796C219.315 307.145 219.13 307.273 219.008 307.321C218.886 307.369 218.664 307.401 218.264 307.296C217.861 307.19 217.365 306.966 216.775 306.617C215.588 305.913 214.252 304.845 212.82 303.69L212.691 303.586C211.338 302.494 209.901 301.335 208.567 300.517C207.874 300.093 207.156 299.728 206.445 299.512C205.735 299.298 204.943 299.206 204.164 299.447C203.385 299.686 202.784 300.21 202.322 300.786C201.858 301.364 201.473 302.07 201.141 302.809C200.504 304.226 199.971 305.981 199.468 307.637L199.411 307.822C198.876 309.582 198.371 311.218 197.782 312.467C197.49 313.088 197.205 313.552 196.93 313.867C196.658 314.18 196.455 314.279 196.326 314.309C196.205 314.336 195.984 314.336 195.606 314.171C195.225 314.005 194.769 313.709 194.239 313.275C193.171 312.4 192.01 311.144 190.766 309.787L190.669 309.681C189.488 308.394 188.233 307.026 187.029 306.014C186.406 305.491 185.75 305.022 185.078 304.702C184.408 304.383 183.637 304.174 182.83 304.294C182.025 304.415 181.352 304.843 180.81 305.343C180.265 305.845 179.779 306.485 179.341 307.167C178.5 308.471 177.712 310.124 176.968 311.686L176.883 311.864C176.091 313.525 175.347 315.066 174.578 316.214C174.196 316.784 173.845 317.201 173.526 317.472C173.209 317.74 172.992 317.809 172.859 317.819C172.736 317.828 172.519 317.794 172.17 317.575C171.819 317.355 171.413 316.994 170.953 316.485C170.028 315.462 169.066 314.046 168.037 312.519L167.964 312.41C166.985 310.958 165.945 309.415 164.9 308.232C164.362 307.623 163.782 307.061 163.164 306.646C162.547 306.231 161.816 305.91 160.999 305.91C160.182 305.91 159.45 306.231 158.834 306.646C158.216 307.061 157.636 307.623 157.097 308.232C156.053 309.415 155.012 310.959 154.033 312.411L153.96 312.519C152.931 314.046 151.969 315.462 151.044 316.485C150.584 316.994 150.178 317.355 149.827 317.576C149.478 317.795 149.261 317.828 149.139 317.819L312.73 206.329ZM8.07491 206.697C8.64865 208.559 12.2352 209.357 15.8212 210.154C19.3228 210.933 22.8238 211.712 23.519 213.481C24.2144 215.251 22.1776 218.207 20.1413 221.162C18.0575 224.186 15.9743 227.209 16.8195 228.96C17.6651 230.712 21.3325 230.965 24.9986 231.218C28.5785 231.464 32.1573 231.711 33.1064 233.353C34.0556 234.996 32.4853 238.22 30.9147 241.446C29.3065 244.749 27.6978 248.053 28.7934 249.659C29.8892 251.265 33.554 250.969 37.2176 250.673C40.7941 250.384 44.3696 250.095 45.5529 251.576C46.7369 253.058 45.663 256.485 44.5893 259.911C43.4907 263.417 42.3922 266.922 43.7127 268.343C45.0334 269.765 48.6123 268.93 52.1908 268.095C55.6875 267.28 59.1838 266.465 60.5729 267.754C61.9621 269.043 61.4086 272.591 60.8552 276.139C60.289 279.768 59.7228 283.398 61.2378 284.607C62.7534 285.817 66.171 284.461 69.5876 283.106C72.9244 281.782 76.2603 280.459 77.8231 281.526C79.3863 282.593 79.3674 286.185 79.3485 289.776C79.3292 293.451 79.3099 297.125 80.9858 298.094C82.6622 299.063 85.84 297.214 89.0174 295.366C92.1212 293.56 95.2246 291.755 96.9278 292.576C98.6315 293.397 99.1506 296.952 99.6696 300.506C100.201 304.142 100.732 307.777 102.531 308.484C104.328 309.19 107.179 306.894 110.036 304.593C112.837 302.338 115.643 300.078 117.465 300.64C119.264 301.194 120.303 304.612 121.344 308.038C122.415 311.562 123.489 315.094 125.395 315.528C127.27 315.953 129.739 313.262 132.216 310.562L8.07491 206.697ZM8.07491 206.697C7.50712 204.855 10.0093 202.188 12.5173 199.514M8.07491 206.697L12.5173 199.514M125.673 314.309C125.793 314.336 126.013 314.335 126.391 314.171C126.772 314.005 127.228 313.709 127.758 313.275C128.825 312.4 129.986 311.144 131.231 309.787L131.326 309.684C132.507 308.395 133.763 307.027 134.968 306.014C135.591 305.491 136.247 305.022 136.919 304.702C137.59 304.383 138.36 304.174 139.167 304.294L139.168 304.294C139.973 304.415 140.645 304.844 141.186 305.344C141.73 305.846 142.215 306.486 142.653 307.167C143.491 308.469 144.278 310.119 145.021 311.678L145.11 311.864C145.902 313.524 146.647 315.066 147.416 316.213C147.799 316.784 148.151 317.2 148.47 317.471C148.787 317.74 149.005 317.809 149.139 317.819L125.673 314.309ZM125.673 314.309C125.543 314.279 125.339 314.179 125.067 313.867C124.792 313.552 124.507 313.087 124.214 312.466C123.626 311.217 123.12 309.581 122.585 307.821L122.528 307.635C122.025 305.979 121.492 304.225 120.855 302.808C120.523 302.068 120.138 301.363 119.674 300.785C119.212 300.209 118.611 299.685 117.833 299.445C117.053 299.205 116.26 299.297 115.55 299.512C114.838 299.728 114.12 300.093 113.427 300.517C112.088 301.336 110.646 302.498 109.287 303.592L109.168 303.687C107.734 304.842 106.397 305.91 105.21 306.614C104.621 306.963 104.126 307.187 103.723 307.294C103.324 307.399 103.105 307.367 102.988 307.321C102.871 307.275 102.688 307.149 102.466 306.799C102.244 306.447 102.033 305.946 101.838 305.288C101.445 303.963 101.191 302.27 100.924 300.448L100.9 300.282C100.649 298.561 100.382 296.735 99.9607 295.229C99.7419 294.448 99.4656 293.692 99.0927 293.051C98.7209 292.412 98.2045 291.804 97.4707 291.45C96.737 291.096 95.9399 291.071 95.2082 291.178C94.4744 291.285 93.7109 291.539 92.9632 291.854C91.5232 292.462 89.9294 293.389 88.4261 294.263L88.2785 294.349C86.6872 295.275 85.2031 296.13 83.9221 296.647C83.2855 296.904 82.7613 297.051 82.3466 297.096C81.9347 297.14 81.7212 297.075 81.6114 297.012C81.5017 296.948 81.339 296.796 81.1725 296.417C81.0047 296.036 80.8709 295.509 80.7765 294.829C80.5866 293.461 80.5883 291.749 80.5978 289.908L80.5987 289.739C80.608 287.999 80.6178 286.155 80.4261 284.603C80.3267 283.798 80.1664 283.009 79.8934 282.319C79.621 281.631 79.201 280.953 78.5279 280.494C77.855 280.034 77.0706 279.89 76.3308 279.886C75.589 279.883 74.7961 280.021 74.0098 280.221C72.4962 280.607 70.783 281.287 69.1673 281.928L69.0069 281.992C67.296 282.67 65.7017 283.295 64.3582 283.615C63.6905 283.775 63.1504 283.842 62.7336 283.824C62.3197 283.807 62.1177 283.71 62.0177 283.63C61.9177 283.551 61.7792 283.375 61.6707 282.976C61.5614 282.574 61.5075 282.032 61.5153 281.346C61.5309 279.965 61.7875 278.273 62.071 276.455L62.097 276.288C62.3652 274.57 62.6496 272.747 62.6908 271.185C62.7122 270.373 62.671 269.569 62.5032 268.846C62.3358 268.125 62.0208 267.392 61.4233 266.838C60.8257 266.283 60.0714 266.023 59.3399 265.91C58.6064 265.797 57.8017 265.815 56.9942 265.897C55.4393 266.054 53.6435 266.473 51.9501 266.868L51.7842 266.907C49.9917 267.325 48.3228 267.706 46.9466 267.824C46.2626 267.883 45.7184 267.87 45.3087 267.79C44.9019 267.712 44.716 267.587 44.6284 267.492C44.5411 267.398 44.43 267.204 44.3819 266.793C44.3333 266.379 44.3602 265.836 44.4696 265.159C44.6897 263.796 45.1945 262.16 45.7448 260.404L45.7953 260.243C46.3155 258.583 46.8672 256.823 47.1397 255.284C47.2811 254.484 47.3595 253.683 47.3006 252.943C47.2418 252.205 47.0386 251.433 46.5295 250.796C46.0205 250.159 45.3129 249.79 44.6059 249.57C43.8972 249.349 43.0984 249.248 42.2877 249.209C40.7278 249.135 38.8915 249.283 37.1598 249.423L36.9862 249.438C35.152 249.586 33.4457 249.716 32.0679 249.629C31.3833 249.585 30.8476 249.491 30.4546 249.352C30.0646 249.213 29.8992 249.062 29.8261 248.955C29.7528 248.847 29.6718 248.637 29.6852 248.223C29.6986 247.806 29.8059 247.273 30.0146 246.62C30.4347 245.305 31.1769 243.763 31.9821 242.109L32.0575 241.955C32.8181 240.393 33.6249 238.736 34.1231 237.256C34.382 236.487 34.5788 235.706 34.6307 234.966C34.6826 234.227 34.5966 233.434 34.1886 232.728C33.7805 232.022 33.1358 231.551 32.4696 231.228C31.8018 230.904 31.027 230.685 30.2312 230.526C28.6996 230.22 26.8613 230.093 25.1279 229.974L24.9553 229.962C23.1196 229.835 21.4129 229.71 20.0633 229.418C19.3926 229.273 18.8768 229.1 18.5086 228.904C18.1433 228.709 18.0018 228.534 17.9452 228.417C17.8887 228.3 17.8399 228.081 17.9146 227.674C17.99 227.264 18.1756 226.753 18.4795 226.139C19.0913 224.902 20.0557 223.489 21.0995 221.975L21.1953 221.836C22.1817 220.404 23.2283 218.886 23.9427 217.495C24.3136 216.773 24.6248 216.03 24.7866 215.305C24.948 214.581 24.9808 213.784 24.6824 213.024C24.384 212.265 23.8171 211.703 23.2063 211.283C22.5942 210.862 21.8607 210.529 21.0975 210.253C19.6289 209.721 17.8307 209.321 16.1353 208.944L15.966 208.906C14.1704 208.506 12.5026 208.128 11.2127 207.637C10.5717 207.394 10.088 207.145 9.75371 206.896C9.42219 206.649 9.30815 206.454 9.26948 206.329L9.26944 206.329C9.2327 206.209 9.21665 205.989 9.35211 205.599C9.48854 205.207 9.74908 204.73 10.1424 204.169C10.9337 203.039 12.0995 201.786 13.3587 200.444L13.4603 200.336C14.6545 199.063 15.9226 197.711 16.8408 196.435C17.3157 195.776 17.7344 195.087 18.0028 194.393C18.2706 193.701 18.4222 192.917 18.2415 192.122L18.2414 192.121C18.0607 191.327 17.5831 190.689 17.0434 190.185C16.5021 189.68 15.8274 189.243 15.1151 188.857C13.7505 188.116 12.0426 187.454 10.4295 186.828L10.2457 186.757C8.53061 186.091 6.93772 185.463 5.73555 184.783C5.13811 184.444 4.69662 184.125 4.403 183.827C4.11173 183.532 4.02754 183.321 4.00797 183.19L4.00795 183.19C3.98961 183.068 4.00663 182.848 4.19907 182.483C4.39285 182.116 4.72192 181.684 5.19503 181.188C6.14701 180.189 7.48734 179.126 8.93348 177.987L9.04265 177.901C10.4162 176.819 11.8757 175.67 12.9762 174.543C13.5443 173.962 14.0611 173.342 14.4299 172.696C14.798 172.05 15.0642 171.297 15.0039 170.483C14.9439 169.671 14.566 168.969 14.1072 168.392C13.6469 167.813 13.0444 167.282 12.3974 166.794C11.1604 165.863 9.57305 164.956 8.07286 164.099L7.89268 163.996C6.2948 163.083 4.81173 162.226 3.7231 161.373C3.1821 160.949 2.79235 160.567 2.54567 160.228C2.301 159.891 2.24805 159.669 2.24805 159.534C2.24805 159.399 2.30105 159.177 2.54556 158.84C2.7921 158.501 3.18161 158.119 3.72231 157.695C4.81035 156.842 6.29274 155.985 7.89011 155.072L8.07309 154.967C9.57201 154.111 11.1578 153.205 12.3943 152.274C13.0414 151.787 13.644 151.256 14.1046 150.677C14.5637 150.1 14.9422 149.399 15.0037 148.588L15.0039 148.586C15.0643 147.771 14.798 147.018 14.43 146.372C14.0612 145.726 13.5444 145.106 12.9763 144.525C11.8751 143.397 10.4145 142.247 9.04013 141.164L8.93353 141.08C7.48734 139.941 6.14693 138.878 5.19487 137.88C4.7217 137.384 4.39263 136.952 4.19887 136.585C4.00643 136.22 3.98972 136.001 4.00791 135.88L4.008 135.879C4.02765 135.748 4.11209 135.537 4.40331 135.241C4.69692 134.943 5.13839 134.624 5.73576 134.285C6.93783 133.604 8.53065 132.977 10.2457 132.311L10.4317 132.239C12.044 131.613 13.7511 130.951 15.115 130.211C15.8273 129.825 16.5021 129.388 17.0434 128.883C17.5831 128.379 18.0607 127.741 18.2414 126.947L18.2415 126.947C18.4222 126.151 18.2706 125.367 18.0028 124.675C17.7344 123.981 17.3157 123.292 16.8409 122.633C15.9225 121.357 14.6541 120.005 13.4597 118.731L13.3587 118.624C12.0995 117.281 10.9337 116.029 10.1423 114.899C9.74904 114.337 9.48851 113.861 9.35208 113.468C9.21662 113.079 9.23275 112.859 9.26939 112.74L9.26948 112.739C9.30821 112.614 9.42263 112.419 9.75495 112.17C10.0899 111.92 10.5743 111.671 11.2157 111.426C12.5065 110.933 14.1755 110.552 15.9712 110.15L16.1609 110.108C17.8505 109.731 19.6399 109.331 21.1012 108.803C21.8635 108.527 22.5961 108.197 23.2072 107.778C23.8163 107.361 24.3843 106.802 24.6822 106.044C24.9803 105.287 24.9453 104.49 24.7834 103.77C24.6211 103.047 24.31 102.305 23.9395 101.583C23.2265 100.195 22.1832 98.6758 21.1989 97.2427L21.1 97.0986C20.0576 95.5807 19.0939 94.1641 18.4822 92.9253C18.1781 92.3095 17.9923 91.7979 17.9166 91.3881C17.8414 90.9809 17.8905 90.7644 17.945 90.6516C17.9996 90.5387 18.1388 90.3654 18.5046 90.1711C18.8729 89.9754 19.3893 89.8028 20.0607 89.6579C21.4115 89.3663 23.1202 89.2397 24.9573 89.1111L25.1207 89.0997C26.8583 88.9782 28.7012 88.8494 30.2355 88.5414C31.0311 88.3817 31.8056 88.1626 32.4726 87.8385C33.1379 87.5152 33.7824 87.0452 34.1894 86.3389C34.5959 85.6335 34.6804 84.8409 34.6279 84.1035C34.5754 83.3639 34.3786 82.5838 34.1199 81.8148C33.6221 80.3345 32.8169 78.6773 32.0575 77.1141L31.982 76.9587C31.178 75.3034 30.4368 73.7604 30.017 72.4449C29.8084 71.7911 29.701 71.2576 29.6873 70.8408C29.6736 70.4268 29.7545 70.2186 29.8261 70.1136C29.8973 70.0092 30.061 69.8584 30.4512 69.7205C30.8443 69.5817 31.3803 69.4877 32.0656 69.4444C33.4445 69.3572 35.1527 69.4869 36.9884 69.6341L37.1557 69.6475C38.8907 69.7868 40.7306 69.9346 42.2924 69.8592C43.103 69.8201 43.9016 69.7191 44.6097 69.498C45.3158 69.2775 46.0234 68.9086 46.5311 68.2704C47.0381 67.6332 47.2395 66.8618 47.2972 66.1247C47.3551 65.3854 47.2764 64.5847 47.1348 63.7858C46.8626 62.2494 46.3131 60.4927 45.7948 58.8354L45.7418 58.6662C45.1928 56.9099 44.6893 55.2741 44.4702 53.9108C44.3613 53.2333 44.3347 52.6898 44.3835 52.2755C44.4319 51.8642 44.5431 51.6697 44.6305 51.5755C44.7178 51.4815 44.9034 51.3563 45.3099 51.2778C45.7194 51.1987 46.2635 51.1851 46.9473 51.2438C48.3232 51.362 49.992 51.7436 51.7844 52.1615L51.9493 52.2C53.6429 52.5951 55.439 53.0141 56.9942 53.1713C57.8017 53.253 58.6064 53.2716 59.3399 53.158C60.0714 53.0447 60.8257 52.7851 61.4233 52.2304C62.0208 51.6758 62.3358 50.9428 62.503 50.2217C62.6706 49.4988 62.7117 48.695 62.6901 47.8839C62.6485 46.323 62.3642 44.503 62.096 42.7866L62.0692 42.6146C61.7854 40.7965 61.5289 39.1045 61.5137 37.724C61.5062 37.038 61.5604 36.4967 61.6701 36.0943C61.7789 35.695 61.9178 35.5187 62.019 35.438C62.1204 35.3572 62.3235 35.2608 62.7372 35.2433C63.1541 35.2256 63.6941 35.2928 64.3615 35.4521C65.7044 35.7729 67.2974 36.3978 69.0074 37.077L69.1652 37.1397C70.7808 37.7816 72.4942 38.4625 74.0087 38.8486C74.7952 39.0491 75.5884 39.1869 76.3308 39.1832C77.0715 39.1796 77.8561 39.0344 78.5295 38.5747C79.2032 38.1148 79.6241 37.4369 79.897 36.7482C80.1706 36.058 80.3308 35.269 80.43 34.4636C80.621 32.9128 80.6098 31.0696 80.5993 29.3317L80.5983 29.1606C80.5873 27.3207 80.5845 25.6097 80.7743 24.2424C80.8687 23.5629 81.0026 23.0357 81.1707 22.654C81.3376 22.2753 81.5012 22.1214 81.6136 22.0564C81.726 21.9914 81.941 21.9262 82.3523 21.9704C82.7669 22.0148 83.2905 22.1615 83.9264 22.4185C85.206 22.9355 86.6875 23.7908 88.2769 24.7175L88.4237 24.8032C89.9252 25.6788 91.5178 26.6077 92.958 27.2154C93.7059 27.5309 94.4699 27.7854 95.2049 27.8924C95.9382 27.9992 96.7358 27.9724 97.4705 27.6183C98.2055 27.264 98.7231 26.6566 99.0961 26.0163C99.4698 25.3745 99.7461 24.6182 99.9645 23.8366C100.385 22.3321 100.649 20.5086 100.897 18.7893L100.922 18.6188C101.186 16.7983 101.438 15.1066 101.83 13.7833C102.025 13.1258 102.236 12.6247 102.459 12.2726C102.681 11.9233 102.866 11.7952 102.988 11.7473C103.11 11.6996 103.332 11.6674 103.732 11.7726C104.135 11.8787 104.631 12.1022 105.221 12.4517C106.408 13.1551 107.744 14.2235 109.176 15.3787L109.305 15.4823C110.659 16.5747 112.095 17.7339 113.43 18.5514C114.123 18.9756 114.841 19.3416 115.552 19.5571C116.262 19.7721 117.056 19.8639 117.836 19.6227C117.835 19.6228 117.835 19.6229 117.835 19.623L125.673 314.309ZM12.5173 199.514C14.9785 196.89 17.4453 194.26 17.0226 192.398L12.5173 199.514Z" stroke="#161618" stroke-width="2.5"/>
<path d="M290.948 189.193C291.324 187.539 294.327 186.374 297.338 185.206C300.439 184.003 303.549 182.796 303.81 181.048C304.066 179.335 301.479 177.297 298.883 175.252C296.33 173.24 293.768 171.222 293.895 169.499L290.948 189.193ZM290.948 189.193C290.566 190.873 292.793 193.248 295.015 195.617C297.278 198.03 299.535 200.436 299.024 202.097L290.948 189.193ZM292.648 169.41C292.592 170.176 292.844 170.879 293.182 171.473C293.522 172.069 293.997 172.636 294.513 173.165C295.512 174.188 296.836 175.23 298.073 176.205L298.173 176.284C299.48 177.313 300.682 178.268 301.534 179.161C301.957 179.605 302.246 179.985 302.414 180.302C302.58 180.617 302.585 180.788 302.573 180.863L302.573 180.864C302.561 180.949 302.502 181.117 302.25 181.372C301.996 181.63 301.609 181.912 301.074 182.214C299.999 182.824 298.57 183.387 297.02 183.988L296.849 184.055C295.396 184.618 293.849 185.218 292.611 185.89C291.964 186.241 291.345 186.641 290.846 187.107C290.348 187.571 289.899 188.167 289.729 188.916L289.729 188.916C289.558 189.666 289.702 190.399 289.949 191.037C290.197 191.677 290.581 192.308 291.012 192.908C291.846 194.066 292.996 195.292 294.072 196.439L294.165 196.538C295.303 197.751 296.349 198.875 297.057 199.886C297.409 200.389 297.638 200.808 297.756 201.148C297.872 201.483 297.852 201.654 297.829 201.729C297.805 201.809 297.722 201.966 297.435 202.18C297.145 202.396 296.72 202.617 296.146 202.835C294.991 203.275 293.494 203.617 291.871 203.98L291.7 204.018C290.177 204.358 288.553 204.72 287.226 205.2C286.533 205.45 285.861 205.753 285.298 206.14C284.736 206.525 284.203 207.047 283.922 207.762C283.642 208.477 283.677 209.222 283.826 209.887C283.976 210.553 284.261 211.233 284.598 211.889C285.245 213.15 286.191 214.526 287.078 215.816L287.169 215.949C288.111 217.32 288.975 218.591 289.522 219.699C289.794 220.249 289.956 220.7 290.022 221.054C290.087 221.406 290.04 221.573 290.006 221.644C289.971 221.716 289.868 221.857 289.552 222.025C289.234 222.194 288.78 222.347 288.18 222.477C286.971 222.738 285.439 222.852 283.78 222.969L283.624 222.98C282.061 223.089 280.393 223.205 279.002 223.484C278.279 223.629 277.568 223.829 276.953 224.128C276.34 224.426 275.735 224.863 275.351 225.528C274.966 226.193 274.889 226.935 274.937 227.615C274.985 228.297 275.166 229.012 275.4 229.711C275.852 231.054 276.582 232.555 277.266 233.963L277.336 234.108C278.062 235.603 278.727 236.988 279.103 238.165C279.289 238.75 279.382 239.219 279.394 239.58C279.406 239.937 279.335 240.097 279.289 240.165C279.244 240.231 279.121 240.355 278.784 240.474C278.444 240.595 277.973 240.678 277.36 240.717C276.127 240.795 274.595 240.679 272.937 240.546L272.779 240.534C271.218 240.408 269.553 240.274 268.136 240.342C267.399 240.378 266.667 240.469 266.014 240.673C265.363 240.876 264.7 241.219 264.22 241.82C263.741 242.42 263.554 243.143 263.5 243.823C263.446 244.505 263.519 245.239 263.647 245.965C263.894 247.361 264.393 248.955 264.861 250.449L264.908 250.601C265.405 252.188 265.856 253.655 266.053 254.875C266.15 255.481 266.173 255.959 266.131 256.317C266.089 256.672 265.996 256.82 265.94 256.879C265.885 256.939 265.745 257.043 265.394 257.111C265.039 257.179 264.561 257.192 263.95 257.14C262.718 257.034 261.222 256.692 259.602 256.315L259.451 256.28C257.925 255.924 256.297 255.544 254.884 255.402C254.15 255.328 253.413 255.31 252.736 255.415C252.062 255.52 251.355 255.761 250.792 256.284C250.228 256.807 249.936 257.494 249.781 258.158C249.627 258.825 249.589 259.562 249.609 260.299C249.646 261.716 249.904 263.367 250.146 264.913L250.17 265.07C250.427 266.713 250.656 268.231 250.67 269.466C250.677 270.079 250.628 270.555 250.533 270.903C250.439 271.248 250.325 271.381 250.26 271.432C250.196 271.484 250.041 271.566 249.684 271.581C249.324 271.597 248.849 271.538 248.252 271.396C247.05 271.109 245.621 270.548 244.076 269.934L243.93 269.877C242.475 269.298 240.922 268.681 239.547 268.33C238.832 268.148 238.105 268.021 237.42 268.025C236.737 268.028 236.002 268.162 235.367 268.596C234.732 269.029 234.34 269.665 234.089 270.3C233.837 270.936 233.69 271.66 233.6 272.392C233.427 273.8 233.437 275.47 233.446 277.036L233.447 277.193C233.457 278.856 233.46 280.391 233.29 281.614C233.206 282.222 233.087 282.685 232.941 283.016C232.797 283.343 232.664 283.457 232.592 283.499C232.521 283.54 232.355 283.599 232 283.561C231.642 283.522 231.181 283.394 230.613 283.164C229.468 282.702 228.138 281.934 226.702 281.097L226.566 281.017C225.214 280.229 223.77 279.386 222.463 278.835C221.783 278.548 221.083 278.314 220.405 278.215C219.729 278.117 218.982 278.14 218.29 278.474C217.597 278.808 217.115 279.378 216.771 279.968C216.426 280.56 216.173 281.254 215.975 281.964C215.593 283.33 215.354 284.983 215.13 286.531L215.107 286.688C214.869 288.334 214.642 289.851 214.291 291.035C214.117 291.623 213.93 292.064 213.737 292.368C213.546 292.67 213.397 292.764 213.319 292.794C213.241 292.825 213.068 292.858 212.723 292.767C212.374 292.676 211.938 292.48 211.411 292.168C210.348 291.539 209.15 290.582 207.855 289.538L207.733 289.439C206.514 288.457 205.214 287.408 204.004 286.666C203.374 286.281 202.717 285.944 202.061 285.745C201.407 285.547 200.665 285.458 199.93 285.684L199.93 285.684C199.196 285.91 198.635 286.402 198.209 286.934C197.782 287.466 197.43 288.113 197.128 288.785C196.55 290.071 196.067 291.66 195.614 293.151L195.562 293.324C195.078 294.914 194.624 296.381 194.098 297.499C193.836 298.054 193.584 298.462 193.347 298.734C193.111 299.004 192.948 299.075 192.865 299.094L192.865 299.094C192.789 299.111 192.618 299.119 192.291 298.977C191.962 298.834 191.56 298.575 191.086 298.186C190.131 297.404 189.089 296.277 187.965 295.051L187.875 294.953C186.811 293.793 185.674 292.554 184.581 291.635C184.015 291.16 183.414 290.729 182.795 290.435C182.177 290.141 181.457 289.943 180.696 290.057C180.696 290.057 180.696 290.057 180.695 290.057L180.88 291.293M292.648 169.41L171.7 302.264M292.648 169.41C292.703 168.643 293.057 167.987 293.48 167.454C293.903 166.919 294.455 166.432 295.042 165.989C296.164 165.142 297.603 164.32 298.954 163.548L299.117 163.455C300.56 162.63 301.889 161.86 302.863 161.097C303.346 160.719 303.688 160.382 303.901 160.088C304.112 159.798 304.146 159.622 304.146 159.534C304.146 159.446 304.112 159.27 303.901 158.98C303.688 158.687 303.346 158.35 302.862 157.971C301.889 157.208 300.559 156.439 299.116 155.614L298.948 155.518C297.598 154.747 296.16 153.926 295.038 153.08C294.45 152.638 293.897 152.151 293.473 151.617C293.05 151.086 292.693 150.43 292.636 149.665L292.636 149.663C292.579 148.896 292.83 148.192 293.17 147.597C293.51 147.001 293.984 146.433 294.5 145.904C295.5 144.881 296.824 143.838 298.061 142.863L298.16 142.785C299.467 141.755 300.67 140.801 301.522 139.907C301.945 139.464 302.233 139.083 302.401 138.766C302.567 138.451 302.572 138.28 302.561 138.205L302.561 138.204C302.548 138.119 302.489 137.951 302.238 137.696C301.984 137.438 301.596 137.156 301.062 136.854C299.986 136.245 298.557 135.681 297.007 135.08L296.836 135.013C295.384 134.45 293.837 133.85 292.599 133.178C291.951 132.827 291.332 132.427 290.833 131.961C290.336 131.497 289.887 130.901 289.716 130.153L289.716 130.152C289.546 129.402 289.69 128.669 289.937 128.031C290.184 127.391 290.568 126.76 291 126.161C291.833 125.003 292.983 123.778 294.058 122.631L294.153 122.531C295.291 121.317 296.336 120.194 297.045 119.182C297.397 118.68 297.625 118.261 297.743 117.921C297.86 117.586 297.84 117.415 297.817 117.339C297.792 117.259 297.71 117.103 297.423 116.889C297.134 116.674 296.709 116.454 296.136 116.237C294.982 115.798 293.486 115.458 291.863 115.097L291.708 115.063C290.181 114.723 288.551 114.361 287.217 113.878C286.523 113.627 285.851 113.322 285.286 112.934C284.723 112.547 284.191 112.022 283.91 111.307C283.628 110.591 283.661 109.844 283.81 109.177C283.959 108.509 284.245 107.828 284.582 107.171C285.23 105.909 286.179 104.532 287.067 103.243L287.155 103.115C288.099 101.746 288.964 100.479 289.511 99.3719C289.783 98.8224 289.945 98.3727 290.01 98.0183C290.075 97.6673 290.029 97.4979 289.993 97.423C289.957 97.348 289.852 97.2064 289.537 97.0382C289.219 96.8685 288.766 96.7153 288.166 96.5857C286.959 96.3247 285.428 96.2121 283.77 96.0976L283.611 96.0866C282.049 95.979 280.383 95.8642 278.993 95.5861C278.269 95.4415 277.559 95.2415 276.943 94.9425C276.329 94.6443 275.724 94.2059 275.339 93.5408C274.953 92.8754 274.874 92.1326 274.922 91.4513C274.969 90.7682 275.15 90.0526 275.385 89.3533C275.837 88.0074 276.569 86.5036 277.255 85.0949L277.322 84.9571C278.049 83.4619 278.715 82.0791 279.091 80.9025C279.277 80.3183 279.371 79.8491 279.382 79.4889C279.394 79.1318 279.323 78.9717 279.277 78.9039C279.231 78.8361 279.107 78.7119 278.77 78.5927C278.43 78.4725 277.959 78.3886 277.347 78.3499C276.114 78.2718 274.583 78.3883 272.926 78.5218L272.768 78.5345C271.208 78.6605 269.542 78.7949 268.126 78.7269C267.389 78.6916 266.656 78.5997 266.003 78.3959C265.352 78.1926 264.688 77.8494 264.208 77.2489C263.729 76.6484 263.54 75.9254 263.486 75.245C263.432 74.5627 263.504 73.8283 263.633 73.102C263.88 71.7047 264.38 70.1096 264.849 68.6149L264.895 68.4664C265.392 66.8794 265.845 65.4125 266.042 64.1929C266.14 63.5873 266.162 63.1094 266.12 62.7513C266.079 62.3964 265.985 62.2488 265.93 62.1889C265.874 62.1289 265.733 62.0244 265.382 61.9565C265.028 61.8879 264.549 61.8749 263.937 61.9273C262.706 62.0327 261.209 62.3745 259.589 62.752L259.435 62.7878C257.91 63.1434 256.282 63.5228 254.871 63.6654C254.137 63.7396 253.4 63.7572 252.724 63.6526C252.049 63.5482 251.342 63.3073 250.779 62.7845C250.216 62.2617 249.923 61.5746 249.769 60.9101C249.614 60.2436 249.577 59.5067 249.597 58.7694C249.634 57.351 249.892 55.6993 250.133 54.1515L250.157 53.9977C250.413 52.3543 250.643 50.8362 250.657 49.6007C250.664 48.987 250.615 48.511 250.521 48.1631C250.427 47.8181 250.313 47.6863 250.249 47.6357C250.186 47.5852 250.032 47.5028 249.675 47.4877C249.314 47.4725 248.839 47.5306 248.242 47.6731C247.04 47.96 245.61 48.52 244.064 49.1333L243.917 49.1916C242.461 49.7693 240.908 50.3856 239.534 50.7359C238.819 50.9181 238.092 51.045 237.408 51.0419C236.726 51.0389 235.991 50.9058 235.357 50.4726C234.722 50.0394 234.331 49.4035 234.079 48.7694C233.827 48.1334 233.681 47.4102 233.59 46.6781C233.416 45.2689 233.425 43.596 233.433 42.0282L233.434 41.8748C233.442 40.2111 233.443 38.6752 233.273 37.451C233.189 36.843 233.07 36.3794 232.925 36.0495C232.781 35.7222 232.649 35.6097 232.58 35.5698C232.511 35.5299 232.347 35.4713 231.992 35.5098C231.633 35.5486 231.172 35.6769 230.603 35.9068C229.456 36.3697 228.125 37.1363 226.687 37.9729L226.551 38.0521C225.197 38.8401 223.752 39.6807 222.445 40.2318C221.766 40.5183 221.066 40.7521 220.389 40.851C219.715 40.9496 218.969 40.9279 218.277 40.5941C217.586 40.2603 217.104 39.6897 216.762 39.1005C216.418 38.5095 216.165 37.8164 215.967 37.1061C215.584 35.7397 215.342 34.0854 215.116 32.5348L215.093 32.3799C214.853 30.7335 214.624 29.2144 214.273 28.0295C214.098 27.441 213.912 27.0004 213.719 26.696C213.528 26.394 213.38 26.303 213.307 26.2742C213.233 26.2453 213.064 26.212 212.719 26.3034C212.371 26.3955 211.935 26.5916 211.407 26.9045C210.345 27.5344 209.145 28.4923 207.849 29.5355L207.74 29.6238C206.516 30.6092 205.209 31.6619 203.993 32.4051C203.362 32.7902 202.704 33.1258 202.048 33.3243C201.394 33.5223 200.652 33.6108 199.917 33.3842C199.183 33.158 198.622 32.6657 198.197 32.1347C197.769 31.602 197.417 30.9549 197.115 30.2829C196.537 28.997 196.055 27.408 195.601 25.9166L195.549 25.7446C195.066 24.154 194.611 22.6875 194.085 21.5694C193.824 21.0142 193.572 20.6066 193.334 20.3342C193.099 20.0643 192.936 19.9933 192.852 19.9744L192.852 19.9743C192.777 19.9571 192.605 19.9492 192.278 20.0912C191.949 20.2344 191.548 20.4936 191.074 20.8821C190.118 21.6645 189.077 22.7915 187.952 24.0175L187.862 24.116C186.798 25.2755 185.662 26.5149 184.569 27.4336C184.003 27.909 183.402 28.3395 182.783 28.6342C182.165 28.9282 181.444 29.1267 180.683 29.0132L180.682 29.0129C179.923 28.8987 179.295 28.4952 178.795 28.0338C178.294 27.5709 177.849 26.9836 177.451 26.3644C176.69 25.1812 175.976 23.685 175.306 22.28L175.225 22.1106C174.509 20.61 173.84 19.2275 173.152 18.2004C172.81 17.6904 172.5 17.3247 172.223 17.0905C171.949 16.8586 171.777 16.812 171.69 16.8056L171.689 16.8056C171.616 16.8001 171.448 16.8167 171.147 17.0061C170.843 17.1969 170.486 17.5131 170.075 17.9683C169.247 18.8848 168.385 20.1546 167.454 21.5344L167.389 21.6312C166.506 22.9403 165.561 24.3407 164.611 25.4153C164.122 25.9693 163.591 26.4841 163.021 26.8671C162.453 27.2493 161.769 27.5518 160.999 27.5518C160.23 27.5518 159.546 27.2492 158.978 26.8669C158.408 26.4837 157.878 25.9688 157.389 25.4148C156.442 24.342 155.5 22.9443 154.619 21.6373L154.549 21.534C153.62 20.1543 152.757 18.8847 151.93 17.9686C151.519 17.5137 151.161 17.1975 150.857 17.0067C150.556 16.8181 150.386 16.8001 150.31 16.8055C150.223 16.8122 150.05 16.8592 149.777 17.0912C149.5 17.3257 149.19 17.6918 148.848 18.2022C148.159 19.2299 147.491 20.6127 146.775 22.1133L146.695 22.2808C146.024 23.6864 145.311 25.1832 144.549 26.3665C144.15 26.9856 143.706 27.5726 143.204 28.0353C142.705 28.4964 142.077 28.8996 141.318 29.0131L141.317 29.0132C140.557 29.1267 139.836 28.9283 139.218 28.6343C138.598 28.3396 137.997 27.9091 137.431 27.4337C136.338 26.5148 135.201 25.2751 134.137 24.1153L134.047 24.0175C132.922 22.7915 131.88 21.6645 130.925 20.8822C130.451 20.4936 130.05 20.2344 129.721 20.0912C129.394 19.9492 129.222 19.9571 129.147 19.9743L129.146 19.9744C129.063 19.9933 128.901 20.0639 128.667 20.333C128.43 20.6048 128.179 21.0118 127.919 21.5666C127.395 22.684 126.943 24.1494 126.462 25.74L126.415 25.8928C125.962 27.3896 125.478 28.9873 124.896 30.2801C124.593 30.9528 124.239 31.6008 123.809 32.1343C123.38 32.6668 122.817 33.1577 122.082 33.3842C121.347 33.6108 120.605 33.5221 119.95 33.3236C119.294 33.1246 118.637 32.7884 118.007 32.4028C116.797 31.6611 115.496 30.6116 114.277 29.6285L114.156 29.5308C112.862 28.487 111.664 27.5294 110.601 26.9003C110.074 26.588 109.637 26.3925 109.289 26.3009C108.944 26.2102 108.771 26.2432 108.693 26.2739C108.614 26.3047 108.465 26.3983 108.274 26.7C108.081 27.0045 107.894 27.4448 107.72 28.0327C107.369 29.2168 107.142 30.7341 106.904 32.3795L106.882 32.5367C106.658 34.0853 106.419 35.7381 106.037 37.1039C105.839 37.8145 105.586 38.5081 105.241 39.0999C104.897 39.6903 104.414 40.2603 103.721 40.5943C103.029 40.9282 102.282 40.9512 101.606 40.8528C100.928 40.7542 100.227 40.5203 99.5474 40.2334C98.2395 39.6816 96.7956 38.8393 95.4427 38.0502L95.3079 37.9716C93.8713 37.1338 92.5422 36.3667 91.3971 35.9039C90.8285 35.6741 90.3677 35.546 90.0094 35.5076C89.6543 35.4695 89.489 35.528 89.4174 35.5695C89.3456 35.6111 89.2123 35.7256 89.0682 36.0527C88.9229 36.3828 88.8041 36.8463 88.7198 37.4539C88.5501 38.6775 88.5524 40.2122 88.5623 41.875L88.5633 42.0325C88.5728 43.598 88.583 45.2686 88.4096 46.6764C88.3194 47.4085 88.1731 48.1319 87.9209 48.7683C87.6693 49.4031 87.2772 50.039 86.6423 50.4725C86.0074 50.9061 85.2724 51.0399 84.5896 51.0433C83.9049 51.0468 83.1777 50.9199 82.4628 50.7377C81.0873 50.3871 79.5336 49.7697 78.0777 49.1912L77.9333 49.1338C76.3876 48.5198 74.9585 47.9594 73.7569 47.6723C73.1602 47.5297 72.6853 47.4716 72.3251 47.4869C71.9681 47.502 71.8137 47.5844 71.7496 47.6356C71.6854 47.6869 71.5708 47.8194 71.477 48.1644C71.3823 48.5124 71.3338 48.9884 71.3407 49.6019C71.3546 50.8373 71.5846 52.355 71.8411 53.998L71.8654 54.1537C72.1071 55.7006 72.365 57.3512 72.4026 58.769C72.4221 59.5062 72.385 60.2432 72.2303 60.9098C72.076 61.5745 71.783 62.2616 71.2197 62.7844C70.6565 63.3073 69.9495 63.5485 69.2751 63.6531C68.5988 63.758 67.861 63.7405 67.1269 63.6664C65.7146 63.524 64.0859 63.1443 62.5598 62.7885L62.409 62.7533C60.7888 62.3758 59.2917 62.0339 58.0603 61.9282C57.4488 61.8758 56.9702 61.8887 56.6161 61.9571C56.2649 62.025 56.1247 62.1293 56.0694 62.1889C56.0141 62.2484 55.9204 62.3959 55.8788 62.7513C55.8368 63.1096 55.8593 63.588 55.957 64.1941C56.1537 65.4146 56.6057 66.8826 57.1025 68.4703L57.1505 68.6235C57.6181 70.1175 58.1169 71.711 58.364 73.1061C58.4926 73.832 58.5652 74.566 58.5113 75.2474C58.4575 75.9268 58.27 76.6497 57.7899 77.2497C57.3105 77.8489 56.6475 78.1908 55.9972 78.3932C55.3449 78.5962 54.6138 78.6876 53.8781 78.7229C52.4651 78.7905 50.8042 78.6572 49.2472 78.5322L49.0844 78.5192C47.4288 78.3865 45.9 78.2711 44.6686 78.3498C44.0571 78.3889 43.5868 78.4729 43.2474 78.5931C42.911 78.7123 42.7879 78.8363 42.742 78.9036C42.6962 78.9706 42.6255 79.1305 42.6372 79.488C42.649 79.8486 42.7424 80.3182 42.929 80.9029C43.3049 82.0803 43.9699 83.4644 44.6969 84.9604L44.7665 85.1036C45.451 86.5116 46.1812 88.0136 46.633 89.3571C46.868 90.056 47.0488 90.771 47.0968 91.4531C47.1447 92.1331 47.0669 92.8757 46.682 93.5405C46.2973 94.2052 45.6922 94.6427 45.0788 94.9403C44.4635 95.2387 43.7533 95.4387 43.0299 95.5837C41.6384 95.8627 39.9703 95.9793 38.4067 96.0886L38.2512 96.0995C36.5912 96.2158 35.0591 96.3298 33.8507 96.591C33.2506 96.7208 32.7969 96.8738 32.4786 97.0431C32.1627 97.2111 32.0603 97.3515 32.0257 97.4232C31.9912 97.4947 31.945 97.662 32.01 98.0137C32.0755 98.3681 32.238 98.8184 32.51 99.3689C33.0575 100.477 33.922 101.748 34.8643 103.119L34.9549 103.251C35.842 104.542 36.7881 105.918 37.4356 107.179C37.7724 107.835 38.0582 108.515 38.2078 109.182C38.3569 109.846 38.3916 110.592 38.1106 111.307C37.8296 112.021 37.2965 112.544 36.7347 112.929C36.1711 113.315 35.499 113.618 34.806 113.868C33.4784 114.348 31.8551 114.71 30.332 115.05L30.1609 115.088C28.538 115.451 27.0411 115.793 25.8862 116.233C25.3127 116.452 24.8873 116.672 24.5978 116.888C24.311 117.102 24.2286 117.258 24.2038 117.339L24.2037 117.339C24.1806 117.414 24.1599 117.585 24.2769 117.921C24.3949 118.261 24.6231 118.68 24.9748 119.183C25.6829 120.194 26.7283 121.317 27.8664 122.531L27.9605 122.631C29.0361 123.778 30.1853 125.003 31.0187 126.161C31.4502 126.76 31.8345 127.391 32.0819 128.031C32.3287 128.669 32.4727 129.402 32.3023 130.152L32.3022 130.153C32.1318 130.901 31.6829 131.497 31.1854 131.961C30.6863 132.427 30.0675 132.827 29.4202 133.178C28.1823 133.85 26.6352 134.45 25.1828 135.013L25.0119 135.08C23.4619 135.681 22.0333 136.245 20.9575 136.854C20.4233 137.156 20.0355 137.438 19.7814 137.696C19.5302 137.951 19.4709 138.119 19.458 138.204C19.4468 138.28 19.4518 138.451 19.6181 138.766C19.7858 139.083 20.0746 139.463 20.4979 139.907C21.3503 140.801 22.5526 141.755 23.8597 142.785L23.9581 142.862C25.1963 143.837 26.5203 144.88 27.5201 145.904C28.0365 146.433 28.5107 147.001 28.8507 147.597C29.1899 148.191 29.4411 148.895 29.3847 149.662C29.3292 150.428 28.9745 151.084 28.5525 151.616C28.1289 152.15 27.5767 152.636 26.9894 153.079C25.8686 153.924 24.4321 154.744 23.0826 155.515L22.9153 155.611C21.4725 156.435 20.1437 157.204 19.1705 157.968C18.6872 158.346 18.3455 158.683 18.1323 158.977C17.9212 159.268 17.8867 159.445 17.8867 159.534C17.8867 159.624 17.9213 159.801 18.1322 160.091C18.3452 160.385 18.6868 160.722 19.1697 161.101C20.1423 161.864 21.4705 162.633 22.9128 163.458L23.0812 163.554C24.4299 164.325 25.8657 165.145 26.9864 165.99C27.5738 166.433 28.1261 166.919 28.55 167.453C28.9727 167.985 29.328 168.641 29.3846 169.407C29.4413 170.174 29.1899 170.878 28.8505 171.473C28.5104 172.069 28.0361 172.636 27.5197 173.165C26.5203 174.188 25.1969 175.23 23.9592 176.205L23.859 176.284C22.5518 177.314 21.3494 178.268 20.4972 179.161C20.074 179.605 19.7853 179.985 19.6177 180.302C19.4514 180.617 19.4467 180.788 19.458 180.863M292.648 169.41L19.458 180.863M180.88 291.293C179.205 291.543 177.819 294.448 176.428 297.363C174.996 300.365 173.559 303.378 171.794 303.511M180.88 291.293C182.587 291.038 184.789 293.438 186.985 295.832C189.22 298.268 191.449 300.698 193.142 300.313L180.88 291.293ZM171.794 303.511L171.702 302.264C171.702 302.264 171.701 302.264 171.7 302.264M171.794 303.511L171.7 302.264M171.794 303.511C170.069 303.639 168.23 300.91 166.384 298.171C164.566 295.475 162.742 292.768 161.012 292.768C159.281 292.768 157.453 295.479 155.632 298.178C153.786 300.914 151.949 303.638 150.23 303.511C148.464 303.38 147.026 300.366 145.594 297.362C144.204 294.449 142.819 291.545 141.145 291.293C139.438 291.037 137.235 293.439 135.039 295.833C132.804 298.269 130.575 300.698 128.882 300.313C127.162 299.922 126.193 296.735 125.227 293.555C124.287 290.463 123.35 287.379 121.726 286.878C120.099 286.377 117.574 288.406 115.048 290.437C112.461 292.516 109.873 294.596 108.248 293.958C106.624 293.32 106.144 290.038 105.664 286.755C105.195 283.548 104.726 280.341 103.189 279.6C101.652 278.858 98.8506 280.489 96.0497 282.12C93.1845 283.787 90.3203 285.454 88.8127 284.58C87.3059 283.707 87.3222 280.395 87.3385 277.081C87.3544 273.837 87.3704 270.592 85.9589 269.628C84.5489 268.665 81.5378 269.859 78.526 271.054C75.4425 272.277 72.3584 273.501 70.9911 272.409C69.6244 271.318 70.1348 268.043 70.6452 264.768C71.1443 261.566 71.6434 258.363 70.389 257.2C69.1351 256.037 65.98 256.772 62.8249 257.508C59.5953 258.26 56.3658 259.013 55.175 257.73C53.9844 256.447 54.9752 253.284 55.9662 250.12C56.9346 247.029 57.9032 243.937 56.8355 242.599C55.7681 241.262 52.5395 241.523 49.3104 241.783C46.0048 242.05 42.6986 242.316 41.7095 240.869C40.7208 239.423 42.171 236.443 43.6214 233.463C45.0392 230.55 46.4573 227.637 45.5983 226.154C44.7398 224.671 41.5096 224.449 38.2792 224.226C34.9712 223.997 31.6629 223.769 30.9 222.188C30.1375 220.608 32.0176 217.88 33.8982 215.151C35.736 212.484 37.5743 209.816 36.9473 208.219C36.3204 206.622 33.16 205.919 29.9993 205.216C26.763 204.497 23.5265 203.777 23.0091 202.097C22.4967 200.435 24.7546 198.028 27.0179 195.615C29.239 193.247 31.4652 190.873 31.0834 189.193C30.7071 187.539 27.7047 186.374 24.6935 185.206C21.5931 184.002 18.4834 182.796 18.2217 181.048M171.7 302.264C171.624 302.27 171.454 302.251 171.155 302.063C170.851 301.873 170.494 301.556 170.083 301.101C169.255 300.185 168.393 298.916 167.463 297.536L167.394 297.433C166.512 296.126 165.57 294.728 164.623 293.655C164.134 293.101 163.603 292.586 163.034 292.203C162.465 291.821 161.781 291.518 161.012 291.518C160.243 291.518 159.559 291.821 158.99 292.203C158.421 292.586 157.889 293.101 157.4 293.655C156.45 294.729 155.506 296.13 154.623 297.439L154.558 297.536C153.627 298.915 152.764 300.185 151.937 301.102C151.526 301.557 151.168 301.873 150.865 302.064C150.564 302.253 150.395 302.27 150.322 302.264L150.322 302.264C150.235 302.258 150.062 302.211 149.788 301.979C149.512 301.745 149.201 301.38 148.86 300.87C148.171 299.842 147.503 298.46 146.787 296.959L146.705 296.789C146.036 295.384 145.322 293.889 144.561 292.706C144.163 292.086 143.719 291.499 143.217 291.036C142.718 290.575 142.09 290.171 141.332 290.057L141.33 290.057C140.57 289.943 139.849 290.141 139.23 290.435C138.611 290.729 138.01 291.16 137.444 291.635C136.35 292.554 135.213 293.794 134.149 294.954L134.06 295.051C132.935 296.277 131.893 297.404 130.938 298.186C130.464 298.575 130.062 298.834 129.733 298.977C129.406 299.119 129.235 299.111 129.159 299.094L129.159 299.094C129.076 299.075 128.913 299.004 128.677 298.734C128.44 298.462 128.188 298.054 127.927 297.499C127.4 296.381 126.947 294.914 126.463 293.324L126.411 293.153C125.958 291.661 125.475 290.071 124.897 288.785C124.595 288.113 124.243 287.466 123.815 286.933C123.389 286.402 122.828 285.91 122.094 285.684C121.361 285.458 120.62 285.549 119.968 285.747C119.315 285.947 118.658 286.283 118.029 286.668C116.821 287.408 115.519 288.454 114.298 289.435L114.173 289.536C112.876 290.578 111.674 291.536 110.609 292.165C110.081 292.477 109.644 292.673 109.295 292.765C108.949 292.857 108.779 292.823 108.705 292.794C108.631 292.765 108.484 292.674 108.292 292.372C108.1 292.067 107.913 291.626 107.738 291.038C107.387 289.853 107.158 288.334 106.917 286.687L106.894 286.532C106.668 284.982 106.426 283.328 106.043 281.962C105.844 281.251 105.592 280.558 105.248 279.967C104.906 279.378 104.424 278.808 103.733 278.474C103.041 278.14 102.295 278.119 101.62 278.217C100.944 278.316 100.244 278.55 99.5649 278.836C98.2574 279.388 96.8123 280.229 95.4581 281.018L95.3244 281.095C93.8868 281.932 92.5563 282.699 91.4111 283.162C90.8424 283.391 90.3818 283.52 90.0242 283.558C89.6694 283.597 89.5072 283.538 89.4396 283.499C89.3716 283.46 89.2396 283.347 89.0959 283.02C88.9512 282.69 88.8328 282.226 88.7485 281.618C88.5789 280.393 88.5799 278.857 88.588 277.193L88.5887 277.043C88.5965 275.474 88.6049 273.8 88.43 272.39C88.3393 271.658 88.1927 270.935 87.9407 270.299C87.6896 269.665 87.2982 269.029 86.664 268.596C86.0296 268.162 85.2948 268.029 84.613 268.026C83.9291 268.023 83.2023 268.15 82.4876 268.332C81.1134 268.683 79.5604 269.299 78.1046 269.876L77.9575 269.935C76.4111 270.548 74.9809 271.108 73.7786 271.395C73.1815 271.538 72.7062 271.596 72.3458 271.58C71.9883 271.565 71.8343 271.483 71.771 271.432C71.7077 271.382 71.5933 271.25 71.4996 270.905C71.4051 270.557 71.3566 270.081 71.3635 269.467C71.3774 268.232 71.6071 266.714 71.8632 265.07L71.887 264.918C72.1284 263.369 72.386 261.717 72.4231 260.298C72.4424 259.561 72.405 258.824 72.2502 258.158C72.0957 257.493 71.8026 256.806 71.2391 256.283C70.6758 255.761 69.9688 255.52 69.2946 255.416C68.6184 255.311 67.8806 255.329 67.1467 255.403C65.7353 255.545 64.1079 255.925 62.5826 256.281L62.4296 256.316C60.8097 256.694 59.3129 257.035 58.0818 257.141C57.4704 257.193 56.992 257.18 56.638 257.112C56.287 257.044 56.1467 256.939 56.0913 256.88C56.0357 256.82 55.9421 256.672 55.9005 256.317C55.8586 255.959 55.8813 255.481 55.979 254.875C56.176 253.656 56.6283 252.189 57.1253 250.602L57.1719 250.453C57.6402 248.958 58.14 247.363 58.3872 245.966C58.5157 245.24 58.5881 244.505 58.5338 243.823C58.4798 243.143 58.2919 242.42 57.8124 241.82C57.3329 241.219 56.6695 240.876 56.018 240.672C55.3647 240.468 54.6325 240.377 53.8957 240.341C52.479 240.273 50.8137 240.408 49.2529 240.534L49.0953 240.546C47.4374 240.68 45.9064 240.796 44.673 240.718C44.0605 240.679 43.5892 240.596 43.249 240.475C42.9118 240.356 42.788 240.232 42.7415 240.164C42.6951 240.096 42.6244 239.936 42.6359 239.579C42.6475 239.219 42.7407 238.75 42.9274 238.166C43.3032 236.989 43.9687 235.606 44.6964 234.111L44.7642 233.972C45.4498 232.563 46.1815 231.06 46.6337 229.715C46.8688 229.016 47.0495 228.3 47.097 227.617C47.1443 226.936 47.0654 226.193 46.68 225.527C46.2948 224.862 45.6899 224.424 45.0756 224.126C44.4597 223.827 43.7492 223.627 43.0258 223.482C41.6354 223.204 39.9695 223.089 38.4083 222.982L38.249 222.971C36.5902 222.856 35.0598 222.743 33.8525 222.482C33.253 222.353 32.7997 222.2 32.4816 222.03C32.1663 221.862 32.062 221.72 32.0258 221.645C31.9897 221.57 31.9438 221.401 32.0084 221.05C32.0736 220.696 32.2358 220.246 32.5077 219.696C33.0551 218.59 33.92 217.322 34.8634 215.953L34.9519 215.825C35.8405 214.536 36.7889 213.159 37.4375 211.897C37.7747 211.241 38.0606 210.56 38.2098 209.891C38.3587 209.224 38.3918 208.478 38.1109 207.762C37.8298 207.046 37.2976 206.521 36.7346 206.134C36.1703 205.746 35.4975 205.442 34.8038 205.19C33.4704 204.707 31.8402 204.345 30.3126 204.005L30.1573 203.971C28.5343 203.61 27.0382 203.27 25.8839 202.831C25.3107 202.614 24.8858 202.394 24.5968 202.179C24.3106 201.965 24.2285 201.81 24.2038 201.729L24.2037 201.729C24.1806 201.654 24.1599 201.483 24.2769 201.147C24.3949 200.807 24.6231 200.388 24.9748 199.885C25.6829 198.874 26.7283 197.751 27.8664 196.537L27.9608 196.437C29.0362 195.29 30.1854 194.065 31.0187 192.908C31.4502 192.308 31.8345 191.677 32.0819 191.037C32.3287 190.399 32.4727 189.666 32.3023 188.916L32.3022 188.916C32.1318 188.167 31.6829 187.571 31.1854 187.107C30.6863 186.641 30.0675 186.241 29.4202 185.89C28.1822 185.218 26.6351 184.618 25.1826 184.055L25.0119 183.988C23.4619 183.387 22.0333 182.824 20.9575 182.214C20.4233 181.912 20.0355 181.63 19.7814 181.372C19.5299 181.117 19.4708 180.949 19.458 180.863M18.2217 181.048L19.458 180.863M18.2217 181.048L19.4579 180.863C19.4579 180.863 19.4579 180.863 19.458 180.863M18.2217 181.048L19.458 180.863" stroke="#161618" stroke-width="2.5"/>
<path d="M124.944 164.397C122.06 161.29 121.758 156.605 124.029 153.025C129.505 144.397 134.156 135.268 137.92 125.757C146.381 103.633 143.262 83.8339 149.613 82.7437C154.893 81.8386 154.831 89.3366 155.12 94.181C155.12 94.181 156.725 85.1093 157.013 79.1438C157.508 68.8584 167.708 66.3077 167.893 80.0078C168.83 66.3077 171.629 65.094 174.614 65.0014C177.599 64.9089 179.843 69.2904 179.936 81.458C180.028 93.6256 177.877 109.99 177.877 109.99C177.877 109.99 187.306 96.6186 199.904 102.07C212.503 107.521 212.153 126.364 209.528 134.983C208.89 137.092 208.025 138.902 204.598 138.747C200.635 138.552 198.916 135.538 198.968 130.972C199.06 122.949 197.753 117.601 193.183 117.354C188.613 117.107 181.284 123.361 181.284 138.285C181.284 153.209 184.372 157.395 189.21 157.765C194.047 158.135 197.557 153.126 199.287 146.266C201.52 137.452 207.212 137.976 209.23 140.743C211.484 143.828 208.838 154.114 205.257 160.285C198.823 171.383 188.469 182.008 164.393 175.384C162.315 177.517 160.135 179.764 158.104 181.862C153.408 186.714 145.6 186.645 141.006 181.697L124.944 164.397Z" fill="#F9F9FA" stroke="#AAAEDF"/>
<path d="M139.335 236.224C139.381 236.256 139.419 236.298 139.445 236.347C139.471 236.396 139.485 236.451 139.485 236.506C139.486 236.562 139.473 236.616 139.447 236.666C139.422 236.715 139.385 236.758 139.339 236.791C138.733 237.188 138.152 236.96 137.489 236.56C129.376 231.671 121.004 227.384 112.21 224.083C96.767 218.209 80.2835 215.466 63.7431 216.017C62.7394 216.051 61.7357 216.101 60.7321 216.144C60.5562 216.152 60.3803 216.169 60.2049 216.166C58.7495 216.146 58.4861 215.716 59.1913 214.39C61.2927 210.439 64.4903 208.392 68.7052 208.15C71.2806 208.002 73.8131 208.415 76.3493 208.804C81.195 209.546 86.0423 210.262 90.8216 211.434C102.374 214.309 113.408 218.928 123.532 225.128C128.958 228.423 134.156 232.071 139.091 236.048C139.169 236.111 139.254 236.166 139.335 236.224Z" fill="#03AA89"/>
<path d="M139.335 236.224C139.381 236.256 139.419 236.298 139.445 236.347C139.471 236.396 139.485 236.451 139.485 236.506C139.486 236.562 139.473 236.617 139.447 236.666C139.422 236.715 139.385 236.758 139.339 236.791C138.733 237.188 138.152 236.96 137.489 236.56C129.376 231.672 121.004 227.385 112.21 224.084C96.767 218.21 80.2835 215.466 63.7431 216.017C62.7394 216.051 61.7357 216.101 60.7321 216.144C60.5562 216.152 60.3803 216.169 60.2049 216.167C58.7495 216.146 58.4861 215.716 59.1913 214.39C61.2927 210.439 64.4903 208.392 68.7052 208.15C71.2806 208.002 73.8131 208.416 76.3493 208.804C81.195 209.546 86.0423 210.262 90.8216 211.434C102.374 214.309 113.408 218.928 123.532 225.128C128.958 228.423 134.156 232.071 139.091 236.048C139.169 236.111 139.254 236.166 139.335 236.224ZM264.87 198.393C264.918 198.431 264.957 198.48 264.982 198.536C265.007 198.592 265.019 198.653 265.016 198.714C265.013 198.776 264.995 198.835 264.965 198.888C264.934 198.942 264.891 198.987 264.839 199.021C264.196 199.409 263.464 199.63 262.711 199.663C240.91 201.378 220.959 209.104 202.269 220.976C195.259 225.429 188.681 230.55 182.088 235.655C181.94 235.757 181.797 235.867 181.661 235.985C181.286 236.346 181.052 235.987 180.838 235.77C180.521 235.449 180.912 235.297 181.057 235.162C183.323 233.034 185.576 230.887 187.884 228.811C197.276 220.366 207.203 212.753 218.074 206.623C226.674 201.702 235.873 197.881 245.449 195.251C248.586 194.418 251.822 194.004 255.071 194.022C256.909 194.014 258.703 194.571 260.207 195.614C261.456 196.422 262.748 197.163 264.078 197.833C264.359 197.994 264.625 198.182 264.87 198.393Z" fill="#03AA89"/>
<path d="M264.87 198.393C264.918 198.431 264.957 198.48 264.982 198.536C265.007 198.592 265.019 198.653 265.016 198.714C265.013 198.776 264.995 198.835 264.964 198.888C264.934 198.942 264.89 198.987 264.839 199.021C264.196 199.409 263.464 199.63 262.711 199.663C240.91 201.378 220.958 209.104 202.269 220.976C195.259 225.429 188.681 230.55 182.088 235.655C181.94 235.757 181.797 235.867 181.66 235.985C181.286 236.346 181.052 235.987 180.838 235.77C180.521 235.449 180.912 235.297 181.056 235.162C183.323 233.034 185.576 230.887 187.884 228.811C197.276 220.366 207.203 212.753 218.074 206.623C226.674 201.702 235.872 197.881 245.449 195.251C248.586 194.418 251.822 194.004 255.071 194.022C256.908 194.014 258.703 194.571 260.207 195.614C261.455 196.422 262.748 197.163 264.078 197.833C264.359 197.994 264.624 198.182 264.87 198.393ZM60.0673 201.978C60.0239 201.95 59.9873 201.913 59.96 201.87C59.9327 201.826 59.9152 201.777 59.9089 201.726C59.9026 201.676 59.9075 201.624 59.9234 201.575C59.9393 201.527 59.9657 201.482 60.0008 201.444C60.1998 201.253 60.4252 201.09 60.6704 200.96C62.3842 200.013 64.0245 198.917 65.7676 198.03C67.0383 197.38 68.4374 197.012 69.8673 196.95C74.7183 196.75 79.3812 197.815 84.0101 199.226C99.8758 204.061 114.187 212.218 127.491 222.547C132.805 226.672 137.909 231.08 142.879 235.67C142.96 235.745 143.04 235.821 143.12 235.899C143.154 235.932 143.181 235.971 143.2 236.014C143.219 236.058 143.228 236.104 143.229 236.152C143.229 236.199 143.22 236.245 143.202 236.289C143.184 236.333 143.158 236.373 143.124 236.406C142.401 237.129 142.579 236.992 141.683 236.304C133.493 230.006 125.099 224.063 116.123 219.105C103.84 212.322 90.999 207.274 77.3825 204.6C72.3259 203.609 67.2088 202.946 62.0642 202.617C61.3426 202.647 60.6338 202.421 60.0673 201.978Z" fill="#03AA89"/>
<path d="M60.0659 201.978C60.0225 201.95 59.9859 201.913 59.9586 201.869C59.9313 201.826 59.9138 201.777 59.9075 201.726C59.9012 201.675 59.9061 201.624 59.922 201.575C59.9379 201.526 59.9643 201.482 59.9994 201.444C60.1984 201.252 60.4238 201.089 60.669 200.96C62.3828 200.013 64.0231 198.916 65.7662 198.03C67.0369 197.38 68.436 197.011 69.8659 196.95C74.7169 196.75 79.3798 197.814 84.0087 199.225C99.8744 204.06 114.186 212.218 127.49 222.546C132.804 226.672 137.907 231.08 142.877 235.669C142.958 235.744 143.038 235.821 143.118 235.898C143.153 235.931 143.18 235.971 143.198 236.014C143.217 236.058 143.227 236.104 143.227 236.151C143.228 236.198 143.219 236.245 143.201 236.289C143.183 236.333 143.157 236.373 143.123 236.406C142.4 237.128 142.578 236.992 141.682 236.303C133.492 230.005 125.098 224.063 116.121 219.105C103.838 212.322 90.9976 207.274 77.3811 204.6C72.3245 203.609 67.2074 202.946 62.0628 202.617C61.3412 202.647 60.6324 202.421 60.0659 201.978ZM58.3025 228.016C59.3045 228.288 60.3243 228.122 61.3482 227.99C73.9371 226.372 86.521 226.103 99.095 227.752C109.179 229.076 119.047 231.684 128.453 235.51C130.451 236.32 132.464 237.088 134.539 237.899C134.694 237.959 134.836 237.785 134.769 237.623C134.609 237.275 134.36 236.975 134.046 236.752C131.511 234.734 128.661 233.303 125.861 231.786C117.683 227.354 109.206 223.754 100.239 221.537C94.8115 220.181 89.2527 219.401 83.6574 219.21C79.8632 219.088 76.0781 218.674 72.272 218.894C69.2107 219.071 66.236 219.644 63.5285 221.327C61.1664 222.776 59.2771 224.866 58.0866 227.347C58.066 227.389 58.0495 227.435 58.03 227.48C58.0082 227.532 57.9981 227.589 58.0003 227.646C58.0025 227.703 58.017 227.758 58.0428 227.809C58.0686 227.86 58.1051 227.905 58.1499 227.941C58.1947 227.976 58.2468 228.002 58.3025 228.016Z" fill="#03AA89"/>
<path d="M58.3025 228.016C59.3045 228.287 60.3243 228.121 61.3482 227.99C73.9371 226.371 86.521 226.102 99.095 227.751C109.179 229.075 119.047 231.683 128.453 235.51C130.451 236.319 132.464 237.088 134.539 237.898C134.694 237.959 134.836 237.784 134.769 237.622C134.609 237.274 134.36 236.974 134.046 236.751C131.511 234.734 128.661 233.302 125.861 231.785C117.683 227.353 109.206 223.753 100.239 221.536C94.8115 220.18 89.2527 219.4 83.6574 219.209C79.8632 219.087 76.0781 218.674 72.272 218.893C69.2107 219.07 66.236 219.643 63.5285 221.326C61.1664 222.775 59.2771 224.865 58.0866 227.346C58.066 227.388 58.0495 227.434 58.03 227.479C58.0082 227.532 57.9981 227.588 58.0003 227.645C58.0025 227.702 58.017 227.758 58.0428 227.808C58.0686 227.859 58.1051 227.904 58.1499 227.94C58.1947 227.976 58.2468 228.001 58.3025 228.016ZM263.822 229.134C262.813 229.381 261.798 229.192 260.778 229.035C248.232 227.115 235.659 226.544 223.049 227.891C212.934 228.973 203.005 231.343 193.507 234.943C191.49 235.704 189.459 236.424 187.364 237.185C187.208 237.242 187.07 237.064 187.141 236.903C187.309 236.559 187.566 236.265 187.885 236.05C190.47 234.094 193.354 232.731 196.19 231.282C204.474 227.047 213.038 223.652 222.058 221.651C227.517 220.425 233.093 219.779 238.691 219.722C242.488 219.691 246.282 219.369 250.081 219.679C253.137 219.93 256.097 220.574 258.762 222.322C261.088 223.827 262.926 225.961 264.055 228.47C264.074 228.513 264.09 228.559 264.108 228.605C264.128 228.658 264.137 228.715 264.133 228.771C264.13 228.828 264.114 228.883 264.087 228.934C264.06 228.984 264.022 229.028 263.976 229.062C263.931 229.097 263.878 229.122 263.822 229.134Z" fill="#03AA89"/>
<path d="M263.823 229.134C262.814 229.381 261.799 229.192 260.779 229.035C248.233 227.115 235.66 226.544 223.049 227.891C212.935 228.973 203.006 231.343 193.508 234.943C191.491 235.704 189.46 236.424 187.365 237.185C187.209 237.242 187.071 237.064 187.142 236.903C187.31 236.559 187.567 236.265 187.886 236.05C190.471 234.094 193.355 232.731 196.191 231.282C204.475 227.047 213.038 223.652 222.059 221.651C227.518 220.425 233.094 219.779 238.692 219.722C242.488 219.691 246.283 219.369 250.082 219.68C253.138 219.93 256.098 220.574 258.763 222.322C261.089 223.827 262.926 225.961 264.056 228.47C264.075 228.513 264.09 228.559 264.109 228.605C264.129 228.658 264.138 228.715 264.134 228.771C264.131 228.828 264.115 228.883 264.088 228.934C264.061 228.984 264.023 229.028 263.977 229.062C263.932 229.097 263.879 229.122 263.823 229.134ZM162.41 228.591C162.403 228.533 162.376 228.48 162.333 228.44C162.291 228.399 162.235 228.375 162.176 228.37C160.08 228.322 158.348 227.256 156.842 225.79C156.54 225.495 156.238 225.198 155.938 224.898C143.661 212.559 129.747 201.918 114.575 193.268C107.152 189.061 100.705 186.347 92.9753 183.052C92.6656 182.92 91.1162 182.44 90.8363 182.536C84.5548 184.709 78.2735 186.883 71.9926 189.057L70.7994 189.468C70.7135 189.499 70.6355 189.548 70.5707 189.611C70.5058 189.675 70.4558 189.752 70.4241 189.837C70.3923 189.921 70.3796 190.012 70.3867 190.102C70.3938 190.192 70.4207 190.279 70.4654 190.358C70.9753 191.222 71.7672 191.381 72.5206 191.604C79.7787 193.76 87.0388 195.89 94.1201 198.802C111.792 206.044 127.695 216.926 140.766 230.72C144.137 234.25 146.724 237.574 149.694 240.756C150.312 241.414 151.131 241.856 152.026 242.015C153.267 242.192 154.517 242.304 155.77 242.351C158.23 242.54 160.699 242.601 163.166 242.533C163.272 242.528 165.757 242.525 164.07 242.241C163.836 242.194 163.624 242.074 163.465 241.898C163.306 241.722 163.209 241.5 163.189 241.265C163.007 237.025 163.09 232.758 162.41 228.591Z" fill="#03AA89"/>
<path d="M162.41 228.591C162.403 228.533 162.375 228.48 162.333 228.44C162.29 228.399 162.235 228.375 162.176 228.37C160.08 228.322 158.348 227.256 156.842 225.79C156.54 225.495 156.238 225.198 155.938 224.898C143.661 212.559 129.747 201.918 114.575 193.268C107.152 189.061 100.705 186.347 92.9753 183.052C92.6656 182.92 91.1162 182.44 90.8363 182.536C84.5548 184.709 78.2735 186.883 71.9926 189.057L70.7994 189.468C70.7135 189.499 70.6355 189.548 70.5707 189.611C70.5058 189.675 70.4558 189.752 70.4241 189.837C70.3923 189.921 70.3796 190.012 70.3867 190.102C70.3938 190.192 70.4207 190.279 70.4654 190.358C70.9753 191.222 71.7672 191.381 72.5206 191.604C79.7787 193.76 87.0388 195.89 94.1201 198.802C111.792 206.044 127.695 216.926 140.766 230.72C144.137 234.25 146.724 237.574 149.694 240.756C150.312 241.414 151.131 241.856 152.026 242.015C153.267 242.192 154.517 242.304 155.77 242.351C158.23 242.54 160.699 242.601 163.166 242.533C163.272 242.528 165.757 242.525 164.07 242.241C163.836 242.194 163.624 242.074 163.465 241.898C163.306 241.722 163.209 241.5 163.189 241.265C163.007 237.025 163.09 232.758 162.41 228.591Z" fill="#03AA89"/>
<path d="M162.41 228.591C162.403 228.533 162.375 228.48 162.333 228.44C162.29 228.399 162.235 228.375 162.176 228.37C160.08 228.322 158.348 227.256 156.842 225.79C156.54 225.495 156.238 225.198 155.938 224.898C143.661 212.559 129.747 201.918 114.575 193.268C107.152 189.061 100.705 186.347 92.9753 183.052C92.6656 182.92 91.1162 182.44 90.8363 182.536C84.5548 184.709 78.2735 186.883 71.9926 189.057L70.7994 189.468C70.7135 189.499 70.6355 189.548 70.5707 189.611C70.5058 189.675 70.4558 189.752 70.4241 189.837C70.3923 189.921 70.3796 190.012 70.3867 190.102C70.3938 190.192 70.4207 190.279 70.4654 190.358C70.9753 191.222 71.7672 191.381 72.5206 191.604C79.7787 193.76 87.0388 195.89 94.1201 198.802C111.792 206.044 127.695 216.926 140.766 230.72C144.137 234.25 146.724 237.574 149.694 240.756C150.312 241.414 151.131 241.856 152.026 242.015C153.267 242.192 154.517 242.304 155.77 242.351C158.23 242.54 160.699 242.601 163.166 242.533C163.272 242.528 165.757 242.525 164.07 242.241C163.836 242.194 163.624 242.074 163.465 241.898C163.306 241.722 163.209 241.5 163.189 241.265C163.007 237.025 163.09 232.758 162.41 228.591Z" fill="#03AA89"/>
<path d="M159.439 228.367C159.285 227.885 160.772 228.416 160.958 228.402C162.785 228.256 164.715 227.197 166.173 225.713C166.469 225.412 166.763 225.108 167.057 224.802C179.05 212.194 192.719 201.249 207.691 192.265C215.016 187.894 221.4 185.039 229.053 181.573C229.36 181.435 230.898 180.92 231.18 181.011C237.509 183.044 243.838 185.078 250.167 187.112L251.37 187.497C251.456 187.526 251.535 187.573 251.602 187.636C251.668 187.698 251.72 187.774 251.753 187.858C251.787 187.942 251.802 188.032 251.796 188.122C251.791 188.212 251.766 188.3 251.723 188.38C251.233 189.255 250.446 189.431 249.697 189.671C242.49 191.987 235.28 194.277 228.266 197.345C210.764 204.977 195.112 216.208 182.357 230.287C179.234 233.707 176.814 236.926 174.099 240.02C173.172 241.083 171.884 241.778 170.477 241.974C169.521 242.105 168.504 242.296 167.622 242.335C165.996 242.407 164.427 242.67 162.802 242.529C161.407 242.408 160.194 241.494 160.109 240.114C159.869 236.209 160.598 231.998 159.439 228.367Z" fill="#03AA89"/>
<path d="M159.439 228.367C159.285 227.885 160.772 228.416 160.958 228.402C162.785 228.256 164.715 227.197 166.173 225.713C166.469 225.412 166.763 225.108 167.057 224.802C179.05 212.194 192.719 201.249 207.691 192.265C215.016 187.894 221.4 185.039 229.053 181.573C229.36 181.435 230.898 180.92 231.18 181.011C237.509 183.044 243.838 185.078 250.167 187.112L251.37 187.497C251.456 187.526 251.535 187.573 251.602 187.636C251.668 187.698 251.72 187.774 251.753 187.858C251.787 187.942 251.802 188.032 251.796 188.122C251.791 188.212 251.766 188.3 251.723 188.38C251.233 189.255 250.446 189.431 249.697 189.671C242.49 191.987 235.28 194.277 228.266 197.345C210.764 204.977 195.112 216.208 182.357 230.287C179.234 233.707 176.814 236.926 174.099 240.02C173.172 241.083 171.884 241.778 170.477 241.974C169.521 242.105 168.504 242.296 167.622 242.335C165.996 242.407 164.427 242.67 162.802 242.529C161.407 242.408 160.194 241.494 160.109 240.114C159.869 236.209 160.598 231.998 159.439 228.367Z" fill="#03AA89"/>
<path d="M159.439 228.367C159.285 227.885 160.772 228.416 160.958 228.402C162.785 228.256 164.715 227.197 166.173 225.713C166.469 225.412 166.763 225.108 167.057 224.802C179.05 212.194 192.719 201.249 207.691 192.265C215.016 187.894 221.4 185.039 229.053 181.573C229.36 181.435 230.898 180.92 231.18 181.011C237.509 183.044 243.838 185.078 250.167 187.112L251.37 187.497C251.456 187.526 251.535 187.573 251.602 187.636C251.668 187.698 251.72 187.774 251.753 187.858C251.787 187.942 251.802 188.032 251.796 188.122C251.791 188.212 251.766 188.3 251.723 188.38C251.233 189.255 250.446 189.431 249.697 189.671C242.49 191.987 235.28 194.277 228.266 197.345C210.764 204.977 195.112 216.208 182.357 230.287C179.234 233.707 176.814 236.926 174.099 240.02C173.172 241.083 171.884 241.778 170.477 241.974C169.521 242.105 168.504 242.296 167.622 242.335C165.996 242.407 164.427 242.67 162.802 242.529C161.407 242.408 160.194 241.494 160.109 240.114C159.869 236.209 160.598 231.998 159.439 228.367ZM183.705 236.532C183.662 236.506 183.626 236.471 183.599 236.43C183.572 236.388 183.555 236.341 183.548 236.293C183.542 236.244 183.547 236.194 183.562 236.147C183.578 236.101 183.604 236.058 183.638 236.022C183.81 235.839 183.992 235.666 184.185 235.504C195.893 226.146 208.524 218.663 222.441 213.795C229.868 211.221 237.546 209.414 245.351 208.403C247.692 208.091 250.014 207.609 252.373 207.458C254.932 207.293 257.451 207.453 259.797 208.716C262.158 209.988 263.797 212.003 264.934 214.534C265.076 214.851 265.027 214.981 264.837 215.089C264.288 215.379 263.665 215.505 263.044 215.451C254.944 214.955 246.814 215.266 238.777 216.38C224.799 218.301 211.447 222.561 198.649 228.875C193.968 231.185 189.437 233.805 184.909 236.433C184.307 236.782 184.209 236.84 183.705 236.531V236.532Z" fill="#03AA89"/>
<path d="M183.704 236.53C183.662 236.504 183.625 236.469 183.598 236.428C183.571 236.386 183.554 236.34 183.548 236.291C183.541 236.242 183.546 236.192 183.562 236.146C183.577 236.099 183.603 236.056 183.637 236.02C183.809 235.837 183.992 235.664 184.185 235.502C195.892 226.144 208.523 218.661 222.44 213.793C229.867 211.219 237.545 209.412 245.35 208.401C247.691 208.09 250.013 207.607 252.373 207.456C254.931 207.292 257.451 207.451 259.797 208.714C262.157 209.986 263.796 212.001 264.933 214.532C265.075 214.849 265.026 214.979 264.836 215.087C264.287 215.377 263.664 215.503 263.044 215.449C254.944 214.953 246.814 215.265 238.777 216.378C224.799 218.299 211.446 222.559 198.649 228.873C193.967 231.183 189.436 233.803 184.909 236.432C184.307 236.78 184.208 236.838 183.704 236.529V236.53Z" fill="#03AA89"/>
</g>
<defs>
<filter id="filter0_d_3671_29218" x="0" y="0" width="322" height="321.072" filterUnits="userSpaceOnUse" color-interpolation-filters="sRGB">
<feFlood flood-opacity="0" result="BackgroundImageFix"/>
<feColorMatrix in="SourceAlpha" type="matrix" values="0 0 0 0 0 0 0 0 0 0 0 0 0 0 0 0 0 0 127 0" result="hardAlpha"/>
<feOffset dy="1"/>
<feGaussianBlur stdDeviation="0.5"/>
<feComposite in2="hardAlpha" operator="out"/>
<feColorMatrix type="matrix" values="0 0 0 0 0 0 0 0 0 0 0 0 0 0 0 0 0 0 0.25 0"/>
<feBlend mode="normal" in2="BackgroundImageFix" result="effect1_dropShadow_3671_29218"/>
<feBlend mode="normal" in="SourceGraphic" in2="effect1_dropShadow_3671_29218" result="shape"/>
</filter>
<clipPath id="clip0_3671_29218">
<rect width="320" height="319.072" fill="white" transform="translate(1)"/>
</clipPath>
</defs>
</svg>
