<svg width="226" height="305" viewBox="0 0 226 305" fill="none" xmlns="http://www.w3.org/2000/svg">
<g clip-path="url(#clip0_3671_29240)">
<path fill-rule="evenodd" clip-rule="evenodd" d="M14.1332 149.287C12.8338 157.801 20.848 176.151 43.6843 196.835C66.5205 217.52 72.388 225.567 77.9568 233.806C88.9008 249.982 101.362 249.676 125.643 241.515C149.924 233.354 202.569 207.68 211.056 183.507C217.335 165.62 157.079 142.504 132.402 137.478C107.726 132.452 20.2629 109.256 14.1332 149.287Z" fill="#A60A3D"/>
<path fill-rule="evenodd" clip-rule="evenodd" d="M149.08 136.661C122.798 128.446 43.4095 114.117 23.515 131.216C3.6206 148.314 17.8655 174.401 42.7154 180.886C67.5653 187.372 104.84 181.243 131.09 186.085C157.34 190.926 196.802 209.959 209.72 186.477C222.637 162.995 177.86 145.662 149.08 136.661Z" fill="#DDC0CA"/>
<path fill-rule="evenodd" clip-rule="evenodd" d="M31.8366 132.557C24.1694 136.123 20.5053 145.524 23.4794 154.599C26.4535 163.674 43.8218 178.998 69.7249 177.315C95.628 175.632 119.09 175.295 134.21 177.46C149.331 179.626 186.827 197.446 197.751 186.092C208.675 174.738 199.93 163.728 180.928 153.559C169.294 147.321 122.96 133.259 97.2017 130.501C77.2427 128.363 44.9637 126.46 31.8366 132.557Z" fill="#A60A3D"/>
<path fill-rule="evenodd" clip-rule="evenodd" d="M136.607 158.126C134.961 161.41 118.383 164.568 115.829 158.087C114.59 154.948 105.478 129.952 103.319 110.468C102.109 99.4314 92.6577 47.7834 103.82 20.0879C106.878 12.5 166.368 15.4307 168.055 29.3236C169.233 39.0576 149.121 67.8713 143.439 89.8661C136.664 116.208 141.619 148.156 136.607 158.126Z" fill="#A60A3D"/>
<path fill-rule="evenodd" clip-rule="evenodd" d="M117.387 229.466C117.387 226.865 114.586 229.466 111.132 229.466C107.678 229.466 102.859 228.826 102.859 231.428C102.859 234.029 106.669 240.844 110.123 240.844C113.577 240.844 117.387 232.067 117.387 229.466Z" fill="#DDC0CA"/>
<path fill-rule="evenodd" clip-rule="evenodd" d="M73.647 188.27C73.647 184.181 69.2445 188.27 63.8129 188.27C58.3813 188.27 50.8027 187.265 50.8027 191.354C50.8027 195.442 65.6771 200.73 71.1087 200.73C76.5403 200.73 73.647 192.346 73.647 188.27Z" fill="#DDC0CA"/>
<path fill-rule="evenodd" clip-rule="evenodd" d="M143.213 203.963C143.213 200.063 137.135 199.255 133.124 199.255C129.113 199.255 119.807 196.925 119.807 200.825C119.807 204.724 113.375 217.695 117.386 217.695C121.397 217.695 143.213 207.863 143.213 203.963Z" fill="#DDC0CA"/>
<path fill-rule="evenodd" clip-rule="evenodd" d="M90.7527 220.836C90.7527 217.367 86.6528 212.597 83.0855 212.597C79.5182 212.597 76.6289 217.76 76.6289 221.228C76.6289 224.696 80.3253 230.252 83.8926 230.252C87.4599 230.252 90.7527 224.304 90.7527 220.836Z" fill="#DDC0CA"/>
<path fill-rule="evenodd" clip-rule="evenodd" d="M107.702 189.839C107.702 186.37 103.199 185.915 99.6314 185.915C97.919 185.915 96.2768 186.577 95.066 187.754C93.8551 188.931 93.1748 190.528 93.1748 192.193C93.1748 195.661 99.2924 200.824 102.86 200.824C106.427 200.824 107.702 193.307 107.702 189.839Z" fill="#DDC0CA"/>
<path fill-rule="evenodd" clip-rule="evenodd" d="M148.055 223.974C148.055 220.506 143.955 217.696 140.388 217.696C136.821 217.696 132.317 220.506 132.317 223.974C132.317 227.442 134.803 232.605 138.37 232.605C141.938 232.605 148.055 227.442 148.055 223.974Z" fill="#DDC0CA"/>
<path fill-rule="evenodd" clip-rule="evenodd" d="M175.899 209.457C175.899 207.792 175.219 206.195 174.008 205.018C172.797 203.841 171.155 203.179 169.443 203.179C165.875 203.179 159.758 202.457 159.758 205.926C159.758 209.394 165.875 215.734 169.443 215.734C171.155 215.734 172.797 215.073 174.008 213.896C175.219 212.718 175.899 211.122 175.899 209.457Z" fill="#DDC0CA"/>
</g>
<path d="M28.22 304.52V289.6C28.22 286.907 27.14 285.56 24.98 285.56C24.3133 285.56 23.7267 285.787 23.22 286.24C22.7133 286.667 22.3133 287.213 22.02 287.88C21.7533 288.547 21.5933 289.227 21.54 289.92L20.74 304L15.9 304.52V289.6C15.9 288.267 15.6733 287.267 15.22 286.6C14.7667 285.907 14.02 285.56 12.98 285.56C12.0733 285.56 11.26 285.853 10.54 286.44C9.82 287.027 9.31333 287.787 9.02 288.72V304L4.14 304.52L3.34 281.12L9.02 281.8V284.36C9.47333 283.4 10.22 282.653 11.26 282.12C12.3 281.587 13.5667 281.32 15.06 281.32C16.4733 281.32 17.6867 281.64 18.7 282.28C19.74 282.893 20.4733 283.733 20.9 284.8C21.3533 283.733 22.1133 282.893 23.18 282.28C24.2467 281.64 25.5667 281.32 27.14 281.32C28.4467 281.32 29.6067 281.6 30.62 282.16C31.6333 282.72 32.4333 283.507 33.02 284.52C33.6067 285.533 33.9 286.733 33.9 288.12V288.64L33.1 304L28.22 304.52ZM59.6709 304.4C58.0443 303.52 56.9909 302.387 56.5109 301C56.1376 301.72 55.5509 302.333 54.7509 302.84C53.9509 303.347 53.0309 303.733 51.9909 304C50.9776 304.293 49.9376 304.44 48.8709 304.44C46.6843 304.44 44.9376 303.733 43.6309 302.32C42.3509 300.88 41.6443 299.067 41.5109 296.88L40.7109 281.12L46.3909 281.8V295.96C46.3909 297.32 46.7509 298.347 47.4709 299.04C48.1909 299.733 49.1643 300.08 50.3909 300.08C51.5376 300.08 52.5776 299.773 53.5109 299.16C54.4709 298.547 55.1243 297.653 55.4709 296.48V281.12L61.1509 281.8L60.4709 296.88V297.12C60.4709 298.107 60.7243 299.133 61.2309 300.2C61.7643 301.267 62.5243 302.253 63.5109 303.16L59.6709 304.4ZM83.6847 287.68C82.9114 286.933 81.8314 286.32 80.4447 285.84C79.058 285.36 77.6847 285.12 76.3247 285.12C74.9914 285.12 74.0447 285.347 73.4847 285.8C72.9247 286.253 72.6447 286.787 72.6447 287.4C72.6447 287.987 72.978 288.507 73.6447 288.96C74.338 289.413 75.5514 289.813 77.2847 290.16C80.298 290.747 82.498 291.667 83.8847 292.92C85.298 294.147 86.0047 295.773 86.0047 297.8C86.0047 299.933 85.1914 301.573 83.5647 302.72C81.9647 303.867 79.5914 304.44 76.4447 304.44C75.1114 304.44 73.778 304.187 72.4447 303.68C71.138 303.147 69.9647 302.507 68.9247 301.76C67.9114 300.987 67.138 300.267 66.6047 299.6L68.5647 297C69.0714 297.533 69.7914 298.067 70.7247 298.6C71.6847 299.133 72.698 299.573 73.7647 299.92C74.858 300.267 75.818 300.44 76.6447 300.44C78.0047 300.44 78.9914 300.227 79.6047 299.8C80.2447 299.373 80.5647 298.773 80.5647 298C80.5647 297.147 80.1114 296.453 79.2047 295.92C78.3247 295.387 76.938 294.92 75.0447 294.52C72.298 293.96 70.3247 293.093 69.1247 291.92C67.9247 290.747 67.3247 289.347 67.3247 287.72C67.3247 285.88 68.1114 284.36 69.6847 283.16C71.258 281.933 73.498 281.32 76.4047 281.32C77.7647 281.32 79.0447 281.507 80.2447 281.88C81.4714 282.227 82.5247 282.68 83.4047 283.24C84.3114 283.8 84.9647 284.36 85.3647 284.92L83.6847 287.68ZM106.509 304.56V289.2C106.509 287.867 106.096 286.853 105.269 286.16C104.469 285.44 103.496 285.08 102.349 285.08C101.203 285.08 100.149 285.387 99.1894 286C98.256 286.613 97.6027 287.507 97.2294 288.68V304L92.3494 304.52L91.5494 272.8L97.2294 272V284.08C97.7627 283.28 98.5627 282.627 99.6294 282.12C100.723 281.587 102.149 281.32 103.909 281.32C105.456 281.32 106.829 281.64 108.029 282.28C109.256 282.893 110.229 283.747 110.949 284.84C111.669 285.933 112.029 287.2 112.029 288.64V289.08L111.229 304L106.509 304.56ZM119.643 304.56L118.843 281.12L124.523 281.8V284.08C125.03 283.44 125.536 282.92 126.043 282.52C126.576 282.12 127.243 281.827 128.043 281.64C128.843 281.453 129.896 281.347 131.203 281.32L132.123 286.2C131.243 286.04 130.443 285.96 129.723 285.96C127.03 285.96 125.296 287.04 124.523 289.2V304L119.643 304.56ZM147.078 304.44C144.758 304.44 142.745 303.973 141.038 303.04C139.358 302.08 138.051 300.733 137.118 299C136.185 297.267 135.718 295.24 135.718 292.92C135.718 290.573 136.185 288.533 137.118 286.8C138.051 285.067 139.358 283.72 141.038 282.76C142.745 281.8 144.758 281.32 147.078 281.32C149.425 281.32 151.438 281.8 153.118 282.76C154.825 283.72 156.131 285.067 157.038 286.8C157.945 288.533 158.398 290.573 158.398 292.92C158.398 295.24 157.945 297.267 157.038 299C156.131 300.733 154.825 302.08 153.118 303.04C151.438 303.973 149.425 304.44 147.078 304.44ZM147.718 300.76C149.398 300.627 150.705 299.92 151.638 298.64C152.571 297.333 153.038 295.667 153.038 293.64C153.038 293.427 153.038 293.227 153.038 293.04C153.038 292.827 153.025 292.613 152.998 292.4C152.811 290.107 152.171 288.307 151.078 287C150.011 285.693 148.651 285.04 146.998 285.04C146.891 285.04 146.798 285.053 146.718 285.08C146.638 285.08 146.545 285.08 146.438 285.08C144.811 285.187 143.505 285.893 142.518 287.2C141.558 288.507 141.078 290.187 141.078 292.24C141.078 292.427 141.078 292.627 141.078 292.84C141.078 293.027 141.091 293.227 141.118 293.44C141.305 295.707 141.958 297.507 143.078 298.84C144.198 300.147 145.571 300.8 147.198 300.8C147.278 300.8 147.358 300.8 147.438 300.8C147.545 300.773 147.638 300.76 147.718 300.76ZM174.255 304.44C171.935 304.44 169.921 303.973 168.215 303.04C166.535 302.08 165.228 300.733 164.295 299C163.361 297.267 162.895 295.24 162.895 292.92C162.895 290.573 163.361 288.533 164.295 286.8C165.228 285.067 166.535 283.72 168.215 282.76C169.921 281.8 171.935 281.32 174.255 281.32C176.601 281.32 178.615 281.8 180.295 282.76C182.001 283.72 183.308 285.067 184.215 286.8C185.121 288.533 185.575 290.573 185.575 292.92C185.575 295.24 185.121 297.267 184.215 299C183.308 300.733 182.001 302.08 180.295 303.04C178.615 303.973 176.601 304.44 174.255 304.44ZM174.895 300.76C176.575 300.627 177.881 299.92 178.815 298.64C179.748 297.333 180.215 295.667 180.215 293.64C180.215 293.427 180.215 293.227 180.215 293.04C180.215 292.827 180.201 292.613 180.175 292.4C179.988 290.107 179.348 288.307 178.255 287C177.188 285.693 175.828 285.04 174.175 285.04C174.068 285.04 173.975 285.053 173.895 285.08C173.815 285.08 173.721 285.08 173.615 285.08C171.988 285.187 170.681 285.893 169.695 287.2C168.735 288.507 168.255 290.187 168.255 292.24C168.255 292.427 168.255 292.627 168.255 292.84C168.255 293.027 168.268 293.227 168.295 293.44C168.481 295.707 169.135 297.507 170.255 298.84C171.375 300.147 172.748 300.8 174.375 300.8C174.455 300.8 174.535 300.8 174.615 300.8C174.721 300.773 174.815 300.76 174.895 300.76ZM216.151 304.52V289.6C216.151 286.907 215.071 285.56 212.911 285.56C212.245 285.56 211.658 285.787 211.151 286.24C210.645 286.667 210.245 287.213 209.951 287.88C209.685 288.547 209.525 289.227 209.471 289.92L208.671 304L203.831 304.52V289.6C203.831 288.267 203.605 287.267 203.151 286.6C202.698 285.907 201.951 285.56 200.911 285.56C200.005 285.56 199.191 285.853 198.471 286.44C197.751 287.027 197.245 287.787 196.951 288.72V304L192.071 304.52L191.271 281.12L196.951 281.8V284.36C197.405 283.4 198.151 282.653 199.191 282.12C200.231 281.587 201.498 281.32 202.991 281.32C204.405 281.32 205.618 281.64 206.631 282.28C207.671 282.893 208.405 283.733 208.831 284.8C209.285 283.733 210.045 282.893 211.111 282.28C212.178 281.64 213.498 281.32 215.071 281.32C216.378 281.32 217.538 281.6 218.551 282.16C219.565 282.72 220.365 283.507 220.951 284.52C221.538 285.533 221.831 286.733 221.831 288.12V288.64L221.031 304L216.151 304.52Z" fill="#161618"/>
<defs>
<clipPath id="clip0_3671_29240">
<rect width="198" height="231" fill="white" transform="matrix(1 0 0 -1 14 247)"/>
</clipPath>
</defs>
</svg>
