<svg width="258" height="320" viewBox="0 0 258 320" fill="none" xmlns="http://www.w3.org/2000/svg">
<g clip-path="url(#clip0_3671_29179)">
<path d="M38.6244 287.478C62.8363 307.641 95.0104 318.729 129.216 318.697C137.748 318.689 146.275 317.975 154.568 316.574C183.146 311.754 209.168 298.709 227.831 279.846C246.75 260.732 257.154 236.523 257.116 211.683L256.833 11.7356C256.825 5.9083 251.159 1.19466 244.186 1.20384L13.3499 1.43356C12.51 1.4358 11.6736 1.5074 10.8594 1.6405C8.43813 2.04989 6.19098 3.049 4.42162 4.52817C2.05331 6.50649 0.724654 9.19023 0.732312 11.9896L1.01506 211.937C1.05313 240.489 14.4124 267.314 38.6244 287.478ZM129.145 267.075C111.527 267.094 97.1824 255.144 97.1629 240.443C97.1449 227.784 107.897 216.777 122.729 214.275C124.8 213.924 126.931 213.748 129.069 213.748C146.687 213.729 161.032 225.679 161.051 240.38C161.069 253.039 150.317 264.046 135.485 266.548C133.414 266.899 131.283 267.076 129.145 267.075Z" fill="#0098A7"/>
<path d="M129.17 306.757L127.98 306.759C65.6063 306.322 15.3743 264.091 15.2593 212.13L13.6731 212.012L15.2593 212.129L14.8068 13.4708L242.471 13.1073L242.923 211.527C242.923 211.527 242.923 211.527 242.923 211.527C243.039 263.933 192.175 306.66 129.17 306.757ZM175.32 240.476C175.273 219.008 154.375 201.769 128.932 201.808C103.57 201.847 82.9387 219.026 82.9859 240.38C83.0333 261.848 103.931 279.087 129.374 279.048C154.736 279.009 175.367 261.83 175.32 240.476Z" fill="#0098A7" stroke="#F9F9FA" stroke-width="3"/>
<g clip-path="url(#clip1_3671_29179)">
<path d="M129 280C162.137 280 189 253.137 189 220C189 186.863 162.137 160 129 160C95.8629 160 69 186.863 69 220C69 253.137 95.8629 280 129 280Z" fill="#F9F9FA"/>
<path d="M104.722 179.672C104.265 178.325 106.021 177.351 106.921 178.453L119.313 193.617C120.248 194.761 122.099 194.225 122.277 192.758L124.637 173.361C124.809 171.947 126.816 171.833 127.148 173.218L131.7 192.221C132.044 193.659 133.946 193.98 134.744 192.735L145.305 176.254C146.073 175.056 147.93 175.821 147.63 177.213L143.506 196.35C143.194 197.795 144.767 198.907 146.026 198.132L162.672 187.88C163.885 187.134 165.226 188.631 164.35 189.754L152.328 205.172C151.418 206.339 152.354 208.026 153.825 207.873L173.271 205.848C174.687 205.701 175.247 207.631 173.971 208.264L156.455 216.948C155.131 217.605 155.241 219.528 156.631 220.03L175.047 226.673C176.385 227.156 176.051 229.137 174.627 229.153L155.054 229.376C153.575 229.393 152.84 231.176 153.877 232.23L167.58 246.16C168.579 247.176 167.418 248.817 166.128 248.214L148.429 239.936C147.09 239.31 145.654 240.595 146.129 241.995L152.422 260.539C152.88 261.886 151.123 262.86 150.223 261.758L137.831 246.595C136.896 245.45 135.045 245.986 134.867 247.454L132.507 266.85C132.335 268.264 130.328 268.379 129.996 266.993L125.444 247.991C125.1 246.552 123.198 246.231 122.4 247.476L111.839 263.957C111.071 265.156 109.214 264.39 109.514 262.999L113.638 243.861C113.95 242.416 112.377 241.304 111.118 242.079L94.472 252.331C93.2593 253.078 91.9185 251.58 92.7942 250.457L104.816 235.039C105.726 233.872 104.791 232.185 103.319 232.338L83.8732 234.363C82.4566 234.511 81.8972 232.58 83.1733 231.947L100.689 223.263C102.013 222.607 101.903 220.683 100.513 220.182L82.0975 213.538C80.7586 213.055 81.0933 211.074 82.5167 211.058L102.09 210.836C103.569 210.819 104.304 209.036 103.267 207.981L89.5637 194.051C88.5647 193.036 89.7256 191.394 91.016 191.997L108.715 200.275C110.054 200.901 111.49 199.616 111.015 198.216L104.722 179.672Z" fill="url(#paint0_radial_3671_29179)" stroke="#03AA89" stroke-width="0.4"/>
<path d="M124.587 267.104C124.189 268.471 122.192 268.261 122.086 266.842L120.633 247.313C120.524 245.839 118.7 245.217 117.712 246.316L104.654 260.852C103.702 261.911 101.992 260.854 102.515 259.529L109.686 241.352C110.229 239.976 108.855 238.622 107.487 239.184L89.383 246.627C88.0664 247.168 86.9845 245.476 88.0282 244.508L102.384 231.197C103.467 230.192 102.817 228.379 101.341 228.292L81.8253 227.142C80.4035 227.058 80.1641 225.062 81.5257 224.645L100.217 218.91C101.631 218.477 101.833 216.558 100.54 215.84L83.4491 206.344C82.2041 205.653 82.8533 203.75 84.2614 203.964L103.59 206.897C105.051 207.118 106.065 205.48 105.214 204.272L93.9394 188.267C93.1197 187.103 94.5299 185.673 95.7051 186.476L111.866 197.52C113.087 198.355 114.712 197.316 114.468 195.857L111.233 176.587C110.997 175.182 112.889 174.503 113.6 175.737L123.35 192.67C124.088 193.951 126.002 193.721 126.415 192.303L131.897 173.503C132.295 172.137 134.292 172.346 134.398 173.766L135.851 193.294C135.96 194.768 137.784 195.391 138.772 194.291L151.83 179.756C152.782 178.696 154.492 179.753 153.969 181.078L146.798 199.255C146.255 200.631 147.629 201.985 148.997 201.423L167.101 193.98C168.418 193.439 169.5 195.131 168.456 196.099L154.1 209.41C153.017 210.415 153.667 212.228 155.143 212.315L174.659 213.465C176.08 213.549 176.32 215.545 174.958 215.962L156.267 221.697C154.853 222.131 154.651 224.049 155.944 224.768L173.035 234.263C174.28 234.954 173.631 236.857 172.223 236.643L152.894 233.71C151.433 233.489 150.419 235.127 151.27 236.335L162.545 252.34C163.364 253.504 161.954 254.934 160.779 254.131L144.618 243.087C143.397 242.252 141.772 243.291 142.016 244.75L145.251 264.021C145.487 265.425 143.595 266.104 142.884 264.87L133.134 247.937C132.396 246.656 130.483 246.886 130.069 248.305L124.587 267.104Z" fill="url(#paint1_radial_3671_29179)" stroke="#03AA89" stroke-width="0.4"/>
<path d="M175.256 218.585C176.656 218.839 176.656 220.847 175.256 221.1L155.986 224.586C154.531 224.85 154.103 226.729 155.3 227.596L171.121 239.063C172.274 239.899 171.401 241.71 170.029 241.329L151.202 236.097C149.777 235.701 148.573 237.209 149.276 238.51L158.57 255.737C159.246 256.99 157.676 258.243 156.605 257.306L141.866 244.421C140.753 243.448 139.018 244.285 139.086 245.761L139.982 265.29C140.047 266.713 138.087 267.16 137.53 265.849L129.873 247.86C129.294 246.499 127.365 246.499 126.785 247.86L119.129 265.849C118.571 267.16 116.611 266.713 116.676 265.29L117.573 245.761C117.64 244.285 115.905 243.448 114.792 244.421L100.054 257.306C98.9819 258.243 97.412 256.99 98.0879 255.737L107.382 238.51C108.085 237.209 106.882 235.701 105.457 236.097L86.6296 241.329C85.2571 241.71 84.3842 239.899 85.5376 239.063L101.358 227.596C102.555 226.729 102.127 224.85 100.672 224.586L81.4027 221.1C80.0022 220.847 80.0022 218.839 81.4027 218.585L100.672 215.099C102.127 214.836 102.555 212.957 101.358 212.09L85.5376 200.623C84.3842 199.787 85.2571 197.975 86.6296 198.357L105.457 203.588C106.882 203.984 108.085 202.477 107.382 201.175L98.0879 183.948C97.412 182.695 98.9819 181.442 100.054 182.379L114.792 195.265C115.905 196.237 117.64 195.401 117.573 193.925L116.676 174.395C116.611 172.972 118.571 172.526 119.129 173.836L126.785 191.826C127.365 193.187 129.294 193.187 129.873 191.826L137.53 173.836C138.087 172.526 140.047 172.972 139.982 174.395L139.086 193.925C139.018 195.401 140.753 196.237 141.866 195.265L156.605 182.379C157.676 181.442 159.246 182.695 158.57 183.948L149.276 201.175C148.573 202.477 149.777 203.984 151.202 203.588L170.029 198.357C171.401 197.975 172.274 199.787 171.121 200.623L155.3 212.09C154.103 212.957 154.531 214.836 155.986 215.099L175.256 218.585Z" fill="url(#paint2_radial_3671_29179)" stroke="#03AA89" stroke-width="0.4"/>
</g>
<path d="M22.8596 51V38.04H24.6676V43.8H25.3396L27.6596 38.04H29.4676L26.9076 44.2L29.7876 51H27.9796L25.3556 44.68H24.6676V51H22.8596ZM30.9846 51V38.04H32.5846V47.016L36.3766 38.04H37.6726V51H36.0886V41.88L32.3286 51H30.9846ZM39.7993 51V38.04H41.5753V51H39.7993ZM41.1913 36.104V34.328H42.9193V36.104H41.1913ZM38.4393 36.104V34.328H40.1673V36.104H38.4393ZM43.6721 51V38.04H46.6481C47.2347 38.04 47.7414 38.104 48.1681 38.232C48.6054 38.36 48.9681 38.5573 49.2561 38.824C49.5441 39.0907 49.7574 39.432 49.8961 39.848C50.0347 40.2533 50.1041 40.7333 50.1041 41.288C50.1041 41.8213 50.0347 42.2853 49.8961 42.68C49.7681 43.064 49.5654 43.368 49.2881 43.592C49.0214 43.816 48.6747 43.96 48.2481 44.024C48.7707 44.1413 49.1921 44.344 49.5121 44.632C49.8321 44.9093 50.0667 45.272 50.2161 45.72C50.3761 46.1573 50.4561 46.6853 50.4561 47.304C50.4561 47.8587 50.3921 48.3653 50.2641 48.824C50.1361 49.2827 49.9334 49.672 49.6561 49.992C49.3894 50.312 49.0427 50.5627 48.6161 50.744C48.2001 50.9147 47.7041 51 47.1281 51H43.6721ZM45.4801 49.704H46.6961C47.5067 49.704 48.0454 49.5173 48.3121 49.144C48.5894 48.76 48.7281 48.1467 48.7281 47.304C48.7281 46.76 48.6534 46.3067 48.5041 45.944C48.3654 45.5707 48.1361 45.2933 47.8161 45.112C47.5067 44.92 47.0854 44.824 46.5521 44.824H45.4801V49.704ZM45.4801 43.448H46.5521C47.0641 43.448 47.4641 43.3787 47.7521 43.24C48.0401 43.0907 48.2427 42.856 48.3601 42.536C48.4774 42.216 48.5361 41.8 48.5361 41.288C48.5361 40.6907 48.4454 40.2587 48.2641 39.992C48.0827 39.7253 47.8001 39.56 47.4161 39.496C47.0321 39.4213 46.5307 39.384 45.9121 39.384H45.4801V43.448ZM55.3107 51.144C54.3934 51.144 53.6787 50.952 53.1667 50.568C52.6654 50.184 52.3134 49.6667 52.1107 49.016C51.9187 48.3653 51.8227 47.64 51.8227 46.84V42.264C51.8227 41.3893 51.9187 40.6267 52.1107 39.976C52.3134 39.3253 52.6654 38.824 53.1667 38.472C53.6787 38.1093 54.3934 37.928 55.3107 37.928C56.1214 37.928 56.7614 38.0773 57.2307 38.376C57.7107 38.6747 58.052 39.1013 58.2547 39.656C58.468 40.2107 58.5747 40.8773 58.5747 41.656V42.68H56.8627V41.768C56.8627 41.288 56.836 40.8667 56.7827 40.504C56.74 40.1307 56.612 39.8427 56.3987 39.64C56.1854 39.4373 55.828 39.336 55.3267 39.336C54.8147 39.336 54.4414 39.448 54.2067 39.672C53.972 39.8853 53.8174 40.1947 53.7427 40.6C53.6787 40.9947 53.6467 41.4587 53.6467 41.992V47.128C53.6467 47.7787 53.7 48.296 53.8067 48.68C53.9134 49.0533 54.0894 49.32 54.3347 49.48C54.58 49.64 54.9107 49.72 55.3267 49.72C55.8174 49.72 56.1694 49.6133 56.3827 49.4C56.596 49.176 56.7294 48.872 56.7827 48.488C56.836 48.104 56.8627 47.656 56.8627 47.144V46.184H58.5747V47.144C58.5747 47.9333 58.4787 48.632 58.2867 49.24C58.0947 49.8373 57.764 50.3067 57.2947 50.648C56.8254 50.9787 56.164 51.144 55.3107 51.144ZM60.2971 51V38.04H62.1051V43.432H62.6171C63.5557 43.432 64.3291 43.544 64.9371 43.768C65.5451 43.9813 65.9984 44.36 66.2971 44.904C66.6064 45.448 66.7611 46.216 66.7611 47.208C66.7611 47.88 66.6811 48.456 66.5211 48.936C66.3611 49.4053 66.1104 49.7947 65.7691 50.104C65.4384 50.4133 65.0171 50.6427 64.5051 50.792C64.0037 50.9307 63.4011 51 62.6971 51H60.2971ZM62.1051 49.704H62.6971C63.2411 49.704 63.6837 49.6453 64.0251 49.528C64.3771 49.4 64.6384 49.1547 64.8091 48.792C64.9797 48.4293 65.0651 47.896 65.0651 47.192C65.0651 46.3067 64.8944 45.6773 64.5531 45.304C64.2117 44.9307 63.5824 44.744 62.6651 44.744H62.1051V49.704ZM68.2033 51V38.04H70.0113V43.8H70.6833L73.0033 38.04H74.8113L72.2513 44.2L75.1313 51H73.3233L70.6993 44.68H70.0113V51H68.2033ZM76.3283 51V38.04H77.9283V47.016L81.7203 38.04H83.0163V51H81.4323V41.88L77.6723 51H76.3283ZM85.0471 51V38.04H86.6471V47.016L90.4391 38.04H91.7351V51H90.1511V41.88L86.3911 51H85.0471ZM88.5511 37.032C87.7831 37.032 87.2391 36.824 86.9191 36.408C86.6097 35.992 86.4551 35.4747 86.4551 34.856H87.4471C87.4577 35.24 87.5431 35.5387 87.7031 35.752C87.8737 35.9547 88.1564 36.056 88.5511 36.056C88.9564 36.056 89.2391 35.9493 89.3991 35.736C89.5697 35.5227 89.6551 35.2293 89.6551 34.856H90.6631C90.6631 35.4747 90.5031 35.992 90.1831 36.408C89.8737 36.824 89.3297 37.032 88.5511 37.032ZM100.67 51.144C99.7527 51.144 99.0381 50.952 98.5261 50.568C98.0247 50.184 97.6727 49.6667 97.4701 49.016C97.2781 48.3653 97.1821 47.64 97.1821 46.84V42.264C97.1821 41.3893 97.2781 40.6267 97.4701 39.976C97.6727 39.3253 98.0247 38.824 98.5261 38.472C99.0381 38.1093 99.7527 37.928 100.67 37.928C101.481 37.928 102.121 38.0773 102.59 38.376C103.07 38.6747 103.411 39.1013 103.614 39.656C103.827 40.2107 103.934 40.8773 103.934 41.656V42.68H102.222V41.768C102.222 41.288 102.195 40.8667 102.142 40.504C102.099 40.1307 101.971 39.8427 101.758 39.64C101.545 39.4373 101.187 39.336 100.686 39.336C100.174 39.336 99.8007 39.448 99.5661 39.672C99.3314 39.8853 99.1767 40.1947 99.1021 40.6C99.0381 40.9947 99.0061 41.4587 99.0061 41.992V47.128C99.0061 47.7787 99.0594 48.296 99.1661 48.68C99.2727 49.0533 99.4487 49.32 99.6941 49.48C99.9394 49.64 100.27 49.72 100.686 49.72C101.177 49.72 101.529 49.6133 101.742 49.4C101.955 49.176 102.089 48.872 102.142 48.488C102.195 48.104 102.222 47.656 102.222 47.144V46.184H103.934V47.144C103.934 47.9333 103.838 48.632 103.646 49.24C103.454 49.8373 103.123 50.3067 102.654 50.648C102.185 50.9787 101.523 51.144 100.67 51.144ZM107.08 51V39.384H104.888V38.04H111.016V39.384H108.888V51H107.08ZM115.578 51.144C114.703 51.144 114.004 50.9733 113.482 50.632C112.959 50.2907 112.586 49.8053 112.362 49.176C112.138 48.536 112.026 47.7893 112.026 46.936V42.024C112.026 41.1707 112.138 40.44 112.362 39.832C112.596 39.2133 112.97 38.744 113.482 38.424C114.004 38.0933 114.703 37.928 115.578 37.928C116.452 37.928 117.146 38.0933 117.658 38.424C118.17 38.7547 118.538 39.224 118.762 39.832C118.996 40.44 119.114 41.1707 119.114 42.024V46.952C119.114 47.7947 118.996 48.5307 118.762 49.16C118.538 49.7893 118.17 50.28 117.658 50.632C117.146 50.9733 116.452 51.144 115.578 51.144ZM115.578 49.72C116.058 49.72 116.42 49.624 116.666 49.432C116.911 49.2293 117.076 48.952 117.162 48.6C117.247 48.2373 117.29 47.816 117.29 47.336V41.656C117.29 41.176 117.247 40.7653 117.162 40.424C117.076 40.072 116.911 39.8053 116.666 39.624C116.42 39.432 116.058 39.336 115.578 39.336C115.098 39.336 114.73 39.432 114.474 39.624C114.228 39.8053 114.063 40.072 113.978 40.424C113.892 40.7653 113.85 41.176 113.85 41.656V47.336C113.85 47.816 113.892 48.2373 113.978 48.6C114.063 48.952 114.228 49.2293 114.474 49.432C114.73 49.624 115.098 49.72 115.578 49.72ZM119.915 51V49.656C120.149 49.6667 120.363 49.6507 120.555 49.608C120.757 49.5653 120.933 49.464 121.083 49.304C121.243 49.144 121.381 48.8933 121.499 48.552C121.616 48.2107 121.717 47.7467 121.803 47.16C121.888 46.5733 121.963 45.832 122.027 44.936L122.459 38.04H128.155V51H126.347V39.384H124.011L123.707 44.936C123.653 45.768 123.584 46.52 123.499 47.192C123.413 47.8533 123.285 48.4347 123.115 48.936C122.955 49.4267 122.736 49.8373 122.459 50.168C122.192 50.488 121.851 50.7173 121.435 50.856C121.019 50.9947 120.512 51.0427 119.915 51ZM130.188 51V38.04H131.788V47.016L135.58 38.04H136.876V51H135.292V41.88L131.532 51H130.188ZM143.866 51V45.016C143.162 45.176 142.528 45.256 141.962 45.256C141.226 45.256 140.613 45.1493 140.122 44.936C139.642 44.712 139.28 44.376 139.034 43.928C138.8 43.48 138.682 42.92 138.682 42.248V38.04H140.506V42.248C140.506 42.6533 140.565 42.9947 140.682 43.272C140.8 43.5387 140.992 43.7413 141.258 43.88C141.525 44.008 141.877 44.072 142.314 44.072C142.538 44.072 142.778 44.056 143.034 44.024C143.301 43.992 143.578 43.944 143.866 43.88V38.04H145.69V51H143.866ZM147.703 51V38.04H149.511V43.64H152.839V38.04H154.647V51H152.839V44.936H149.511V51H147.703ZM156.672 51V38.04H158.272V47.016L162.064 38.04H163.36V51H161.776V41.88L158.016 51H156.672ZM165.391 51V38.04H166.991V47.016L170.783 38.04H172.079V51H170.495V41.88L166.735 51H165.391ZM168.895 37.032C168.127 37.032 167.583 36.824 167.263 36.408C166.953 35.992 166.799 35.4747 166.799 34.856H167.791C167.801 35.24 167.887 35.5387 168.047 35.752C168.217 35.9547 168.5 36.056 168.895 36.056C169.3 36.056 169.583 35.9493 169.743 35.736C169.913 35.5227 169.999 35.2293 169.999 34.856H171.007C171.007 35.4747 170.847 35.992 170.527 36.408C170.217 36.824 169.673 37.032 168.895 37.032ZM177.606 52.968V51.576C178.16 51.6293 178.587 51.6293 178.886 51.576C179.195 51.5227 179.408 51.4107 179.526 51.24C179.654 51.08 179.718 50.8613 179.718 50.584C179.718 50.296 179.686 49.9547 179.622 49.56L177.062 38.04H178.774L179.862 43.56L180.518 47.672L181.094 43.592L182.07 38.04H183.798L181.478 49.592C181.371 50.1147 181.28 50.5733 181.206 50.968C181.142 51.3627 181.046 51.6987 180.918 51.976C180.8 52.2533 180.619 52.472 180.374 52.632C180.128 52.792 179.782 52.8987 179.334 52.952C178.896 53.0053 178.32 53.0107 177.606 52.968ZM189.96 51V45.016C189.256 45.176 188.622 45.256 188.056 45.256C187.32 45.256 186.707 45.1493 186.216 44.936C185.736 44.712 185.374 44.376 185.128 43.928C184.894 43.48 184.776 42.92 184.776 42.248V38.04H186.6V42.248C186.6 42.6533 186.659 42.9947 186.776 43.272C186.894 43.5387 187.086 43.7413 187.352 43.88C187.619 44.008 187.971 44.072 188.408 44.072C188.632 44.072 188.872 44.056 189.128 44.024C189.395 43.992 189.672 43.944 189.96 43.88V38.04H191.784V51H189.96ZM193.797 51V38.04H199.365V39.352H195.605V43.432H196.005C196.944 43.432 197.717 43.544 198.325 43.768C198.944 43.9813 199.402 44.36 199.701 44.904C200.01 45.448 200.165 46.216 200.165 47.208C200.165 47.88 200.085 48.456 199.925 48.936C199.765 49.4053 199.514 49.7947 199.173 50.104C198.842 50.4133 198.421 50.6427 197.909 50.792C197.408 50.9307 196.805 51 196.101 51H193.797ZM195.605 49.704H196.117C196.65 49.704 197.088 49.6453 197.429 49.528C197.781 49.4 198.037 49.1547 198.197 48.792C198.368 48.4293 198.453 47.896 198.453 47.192C198.453 46.3067 198.282 45.6773 197.941 45.304C197.61 44.9307 196.986 44.744 196.069 44.744H195.605V49.704ZM205.015 51.144C204.141 51.144 203.442 50.9733 202.919 50.632C202.397 50.2907 202.023 49.8053 201.799 49.176C201.575 48.536 201.463 47.7893 201.463 46.936V42.024C201.463 41.1707 201.575 40.44 201.799 39.832C202.034 39.2133 202.407 38.744 202.919 38.424C203.442 38.0933 204.141 37.928 205.015 37.928C205.89 37.928 206.583 38.0933 207.095 38.424C207.607 38.7547 207.975 39.224 208.199 39.832C208.434 40.44 208.551 41.1707 208.551 42.024V46.952C208.551 47.7947 208.434 48.5307 208.199 49.16C207.975 49.7893 207.607 50.28 207.095 50.632C206.583 50.9733 205.89 51.144 205.015 51.144ZM205.015 49.72C205.495 49.72 205.858 49.624 206.103 49.432C206.349 49.2293 206.514 48.952 206.599 48.6C206.685 48.2373 206.727 47.816 206.727 47.336V41.656C206.727 41.176 206.685 40.7653 206.599 40.424C206.514 40.072 206.349 39.8053 206.103 39.624C205.858 39.432 205.495 39.336 205.015 39.336C204.535 39.336 204.167 39.432 203.911 39.624C203.666 39.8053 203.501 40.072 203.415 40.424C203.33 40.7653 203.287 41.176 203.287 41.656V47.336C203.287 47.816 203.33 48.2373 203.415 48.6C203.501 48.952 203.666 49.2293 203.911 49.432C204.167 49.624 204.535 49.72 205.015 49.72ZM210.328 51V38.04H213.304C213.891 38.04 214.398 38.104 214.824 38.232C215.262 38.36 215.624 38.5573 215.912 38.824C216.2 39.0907 216.414 39.432 216.552 39.848C216.691 40.2533 216.76 40.7333 216.76 41.288C216.76 41.8213 216.691 42.2853 216.552 42.68C216.424 43.064 216.222 43.368 215.944 43.592C215.678 43.816 215.331 43.96 214.904 44.024C215.427 44.1413 215.848 44.344 216.168 44.632C216.488 44.9093 216.723 45.272 216.872 45.72C217.032 46.1573 217.112 46.6853 217.112 47.304C217.112 47.8587 217.048 48.3653 216.92 48.824C216.792 49.2827 216.59 49.672 216.312 49.992C216.046 50.312 215.699 50.5627 215.272 50.744C214.856 50.9147 214.36 51 213.784 51H210.328ZM212.136 49.704H213.352C214.163 49.704 214.702 49.5173 214.968 49.144C215.246 48.76 215.384 48.1467 215.384 47.304C215.384 46.76 215.31 46.3067 215.16 45.944C215.022 45.5707 214.792 45.2933 214.472 45.112C214.163 44.92 213.742 44.824 213.208 44.824H212.136V49.704ZM212.136 43.448H213.208C213.72 43.448 214.12 43.3787 214.408 43.24C214.696 43.0907 214.899 42.856 215.016 42.536C215.134 42.216 215.192 41.8 215.192 41.288C215.192 40.6907 215.102 40.2587 214.92 39.992C214.739 39.7253 214.456 39.56 214.072 39.496C213.688 39.4213 213.187 39.384 212.568 39.384H212.136V43.448ZM218.719 51V38.04H220.319V47.016L224.111 38.04H225.407V51H223.823V41.88L220.063 51H218.719ZM227.438 51V38.04H229.038V47.016L232.83 38.04H234.126V51H232.542V41.88L228.782 51H227.438ZM230.942 37.032C230.174 37.032 229.63 36.824 229.31 36.408C229 35.992 228.846 35.4747 228.846 34.856H229.838C229.848 35.24 229.934 35.5387 230.094 35.752C230.264 35.9547 230.547 36.056 230.942 36.056C231.347 36.056 231.63 35.9493 231.79 35.736C231.96 35.5227 232.046 35.2293 232.046 34.856H233.054C233.054 35.4747 232.894 35.992 232.574 36.408C232.264 36.824 231.72 37.032 230.942 37.032ZM88.0744 75.144C87.3704 75.144 86.7837 75.0107 86.3144 74.744C85.845 74.4773 85.493 74.0933 85.2584 73.592C85.0237 73.0907 84.9064 72.4987 84.9064 71.816V71.384H86.6024C86.6024 71.4587 86.6024 71.5387 86.6024 71.624C86.6024 71.6987 86.6077 71.768 86.6184 71.832C86.6397 72.3867 86.7464 72.84 86.9384 73.192C87.1304 73.544 87.509 73.72 88.0744 73.72C88.4904 73.72 88.805 73.624 89.0184 73.432C89.2317 73.2293 89.3757 72.952 89.4504 72.6C89.525 72.2373 89.5624 71.8213 89.5624 71.352C89.5624 70.68 89.413 70.12 89.1144 69.672C88.8157 69.224 88.2504 68.9733 87.4184 68.92C87.3757 68.9093 87.3224 68.904 87.2584 68.904C87.205 68.904 87.1464 68.904 87.0824 68.904C87.029 68.904 86.9757 68.904 86.9224 68.904V67.528C86.965 67.528 87.013 67.528 87.0664 67.528C87.1304 67.528 87.189 67.528 87.2424 67.528C87.3064 67.5173 87.3544 67.512 87.3864 67.512C88.2077 67.4587 88.773 67.2453 89.0824 66.872C89.4024 66.488 89.5624 65.9547 89.5624 65.272C89.5624 64.6853 89.445 64.216 89.2104 63.864C88.9864 63.5013 88.581 63.32 87.9944 63.32C87.429 63.32 87.0237 63.5013 86.7784 63.864C86.533 64.216 86.389 64.68 86.3464 65.256C86.3464 65.32 86.3464 65.3893 86.3464 65.464C86.3464 65.528 86.3464 65.5973 86.3464 65.672H84.6344V65.24C84.6344 64.5467 84.7624 63.9547 85.0184 63.464C85.2744 62.9733 85.6477 62.5947 86.1384 62.328C86.629 62.0613 87.2264 61.928 87.9304 61.928C88.645 61.928 89.2477 62.0667 89.7384 62.344C90.2397 62.6107 90.6184 62.9947 90.8744 63.496C91.141 63.9867 91.2744 64.5787 91.2744 65.272C91.2744 66.0507 91.1037 66.6853 90.7624 67.176C90.4317 67.6667 89.9837 67.992 89.4184 68.152C89.8024 68.28 90.133 68.4827 90.4104 68.76C90.6877 69.0373 90.901 69.3947 91.0504 69.832C91.1997 70.2587 91.2744 70.7653 91.2744 71.352C91.2744 72.12 91.1677 72.792 90.9544 73.368C90.741 73.9333 90.3997 74.3707 89.9304 74.68C89.461 74.9893 88.8424 75.144 88.0744 75.144ZM92.2259 75L94.9779 62.04H96.7219L99.4899 75H97.7779L97.1859 71.736H94.5459L93.9219 75H92.2259ZM94.7859 70.44H96.9459L95.8579 64.6L94.7859 70.44ZM100.805 75V62.04H102.613V67.8H103.285L105.605 62.04H107.413L104.853 68.2L107.733 75H105.925L103.301 68.68H102.613V75H100.805ZM107.954 75V73.656C108.189 73.6667 108.402 73.6507 108.594 73.608C108.797 73.5653 108.973 73.464 109.122 73.304C109.282 73.144 109.421 72.8933 109.538 72.552C109.655 72.2107 109.757 71.7467 109.842 71.16C109.927 70.5733 110.002 69.832 110.066 68.936L110.498 62.04H116.194V75H114.386V63.384H112.05L111.746 68.936C111.693 69.768 111.623 70.52 111.538 71.192C111.453 71.8533 111.325 72.4347 111.154 72.936C110.994 73.4267 110.775 73.8373 110.498 74.168C110.231 74.488 109.89 74.7173 109.474 74.856C109.058 74.9947 108.551 75.0427 107.954 75ZM117.523 75L120.275 62.04H122.019L124.787 75H123.075L122.483 71.736H119.843L119.219 75H117.523ZM120.083 70.44H122.243L121.155 64.6L120.083 70.44ZM125.27 77.352V73.704H125.862C126.043 73.5547 126.219 73.3733 126.39 73.16C126.571 72.9467 126.736 72.6693 126.886 72.328C127.046 71.976 127.19 71.528 127.318 70.984C127.446 70.4293 127.558 69.736 127.654 68.904C127.76 68.072 127.84 67.064 127.894 65.88L128.102 62.04H133.526V73.704H134.774V77.352H133.382L133.238 75H126.806L126.662 77.352H125.27ZM127.542 73.704H131.734V63.384H129.638L129.51 66.312C129.467 67.464 129.398 68.4347 129.302 69.224C129.216 70.0027 129.11 70.648 128.982 71.16C128.864 71.6613 128.726 72.072 128.566 72.392C128.416 72.7013 128.251 72.952 128.07 73.144C127.899 73.336 127.723 73.5227 127.542 73.704ZM139.885 75V62.04H141.661V75H139.885ZM143.726 75L143.966 62.04H145.742L148.03 72.552L150.334 62.04H152.094L152.334 75H150.878L150.734 65.592L148.542 75H147.518L145.342 65.592L145.198 75H143.726ZM154.321 75V62.04H159.345V63.384H156.129V67.672H158.737V68.952H156.129V73.704H159.377V75H154.321ZM160.836 75V62.04H162.644V67.64H165.972V62.04H167.78V75H165.972V68.936H162.644V75H160.836ZM169.901 75V62.04H171.677V75H169.901Z" fill="#F9F9FA"/>
<line x1="40" y1="87.5" x2="217" y2="87.5" stroke="#F9F9FA"/>
</g>
<defs>
<radialGradient id="paint0_radial_3671_29179" cx="0" cy="0" r="1" gradientUnits="userSpaceOnUse" gradientTransform="translate(69.4993 214.744) rotate(27.3099) scale(146.871 150.618)">
<stop stop-color="#8D83FF"/>
<stop offset="0.422508" stop-color="#FFB6B1"/>
<stop offset="0.54072" stop-color="#FFDFB1"/>
<stop offset="0.714" stop-color="#DCFF7B"/>
<stop offset="1" stop-color="#11F5C8"/>
</radialGradient>
<radialGradient id="paint1_radial_3671_29179" cx="0" cy="0" r="1" gradientUnits="userSpaceOnUse" gradientTransform="translate(173.556 258.578) rotate(-117.69) scale(146.871 150.618)">
<stop stop-color="#8D83FF"/>
<stop offset="0.422508" stop-color="#FFB6B1"/>
<stop offset="0.54072" stop-color="#FFDFB1"/>
<stop offset="0.714" stop-color="#DCFF7B"/>
<stop offset="1" stop-color="#11F5C8"/>
</radialGradient>
<radialGradient id="paint2_radial_3671_29179" cx="0" cy="0" r="1" gradientUnits="userSpaceOnUse" gradientTransform="translate(161.658 170.776) rotate(146.31) scale(146.871 150.618)">
<stop stop-color="#8D83FF"/>
<stop offset="0.422508" stop-color="#FFB6B1"/>
<stop offset="0.54072" stop-color="#FFDFB1"/>
<stop offset="0.714" stop-color="#DCFF7B"/>
<stop offset="1" stop-color="#11F5C8"/>
</radialGradient>
<clipPath id="clip0_3671_29179">
<rect width="258" height="320" fill="white" transform="matrix(-1 0 0 -1 258 320)"/>
</clipPath>
<clipPath id="clip1_3671_29179">
<rect width="120" height="120" fill="white" transform="translate(69 160)"/>
</clipPath>
</defs>
</svg>
