<svg width="460" height="254" viewBox="0 0 460 254" fill="none" xmlns="http://www.w3.org/2000/svg">
<path d="M174.5 35.5817C199.987 39.6979 206.611 41.8584 210.072 71.1635C213.54 41.8584 216.347 39.043 245.643 35.5817C216.347 32.1122 213.532 29.3051 210.072 0C206.603 29.3051 203.797 32.1205 174.5 35.5817Z" fill="#8D83FF"/>
<g clip-path="url(#clip0_3671_29161)">
<path d="M53.009 84.5163C57.4385 77.9463 62.4657 71.8145 68.0261 66.1999C95.1511 39.0292 137.219 40.1 167.905 56.3343C188.489 73.073 200.44 102.157 198.559 131.438C196.766 158.873 183.72 185.789 161.85 207.217C150.19 218.601 138.179 226.251 126.137 229.887C115.855 232.992 105.556 231.869 96.548 229.115C95.897 228.914 95.2733 228.702 94.6497 228.49C92.3286 227.72 90.0887 226.825 87.9566 225.914C85.4954 224.82 83.1775 223.641 81.0769 222.481L80.9627 222.717C80.8724 222.651 80.7588 222.618 80.6646 222.554C51.8912 207.895 33.3983 183.278 31.1707 156.78C29.0589 131.279 39.2369 104.798 53.009 84.5163ZM57.465 165.495C58.2305 166.893 57.3886 167.799 57.3866 169.238C57.3939 170.776 57.7319 172.297 58.3766 173.696C59.6798 176.696 61.7775 179.124 63.9819 181.263C77.0982 194.254 95.4873 200.744 113.965 197.468C124.961 195.498 135.924 190.197 145.018 181.994C149.625 177.868 153.618 173.088 156.873 167.799C158.019 165.977 158.423 164.584 159.426 164.833C159.782 164.934 160.109 165.12 160.379 165.376C162.444 167.191 163.176 169.703 165.976 170.766C166.264 170.913 166.588 170.968 166.906 170.924C167.577 170.801 168.045 170.042 168.362 169.315C170.251 165.092 170.501 160.287 169.064 155.845C168.662 150.258 162.348 146.726 157.929 146.517C156.078 146.448 150.093 146.301 148.914 148.563C147.258 151.798 153.11 155.28 154.34 157.186C154.63 157.58 154.833 158.031 154.934 158.51C155.07 159.239 154.792 160.043 154.492 160.8C150.951 170.086 143.534 175.671 136.751 181.604C130.416 187.097 122.556 190.486 114.216 191.321C96.6853 193.138 79.7764 185.461 67.927 172.728C66.2013 170.883 62.0626 165.479 62.3873 162.402C62.5368 160.922 63.6969 159.743 64.7623 158.77C67.2692 156.411 69.7863 154.1 72.347 151.864C72.0492 149.84 69.8565 149.344 68.0114 149.402C60.9634 149.614 53.6419 153.324 48.3147 159.318C46.0826 161.872 44.1325 164.943 43.6763 168.338C43.5096 169.583 43.6084 170.968 44.4295 171.68C45.5595 172.616 47.2836 171.738 48.6352 170.909C51.55 169.086 54.4631 166.921 57.465 165.495ZM88.7265 133.433C94.7352 130.254 91.0964 117.512 90.8036 112.229C90.4902 106.839 92.357 104.025 95.5883 99.996C100.953 93.4298 100.834 85.8129 100.901 77.7543C100.956 73.3756 98.0113 65.9305 92.234 69.1184C87.3206 71.8274 90.4474 80.9202 90.2473 85.265C89.9534 91.8145 84.8495 96.7254 82.1069 102.167C79.11 108.256 78.0487 115.155 79.0679 121.926C79.5783 125.367 81.1374 132.903 85.118 134.023C86.3552 134.314 87.6496 134.103 88.7227 133.434L88.7265 133.433ZM130.368 134.203C136.376 131.024 132.741 118.281 132.449 112.998C132.108 107.642 133.998 104.795 137.262 100.79C142.575 94.2309 142.477 86.6197 142.542 78.5244C142.574 75.6908 142.323 72.3401 139.748 70.4804C133.335 65.8891 131.011 74.3074 131.333 78.9844C131.48 81.3563 131.969 83.6964 131.881 86.0844C131.61 92.6013 126.488 97.4781 123.712 102.961C120.729 109.055 119.669 115.949 120.673 122.72C121.184 126.161 122.766 133.665 126.742 134.786C127.984 135.083 129.285 134.874 130.364 134.204L130.368 134.203Z" fill="#0F049A"/>
<path d="M44.6086 171.605C45.736 172.539 47.4561 171.663 48.8046 170.836C51.6718 169.006 54.5781 166.846 57.5796 165.439C58.3433 166.834 57.5033 167.738 57.5013 169.174C57.5086 170.707 57.8459 172.225 58.4891 173.621C59.7892 176.614 61.8821 179.037 64.0815 181.171C77.1674 194.132 95.5142 200.607 113.949 197.339C124.92 195.374 135.858 190.084 144.931 181.9C149.528 177.784 153.511 173.015 156.759 167.738C157.902 165.92 158.305 164.53 159.306 164.779C159.661 164.879 159.987 165.065 160.257 165.32C162.316 167.131 163.047 169.637 165.84 170.698C166.128 170.844 166.451 170.899 166.768 170.855C167.437 170.733 167.904 169.975 168.221 169.25C170.106 165.037 170.355 160.243 168.921 155.811C168.52 150.237 162.221 146.714 157.812 146.505C155.965 146.436 149.994 146.289 148.818 148.546C147.166 151.773 153.004 155.247 154.232 157.149C154.521 157.542 154.723 157.993 154.824 158.47C154.959 159.198 154.683 159.999 154.383 160.754C150.85 170.019 143.451 175.592 136.683 181.511C130.362 186.991 122.52 190.373 114.2 191.206C96.7094 193.018 79.8395 185.359 68.0174 172.656C66.2957 170.815 62.1666 165.423 62.4905 162.353C62.6397 160.876 63.7971 159.7 64.8601 158.729C67.3612 156.376 69.8724 154.07 72.4273 151.839C72.1302 149.82 69.9425 149.325 68.1016 149.383C61.0699 149.595 53.7653 153.296 48.4503 159.277C46.2234 161.824 44.2778 164.888 43.8227 168.275C43.6908 169.513 43.7894 170.895 44.6086 171.605Z" fill="#F9F9FA"/>
<path d="M79.1301 121.979C79.6393 125.412 81.1945 132.931 85.1659 134.049C86.4016 134.34 87.695 134.128 88.7664 133.46C94.7613 130.288 91.1304 117.575 90.8384 112.305C90.5257 106.927 92.3882 104.119 95.612 100.1C100.965 93.5484 100.846 85.949 100.913 77.9089C100.967 73.5403 98.0298 66.1121 92.2658 69.2927C87.3638 71.9954 90.4833 81.0673 90.2837 85.4022C89.9905 91.9367 84.898 96.8365 82.1617 102.266C79.1717 108.341 78.1133 115.224 79.1301 121.979Z" fill="#F9F9FA"/>
<path d="M120.65 122.762C121.159 126.194 122.737 133.681 126.705 134.8C127.941 135.09 129.234 134.879 130.305 134.211C136.3 131.039 132.674 118.325 132.382 113.055C132.042 107.711 133.927 104.871 137.184 100.875C142.485 94.3306 142.386 86.7369 142.452 78.6602C142.483 75.8331 142.233 72.49 139.664 70.6347C133.266 66.0539 130.947 74.4529 131.268 79.1191C131.414 81.4856 131.903 83.8203 131.815 86.2029C131.545 92.7048 126.435 97.5703 123.665 103.041C120.693 109.124 119.641 116.006 120.65 122.762Z" fill="#F9F9FA"/>
</g>
<path d="M241.017 112.571C238.137 112.571 235.897 112.043 234.297 110.987C232.697 109.931 231.593 108.427 230.985 106.475C230.377 104.523 230.073 102.187 230.073 99.467V73.163H236.985V100.283C236.985 101.499 237.065 102.651 237.225 103.739C237.385 104.795 237.753 105.659 238.329 106.331C238.937 106.971 239.833 107.291 241.017 107.291C242.265 107.291 243.161 106.971 243.705 106.331C244.281 105.659 244.649 104.795 244.809 103.739C245.001 102.651 245.097 101.499 245.097 100.283V73.163H251.961V99.467C251.961 102.187 251.657 104.523 251.049 106.475C250.441 108.427 249.337 109.931 247.737 110.987C246.169 112.043 243.929 112.571 241.017 112.571ZM257.164 112.043V73.163H263.692V95.483L270.844 84.299H277.948L270.988 95.435L277.804 112.043H270.94L265.9 98.363L263.692 101.435V112.043H257.164ZM280.651 112.043V84.299H287.179V88.571C288.139 86.939 289.099 85.771 290.059 85.067C291.019 84.331 292.075 83.963 293.227 83.963C293.419 83.963 293.579 83.979 293.707 84.011C293.867 84.011 294.043 84.027 294.235 84.059V90.827C293.851 90.667 293.419 90.539 292.939 90.443C292.491 90.315 292.027 90.251 291.547 90.251C290.683 90.251 289.899 90.459 289.195 90.875C288.491 91.291 287.819 91.979 287.179 92.939V112.043H280.651ZM302.711 112.475C301.463 112.475 300.391 112.155 299.495 111.515C298.599 110.843 297.911 110.011 297.431 109.019C296.951 107.995 296.711 106.939 296.711 105.851C296.711 104.123 297.031 102.667 297.671 101.483C298.311 100.299 299.159 99.307 300.215 98.507C301.271 97.707 302.471 97.019 303.815 96.443C305.159 95.835 306.519 95.291 307.895 94.811V92.411C307.895 91.611 307.831 90.939 307.703 90.395C307.607 89.851 307.399 89.435 307.079 89.147C306.791 88.859 306.327 88.715 305.687 88.715C305.143 88.715 304.695 88.843 304.343 89.099C304.023 89.355 303.783 89.723 303.623 90.203C303.495 90.651 303.415 91.179 303.383 91.787L303.287 93.467L297.095 93.227C297.191 90.027 297.975 87.675 299.447 86.171C300.951 84.635 303.223 83.867 306.263 83.867C309.047 83.867 311.063 84.635 312.311 86.171C313.591 87.707 314.231 89.787 314.231 92.411V105.227C314.231 106.251 314.247 107.179 314.279 108.011C314.343 108.843 314.407 109.595 314.471 110.267C314.567 110.939 314.647 111.531 314.711 112.043H308.855C308.759 111.403 308.631 110.683 308.471 109.883C308.343 109.051 308.247 108.443 308.183 108.059C307.863 109.179 307.255 110.203 306.359 111.131C305.463 112.027 304.247 112.475 302.711 112.475ZM305.111 107.627C305.527 107.627 305.911 107.531 306.263 107.339C306.647 107.115 306.983 106.859 307.271 106.571C307.559 106.283 307.767 106.027 307.895 105.803V98.075C307.191 98.491 306.519 98.907 305.879 99.323C305.271 99.739 304.727 100.203 304.247 100.715C303.799 101.195 303.447 101.723 303.191 102.299C302.967 102.875 302.855 103.547 302.855 104.315C302.855 105.339 303.047 106.155 303.431 106.763C303.847 107.339 304.407 107.627 305.111 107.627ZM319.038 112.043V84.299H325.566V87.083C326.558 86.123 327.598 85.355 328.686 84.779C329.806 84.171 331.006 83.867 332.286 83.867C333.438 83.867 334.35 84.155 335.022 84.731C335.694 85.275 336.19 86.011 336.51 86.939C336.83 87.867 336.99 88.875 336.99 89.963V112.043H330.462V91.259C330.462 90.427 330.334 89.787 330.078 89.339C329.822 88.891 329.326 88.667 328.59 88.667C328.142 88.667 327.646 88.795 327.102 89.051C326.59 89.307 326.078 89.627 325.566 90.011V112.043H319.038ZM341.964 112.043V84.299H348.492V112.043H341.964ZM341.964 79.883V74.459H348.492V79.883H341.964ZM359.055 112.475C357.807 112.475 356.735 112.155 355.839 111.515C354.943 110.843 354.255 110.011 353.775 109.019C353.295 107.995 353.055 106.939 353.055 105.851C353.055 104.123 353.375 102.667 354.015 101.483C354.655 100.299 355.503 99.307 356.559 98.507C357.615 97.707 358.815 97.019 360.159 96.443C361.503 95.835 362.863 95.291 364.239 94.811V92.411C364.239 91.611 364.175 90.939 364.047 90.395C363.951 89.851 363.743 89.435 363.423 89.147C363.135 88.859 362.671 88.715 362.031 88.715C361.487 88.715 361.039 88.843 360.687 89.099C360.367 89.355 360.127 89.723 359.967 90.203C359.839 90.651 359.759 91.179 359.727 91.787L359.631 93.467L353.439 93.227C353.535 90.027 354.319 87.675 355.791 86.171C357.295 84.635 359.567 83.867 362.607 83.867C365.391 83.867 367.407 84.635 368.655 86.171C369.935 87.707 370.575 89.787 370.575 92.411V105.227C370.575 106.251 370.591 107.179 370.623 108.011C370.687 108.843 370.751 109.595 370.815 110.267C370.911 110.939 370.991 111.531 371.055 112.043H365.199C365.103 111.403 364.975 110.683 364.815 109.883C364.687 109.051 364.591 108.443 364.527 108.059C364.207 109.179 363.599 110.203 362.703 111.131C361.807 112.027 360.591 112.475 359.055 112.475ZM361.455 107.627C361.871 107.627 362.255 107.531 362.607 107.339C362.991 107.115 363.327 106.859 363.615 106.571C363.903 106.283 364.111 106.027 364.239 105.803V98.075C363.535 98.491 362.863 98.907 362.223 99.323C361.615 99.739 361.071 100.203 360.591 100.715C360.143 101.195 359.791 101.723 359.535 102.299C359.311 102.875 359.199 103.547 359.199 104.315C359.199 105.339 359.391 106.155 359.775 106.763C360.191 107.339 360.751 107.627 361.455 107.627ZM375.382 112.043V84.299H381.91V87.083C382.902 86.123 383.942 85.355 385.03 84.779C386.15 84.171 387.35 83.867 388.63 83.867C389.782 83.867 390.694 84.155 391.366 84.731C392.038 85.275 392.534 86.011 392.854 86.939C393.174 87.867 393.334 88.875 393.334 89.963V112.043H386.806V91.259C386.806 90.427 386.678 89.787 386.422 89.339C386.166 88.891 385.67 88.667 384.934 88.667C384.486 88.667 383.99 88.795 383.446 89.051C382.934 89.307 382.422 89.627 381.91 90.011V112.043H375.382Z" fill="#0F049A"/>
<path d="M240.825 157.626C237.977 157.626 235.737 157.066 234.105 155.946C232.505 154.826 231.385 153.306 230.745 151.386C230.105 149.434 229.785 147.194 229.785 144.666V130.794C229.785 128.138 230.105 125.834 230.745 123.882C231.385 121.93 232.505 120.426 234.105 119.37C235.737 118.314 237.977 117.786 240.825 117.786C243.513 117.786 245.609 118.25 247.113 119.178C248.649 120.074 249.737 121.37 250.377 123.066C251.017 124.762 251.337 126.73 251.337 128.97V132.234H244.521V128.874C244.521 127.786 244.457 126.794 244.329 125.898C244.233 125.002 243.929 124.298 243.417 123.786C242.937 123.242 242.089 122.97 240.873 122.97C239.657 122.97 238.761 123.258 238.185 123.834C237.641 124.378 237.289 125.13 237.129 126.09C236.969 127.018 236.889 128.074 236.889 129.258V146.154C236.889 147.562 237.001 148.73 237.225 149.658C237.449 150.554 237.849 151.242 238.425 151.722C239.033 152.17 239.849 152.394 240.873 152.394C242.057 152.394 242.889 152.122 243.369 151.578C243.881 151.002 244.201 150.25 244.329 149.322C244.457 148.394 244.521 147.354 244.521 146.202V142.698H251.337V145.818C251.337 148.122 251.033 150.17 250.425 151.962C249.817 153.722 248.745 155.114 247.209 156.138C245.705 157.13 243.577 157.626 240.825 157.626ZM264.25 157.53C262.234 157.53 260.57 157.162 259.258 156.426C257.946 155.658 256.954 154.554 256.282 153.114C255.642 151.674 255.322 149.93 255.322 147.882V138.57C255.322 136.522 255.642 134.778 256.282 133.338C256.954 131.898 257.946 130.81 259.258 130.074C260.57 129.306 262.234 128.922 264.25 128.922C266.266 128.922 267.93 129.306 269.242 130.074C270.586 130.81 271.578 131.898 272.218 133.338C272.89 134.778 273.226 136.522 273.226 138.57V147.882C273.226 149.93 272.89 151.674 272.218 153.114C271.578 154.554 270.586 155.658 269.242 156.426C267.93 157.162 266.266 157.53 264.25 157.53ZM264.298 153.018C265.034 153.018 265.578 152.81 265.93 152.394C266.282 151.978 266.506 151.418 266.602 150.714C266.698 149.978 266.746 149.178 266.746 148.314V138.138C266.746 137.274 266.698 136.49 266.602 135.786C266.506 135.082 266.282 134.522 265.93 134.106C265.578 133.658 265.034 133.434 264.298 133.434C263.562 133.434 263.018 133.658 262.666 134.106C262.314 134.522 262.074 135.082 261.946 135.786C261.85 136.49 261.802 137.274 261.802 138.138V148.314C261.802 149.178 261.85 149.978 261.946 150.714C262.074 151.418 262.314 151.978 262.666 152.394C263.018 152.81 263.562 153.018 264.298 153.018ZM285.23 157.53C282.894 157.53 280.974 156.906 279.47 155.658C277.966 154.41 276.894 152.586 276.254 150.186L281.102 148.314C281.486 149.818 281.998 150.97 282.638 151.77C283.278 152.57 284.11 152.97 285.134 152.97C285.902 152.97 286.478 152.778 286.862 152.394C287.246 152.01 287.438 151.482 287.438 150.81C287.438 150.042 287.198 149.354 286.718 148.746C286.27 148.106 285.486 147.322 284.366 146.394L281.006 143.562C279.79 142.506 278.798 141.434 278.03 140.346C277.294 139.226 276.926 137.834 276.926 136.17C276.926 134.666 277.262 133.386 277.934 132.33C278.638 131.242 279.582 130.41 280.766 129.834C281.982 129.226 283.326 128.922 284.798 128.922C287.038 128.922 288.83 129.594 290.174 130.938C291.55 132.25 292.43 133.978 292.814 136.122L288.542 137.946C288.382 137.178 288.142 136.474 287.822 135.834C287.534 135.162 287.15 134.618 286.67 134.202C286.19 133.786 285.63 133.578 284.99 133.578C284.318 133.578 283.774 133.786 283.358 134.202C282.974 134.618 282.782 135.146 282.782 135.786C282.782 136.33 283.006 136.89 283.454 137.466C283.934 138.042 284.606 138.698 285.47 139.434L288.878 142.506C289.614 143.146 290.318 143.834 290.99 144.57C291.662 145.306 292.222 146.138 292.67 147.066C293.118 147.962 293.342 149.002 293.342 150.186C293.342 151.786 292.974 153.13 292.238 154.218C291.534 155.306 290.558 156.138 289.31 156.714C288.094 157.258 286.734 157.53 285.23 157.53ZM296.913 157.098V129.354H303.201V131.754C304.161 130.73 305.201 129.994 306.321 129.546C307.441 129.066 308.577 128.826 309.729 128.826C310.817 128.826 311.761 129.098 312.561 129.642C313.393 130.186 314.001 131.05 314.385 132.234C315.441 131.018 316.561 130.154 317.745 129.642C318.929 129.098 320.145 128.826 321.393 128.826C322.385 128.826 323.265 129.082 324.033 129.594C324.801 130.074 325.409 130.81 325.857 131.802C326.305 132.762 326.529 133.978 326.529 135.45V157.098H320.289V136.026C320.289 134.97 320.113 134.25 319.761 133.866C319.409 133.45 318.913 133.242 318.273 133.242C317.761 133.242 317.185 133.386 316.545 133.674C315.937 133.962 315.377 134.362 314.865 134.874C314.865 134.97 314.865 135.066 314.865 135.162C314.865 135.226 314.865 135.322 314.865 135.45V157.098H308.673V136.026C308.673 134.97 308.481 134.25 308.097 133.866C307.745 133.45 307.249 133.242 306.609 133.242C306.097 133.242 305.537 133.386 304.929 133.674C304.321 133.962 303.745 134.362 303.201 134.874V157.098H296.913ZM331.558 157.098V129.354H338.086V157.098H331.558ZM331.558 124.938V119.514H338.086V124.938H331.558ZM351.624 157.53C349.48 157.53 347.752 157.13 346.44 156.33C345.16 155.498 344.216 154.33 343.608 152.826C343.032 151.29 342.744 149.482 342.744 147.402V139.05C342.744 136.906 343.032 135.082 343.608 133.578C344.216 132.074 345.176 130.922 346.488 130.122C347.8 129.322 349.512 128.922 351.624 128.922C353.608 128.922 355.224 129.242 356.472 129.882C357.752 130.49 358.68 131.434 359.256 132.714C359.832 133.962 360.12 135.546 360.12 137.466V139.77H353.976V137.322C353.976 136.362 353.896 135.61 353.736 135.066C353.608 134.49 353.368 134.09 353.016 133.866C352.664 133.61 352.2 133.482 351.624 133.482C351.048 133.482 350.584 133.642 350.232 133.962C349.88 134.25 349.624 134.73 349.464 135.402C349.336 136.074 349.272 137.002 349.272 138.186V148.362C349.272 150.154 349.464 151.37 349.848 152.01C350.232 152.618 350.84 152.922 351.672 152.922C352.312 152.922 352.792 152.778 353.112 152.49C353.464 152.202 353.688 151.786 353.784 151.242C353.912 150.666 353.976 149.978 353.976 149.178V146.202H360.12V148.842C360.12 150.698 359.816 152.282 359.208 153.594C358.632 154.906 357.704 155.898 356.424 156.57C355.176 157.21 353.576 157.53 351.624 157.53Z" fill="#0F049A"/>
<path d="M230.361 202.152V163.272H246.681V168.264H237.465V179.448H244.713V184.392H237.465V197.256H246.777V202.152H230.361ZM256.7 202.584C254.492 202.584 252.812 201.8 251.66 200.232C250.54 198.664 249.98 196.152 249.98 192.696V184.2C249.98 182.28 250.188 180.552 250.604 179.016C251.052 177.48 251.756 176.264 252.716 175.368C253.676 174.44 254.972 173.976 256.604 173.976C257.596 173.976 258.508 174.184 259.34 174.6C260.204 174.984 260.988 175.496 261.692 176.136V163.272H268.22V202.152H261.692V200.184C260.956 200.92 260.172 201.512 259.34 201.96C258.508 202.376 257.628 202.584 256.7 202.584ZM259.1 198.072C259.452 198.072 259.852 197.992 260.3 197.832C260.748 197.672 261.212 197.448 261.692 197.16V179.352C261.308 179.096 260.892 178.888 260.444 178.728C259.996 178.536 259.532 178.44 259.052 178.44C258.124 178.44 257.468 178.872 257.084 179.736C256.732 180.568 256.556 181.592 256.556 182.808V193.176C256.556 194.104 256.62 194.936 256.748 195.672C256.876 196.408 257.116 197 257.468 197.448C257.852 197.864 258.396 198.072 259.1 198.072ZM277.611 202.584C276.523 202.584 275.627 202.312 274.923 201.768C274.219 201.192 273.707 200.44 273.387 199.512C273.067 198.552 272.907 197.544 272.907 196.488V174.408H279.435V195.288C279.435 196.12 279.563 196.776 279.819 197.256C280.107 197.704 280.619 197.928 281.355 197.928C281.835 197.928 282.315 197.8 282.795 197.544C283.307 197.288 283.803 196.984 284.283 196.632V174.408H290.811V202.152H284.283V199.512C283.355 200.408 282.331 201.144 281.211 201.72C280.091 202.296 278.891 202.584 277.611 202.584ZM304.187 202.584C302.043 202.584 300.315 202.184 299.003 201.384C297.723 200.552 296.779 199.384 296.171 197.88C295.595 196.344 295.307 194.536 295.307 192.456V184.104C295.307 181.96 295.595 180.136 296.171 178.632C296.779 177.128 297.739 175.976 299.051 175.176C300.363 174.376 302.075 173.976 304.187 173.976C306.171 173.976 307.787 174.296 309.035 174.936C310.315 175.544 311.243 176.488 311.819 177.768C312.395 179.016 312.683 180.6 312.683 182.52V184.824H306.539V182.376C306.539 181.416 306.459 180.664 306.299 180.12C306.171 179.544 305.931 179.144 305.579 178.92C305.227 178.664 304.763 178.536 304.187 178.536C303.611 178.536 303.147 178.696 302.795 179.016C302.443 179.304 302.187 179.784 302.027 180.456C301.899 181.128 301.835 182.056 301.835 183.24V193.416C301.835 195.208 302.027 196.424 302.411 197.064C302.795 197.672 303.403 197.976 304.235 197.976C304.875 197.976 305.355 197.832 305.675 197.544C306.027 197.256 306.251 196.84 306.347 196.296C306.475 195.72 306.539 195.032 306.539 194.232V191.256H312.683V193.896C312.683 195.752 312.379 197.336 311.771 198.648C311.195 199.96 310.267 200.952 308.987 201.624C307.739 202.264 306.139 202.584 304.187 202.584ZM322.351 202.584C321.103 202.584 320.031 202.264 319.135 201.624C318.239 200.952 317.551 200.12 317.071 199.128C316.591 198.104 316.351 197.048 316.351 195.96C316.351 194.232 316.671 192.776 317.311 191.592C317.951 190.408 318.799 189.416 319.855 188.616C320.911 187.816 322.111 187.128 323.455 186.552C324.799 185.944 326.159 185.4 327.535 184.92V182.52C327.535 181.72 327.471 181.048 327.343 180.504C327.247 179.96 327.039 179.544 326.719 179.256C326.431 178.968 325.967 178.824 325.327 178.824C324.783 178.824 324.335 178.952 323.983 179.208C323.663 179.464 323.423 179.832 323.263 180.312C323.135 180.76 323.055 181.288 323.023 181.896L322.927 183.576L316.735 183.336C316.831 180.136 317.615 177.784 319.087 176.28C320.591 174.744 322.863 173.976 325.903 173.976C328.687 173.976 330.703 174.744 331.951 176.28C333.231 177.816 333.871 179.896 333.871 182.52V195.336C333.871 196.36 333.887 197.288 333.919 198.12C333.983 198.952 334.047 199.704 334.111 200.376C334.207 201.048 334.287 201.64 334.351 202.152H328.495C328.399 201.512 328.271 200.792 328.111 199.992C327.983 199.16 327.887 198.552 327.823 198.168C327.503 199.288 326.895 200.312 325.999 201.24C325.103 202.136 323.887 202.584 322.351 202.584ZM324.751 197.736C325.167 197.736 325.551 197.64 325.903 197.448C326.287 197.224 326.623 196.968 326.911 196.68C327.199 196.392 327.407 196.136 327.535 195.912V188.184C326.831 188.6 326.159 189.016 325.519 189.432C324.911 189.848 324.367 190.312 323.887 190.824C323.439 191.304 323.087 191.832 322.831 192.408C322.607 192.984 322.495 193.656 322.495 194.424C322.495 195.448 322.687 196.264 323.071 196.872C323.487 197.448 324.047 197.736 324.751 197.736ZM346.46 202.488C344.7 202.488 343.308 202.2 342.284 201.624C341.292 201.048 340.588 200.216 340.172 199.128C339.756 198.04 339.548 196.744 339.548 195.24V178.728H336.764V174.408H339.548V166.104H346.124V174.408H350.348V178.728H346.124V194.664C346.124 195.624 346.332 196.312 346.748 196.728C347.164 197.112 347.788 197.304 348.62 197.304C348.972 197.304 349.308 197.288 349.628 197.256C349.98 197.224 350.316 197.192 350.636 197.16V202.152C350.092 202.216 349.452 202.28 348.716 202.344C348.012 202.44 347.26 202.488 346.46 202.488ZM354.574 202.152V174.408H361.102V202.152H354.574ZM354.574 169.992V164.568H361.102V169.992H354.574ZM374.688 202.584C372.672 202.584 371.008 202.216 369.696 201.48C368.384 200.712 367.392 199.608 366.72 198.168C366.08 196.728 365.76 194.984 365.76 192.936V183.624C365.76 181.576 366.08 179.832 366.72 178.392C367.392 176.952 368.384 175.864 369.696 175.128C371.008 174.36 372.672 173.976 374.688 173.976C376.704 173.976 378.368 174.36 379.68 175.128C381.024 175.864 382.016 176.952 382.656 178.392C383.328 179.832 383.664 181.576 383.664 183.624V192.936C383.664 194.984 383.328 196.728 382.656 198.168C382.016 199.608 381.024 200.712 379.68 201.48C378.368 202.216 376.704 202.584 374.688 202.584ZM374.736 198.072C375.472 198.072 376.016 197.864 376.368 197.448C376.72 197.032 376.944 196.472 377.04 195.768C377.136 195.032 377.184 194.232 377.184 193.368V183.192C377.184 182.328 377.136 181.544 377.04 180.84C376.944 180.136 376.72 179.576 376.368 179.16C376.016 178.712 375.472 178.488 374.736 178.488C374 178.488 373.456 178.712 373.104 179.16C372.752 179.576 372.512 180.136 372.384 180.84C372.288 181.544 372.24 182.328 372.24 183.192V193.368C372.24 194.232 372.288 195.032 372.384 195.768C372.512 196.472 372.752 197.032 373.104 197.448C373.456 197.864 374 198.072 374.736 198.072ZM388.132 202.152V174.408H394.66V177.192C395.652 176.232 396.692 175.464 397.78 174.888C398.9 174.28 400.1 173.976 401.38 173.976C402.532 173.976 403.444 174.264 404.116 174.84C404.788 175.384 405.284 176.12 405.604 177.048C405.924 177.976 406.084 178.984 406.084 180.072V202.152H399.556V181.368C399.556 180.536 399.428 179.896 399.172 179.448C398.916 179 398.42 178.776 397.684 178.776C397.236 178.776 396.74 178.904 396.196 179.16C395.684 179.416 395.172 179.736 394.66 180.12V202.152H388.132Z" fill="#0F049A"/>
<defs>
<clipPath id="clip0_3671_29161">
<rect width="177.102" height="179.46" fill="white" transform="translate(0 87.5742) rotate(-22)"/>
</clipPath>
</defs>
</svg>
