<svg width="70" height="71" viewBox="0 0 70 71" fill="none" xmlns="http://www.w3.org/2000/svg">
<g clip-path="url(#clip0_2909_3357)">
<g clip-path="url(#clip1_2909_3357)">
<path d="M56.036 8.64298L24.6452 3.10794C16.9967 1.7593 9.7031 6.86636 8.35446 14.5149L2.81942 45.9056C1.47078 53.5541 6.57784 60.8478 14.2264 62.1964L45.6171 67.7314C53.2656 69.0801 60.5593 63.973 61.9079 56.3245L67.4429 24.9338C68.7916 17.2853 63.6845 9.99162 56.036 8.64298Z" fill="url(#paint0_radial_2909_3357)"/>
<path d="M56.036 8.64298L24.6452 3.10794C16.9967 1.7593 9.7031 6.86636 8.35446 14.5149L2.81942 45.9056C1.47078 53.5541 6.57784 60.8478 14.2264 62.1964L45.6171 67.7314C53.2656 69.0801 60.5593 63.973 61.9079 56.3245L67.4429 24.9338C68.7916 17.2853 63.6845 9.99162 56.036 8.64298Z" fill="url(#paint1_radial_2909_3357)"/>
<path d="M39.2031 12.3388C32.9347 11.2335 32.143 11.1222 29.6614 10.8001C27.1843 10.4794 25.4384 10.5726 23.8702 10.8846C22.248 11.2064 20.8212 11.7681 19.312 12.8252C17.8018 13.8819 16.786 15.0305 15.9271 16.4439C15.0958 17.8109 14.4106 19.4203 13.8669 21.8569C13.3227 24.2995 13.155 25.0815 12.0497 31.3502C10.9444 37.6189 10.8338 38.4081 10.5114 40.8897C10.1912 43.3668 10.2844 45.1128 10.596 46.6808C10.9182 48.3032 11.4798 49.7299 12.537 51.2391C13.5932 52.7493 14.7415 53.7669 16.1547 54.6239C17.5227 55.4537 19.1317 56.1384 21.5686 56.6842C24.011 57.2303 24.7923 57.3964 31.0605 58.5016C37.3297 59.6071 38.1188 59.7179 40.6004 60.04C43.0775 60.3607 44.8253 60.2678 46.3946 59.956C48.0162 59.6341 49.4414 59.0703 50.9502 58.0124C52.4605 56.9559 53.476 55.8072 54.3352 54.394C55.1614 53.0258 55.8468 51.4167 56.3954 48.9807C56.94 46.5383 57.1072 45.7587 58.2126 39.49C59.3179 33.2213 59.4278 32.4296 59.7513 29.948C60.0692 27.4704 59.9753 25.7246 59.6667 24.157C59.3429 22.5344 58.7815 21.1077 57.7237 19.5982C56.6663 18.088 55.5213 17.0729 54.1057 16.2162C52.7349 15.3857 51.1253 14.7006 48.6879 14.155C46.2455 13.6089 45.4665 13.4432 39.196 12.3375L39.2031 12.3388ZM36.3991 16.1332C37.0139 16.2407 37.6995 16.3625 38.4697 16.4983C44.6327 17.585 45.3591 17.7359 47.7733 18.2756C50.0056 18.7754 51.1607 19.3668 51.9186 19.8262C52.9221 20.4344 53.6018 21.07 54.2667 22.0204C54.9321 22.9707 55.2964 23.8282 55.5259 24.9793C55.6986 25.8475 55.8597 27.1353 55.5654 29.4039C55.2469 31.8566 55.142 32.5916 54.0559 38.7516C52.9697 44.9115 52.8168 45.6383 52.2772 48.0518C51.7775 50.2841 51.1861 51.4393 50.7268 52.1962C50.1186 53.1997 49.4823 53.8783 48.5321 54.5433C47.5818 55.2087 46.7266 55.5734 45.5752 55.8018C44.7065 55.9759 43.418 56.1354 41.1494 55.8416C38.6967 55.5231 37.9617 55.4182 31.7987 54.3315C25.6355 53.2448 24.9092 53.092 22.4957 52.5524C20.2635 52.0517 19.1084 51.4604 18.3498 51.0008C17.3466 50.3924 16.6652 49.7568 15.9998 48.8065C15.3344 47.8562 14.9698 47.0006 14.7404 45.849C14.5677 44.9806 14.4066 43.6927 14.701 41.4242C15.0195 38.9715 15.1262 38.2368 16.213 32.0729C17.2998 25.9092 17.4502 25.1861 17.9898 22.7723C18.4896 20.54 19.0809 19.3849 19.5404 18.627C20.1488 17.6235 20.7853 16.9425 21.7358 16.2772C22.6861 15.6118 23.5436 15.2473 24.6947 15.018C25.5643 14.8441 26.8524 14.6845 29.1211 14.9779C31.2673 15.2571 32.0975 15.3738 36.4001 16.1274L36.3991 16.1332ZM50.1148 22.5032C48.5857 22.2336 47.1265 23.2543 46.8568 24.7837C46.5872 26.3129 47.6091 27.7722 49.1382 28.0419C50.6674 28.3115 52.1267 27.2896 52.3964 25.7605C52.666 24.2313 51.6441 22.772 50.115 22.5023L50.1148 22.5032ZM37.2233 23.567C30.6774 22.4128 24.4342 26.7843 23.28 33.3304C22.1257 39.8765 26.4977 46.1172 33.0436 47.2714C39.5897 48.4256 45.8306 44.0563 46.9848 37.5102C48.1391 30.9643 43.769 24.7212 37.2228 23.5669L37.2233 23.567ZM36.4899 27.7265C40.7389 28.4757 43.5765 32.5276 42.8272 36.7771C42.078 41.0262 38.0256 43.8637 33.7766 43.1144C29.5273 42.3652 26.6903 38.3129 27.4395 34.0639C28.1888 29.8143 32.2406 26.9772 36.4899 27.7265Z" fill="white"/>
</g>
</g>
<defs>
<radialGradient id="paint0_radial_2909_3357" cx="0" cy="0" r="1" gradientUnits="userSpaceOnUse" gradientTransform="translate(15.2704 67.073) rotate(-80) scale(59.4645 55.3066)">
<stop stop-color="#FFDD55"/>
<stop offset="0.1" stop-color="#FFDD55"/>
<stop offset="0.5" stop-color="#FF543E"/>
<stop offset="1" stop-color="#C837AB"/>
</radialGradient>
<radialGradient id="paint1_radial_2909_3357" cx="0" cy="0" r="1" gradientUnits="userSpaceOnUse" gradientTransform="translate(0.148311 3.17726) rotate(88.681) scale(26.5809 109.568)">
<stop stop-color="#3771C8"/>
<stop offset="0.128" stop-color="#3771C8"/>
<stop offset="1" stop-color="#6600FF" stop-opacity="0"/>
</radialGradient>
<clipPath id="clip0_2909_3357">
<rect width="60" height="60" fill="white" transform="translate(10.7964 0.666016) rotate(10)"/>
</clipPath>
<clipPath id="clip1_2909_3357">
<rect width="60" height="60" fill="white" transform="translate(10.7964 0.666016) rotate(10)"/>
</clipPath>
</defs>
</svg>
