<svg width="70" height="71" viewBox="0 0 70 71" fill="none" xmlns="http://www.w3.org/2000/svg">
<rect x="10.7112" y="0.913086" width="60" height="60" rx="16" transform="rotate(10 10.7112 0.913086)" fill="#0072C6"/>
<path d="M56.2916 30.3541L53.0044 48.9965C52.7388 50.5037 51.9072 51.8524 50.6799 52.7667C49.4526 53.6809 47.9223 54.0917 46.4021 53.9148L46.0537 53.8635L18.4791 49.0013C16.9719 48.7357 15.6232 47.9041 14.7089 46.6768C13.7947 45.4495 13.384 43.9192 13.5609 42.399L13.6121 42.0506L16.8993 23.4082L33.3154 39.0911L33.5209 39.2614C33.767 39.4404 34.0507 39.5609 34.3503 39.6138C34.65 39.6666 34.9578 39.6504 35.2503 39.5663L35.5017 39.4766L56.2916 30.3541Z" fill="#F9F9FA"/>
<path d="M51.6126 22.3374C53.7398 22.7125 55.407 24.164 56.1494 26.0354L35.1174 35.2634L18.51 19.3985C19.1453 18.6835 19.9424 18.1308 20.8347 17.7865C21.727 17.4422 22.6888 17.3162 23.6397 17.4192L24.038 17.4752L51.6126 22.3374Z" fill="#F9F9FA"/>
</svg>
