<svg width="70" height="71" viewBox="0 0 70 71" fill="none" xmlns="http://www.w3.org/2000/svg">
<rect x="0.200439" y="11.333" width="60" height="60" rx="16" transform="rotate(-10 0.200439 11.333)" fill="#2AABEE"/>
<path d="M19.2769 36.315C27.9613 30.4851 33.7563 26.6291 36.662 24.7475C44.9687 19.373 46.7152 18.3859 47.9279 18.1491C48.1946 18.0976 48.8021 18.0597 49.2471 18.3105C49.6177 18.5228 49.7728 18.8709 49.8633 19.1186C49.9487 19.3669 50.1069 19.9393 50.1416 20.4018C50.5722 25.6779 50.6883 38.6453 50.6433 44.6479C50.6278 47.1871 49.8797 48.1694 49.0307 48.4021C47.1838 48.9087 45.5072 47.7245 43.4766 46.835C40.3006 45.4419 38.4875 44.5463 35.4004 43.1851C31.8335 41.6119 33.6961 40.0729 35.1752 37.8341C35.5611 37.2483 42.4826 28.1505 42.5169 27.4299C42.5218 27.3397 42.485 27.013 42.2631 26.8765C42.0462 26.7386 41.7789 26.8461 41.5851 26.9278C41.309 27.0442 37.3088 30.8952 29.5694 38.4831C28.4408 39.6097 27.352 40.2538 26.298 40.4159C25.1426 40.5937 22.8091 40.3478 21.0624 40.0941C18.9253 39.7818 17.2527 39.7124 17.1939 38.5524C17.1604 37.949 17.8564 37.2028 19.2769 36.315Z" fill="white"/>
</svg>
