<svg width="15" height="14" viewBox="0 0 15 14" fill="none" xmlns="http://www.w3.org/2000/svg">
<path d="M14.2617 0.193917C14.1316 0.10788 13.9861 0.0488041 13.8336 0.0200631C13.6811 -0.00867791 13.5245 -0.00652051 13.3729 0.026412C13.2212 0.0593446 13.0773 0.122407 12.9496 0.211997C12.8218 0.301586 12.7126 0.415948 12.6282 0.548548L6.01024 10.9432L2.78274 7.90233C2.66886 7.79505 2.53537 7.71166 2.38988 7.65695C2.24438 7.60223 2.08973 7.57725 1.93477 7.58344C1.62179 7.59592 1.32651 7.73459 1.11387 7.96893C0.901227 8.20326 0.788652 8.51408 0.800909 8.83299C0.813165 9.15191 0.949247 9.4528 1.17922 9.66947L5.41694 13.6619C5.41694 13.6619 5.53859 13.7686 5.59489 13.8059C5.725 13.892 5.87049 13.9511 6.02303 13.9799C6.17558 14.0087 6.3322 14.0065 6.48393 13.9736C6.63566 13.9407 6.77954 13.8776 6.90734 13.788C7.03513 13.6983 7.14434 13.5839 7.22872 13.4513L14.6097 1.85836C14.6941 1.72579 14.7521 1.57758 14.7803 1.42218C14.8085 1.26678 14.8064 1.10724 14.7741 0.952668C14.7418 0.798102 14.6799 0.651537 14.592 0.521349C14.504 0.39116 14.3918 0.279897 14.2617 0.193917Z" fill="#161618"/>
</svg>
